<?xml version="1.0" encoding="utf-8" standalone="no"?>
<!DOCTYPE svg PUBLIC "-//W3C//DTD SVG 1.1//EN"
  "http://www.w3.org/Graphics/SVG/1.1/DTD/svg11.dtd">
<svg xmlns:xlink="http://www.w3.org/1999/xlink" width="460.8pt" height="345.6pt" viewBox="0 0 460.8 345.6" xmlns="http://www.w3.org/2000/svg" version="1.1">
 <metadata>
  <rdf:RDF xmlns:dc="http://purl.org/dc/elements/1.1/" xmlns:cc="http://creativecommons.org/ns#" xmlns:rdf="http://www.w3.org/1999/02/22-rdf-syntax-ns#">
   <cc:Work>
    <dc:type rdf:resource="http://purl.org/dc/dcmitype/StillImage"/>
    <dc:date>2023-12-12T12:12:45.285120</dc:date>
    <dc:format>image/svg+xml</dc:format>
    <dc:creator>
     <cc:Agent>
      <dc:title>Matplotlib v3.8.0, https://matplotlib.org/</dc:title>
     </cc:Agent>
    </dc:creator>
   </cc:Work>
  </rdf:RDF>
 </metadata>
 <defs>
  <style type="text/css">*{stroke-linejoin: round; stroke-linecap: butt}</style>
 </defs>
 <g id="figure_1">
  <g id="patch_1">
   <path d="M 0 345.6 
L 460.8 345.6 
L 460.8 0 
L 0 0 
z
" style="fill: #ffffff"/>
  </g>
  <g id="axes_1">
   <g id="patch_2">
    <path d="M 57.6 307.584 
L 414.72 307.584 
L 414.72 41.472 
L 57.6 41.472 
z
" style="fill: #ffffff"/>
   </g>
   <g id="patch_3">
    <path d="M 57.6 307.584 
L 57.6 41.472 
" style="fill: none; stroke: #000000; stroke-width: 0.8; stroke-linejoin: miter; stroke-linecap: square"/>
   </g>
   <g id="patch_4">
    <path d="M 414.72 307.584 
L 414.72 41.472 
" style="fill: none; stroke: #000000; stroke-width: 0.8; stroke-linejoin: miter; stroke-linecap: square"/>
   </g>
   <g id="patch_5">
    <path d="M 57.6 307.584 
L 414.72 307.584 
" style="fill: none; stroke: #000000; stroke-width: 0.8; stroke-linejoin: miter; stroke-linecap: square"/>
   </g>
   <g id="patch_6">
    <path d="M 57.6 41.472 
L 414.72 41.472 
" style="fill: none; stroke: #000000; stroke-width: 0.8; stroke-linejoin: miter; stroke-linecap: square"/>
   </g>
   <g id="text_1">
    <!-- Trajectory Plot -->
    <g transform="translate(193.322812 35.472) scale(0.12 -0.12)">
     <defs>
      <path id="DejaVuSans-54" d="M -19 4666 
L 3928 4666 
L 3928 4134 
L 2272 4134 
L 2272 0 
L 1638 0 
L 1638 4134 
L -19 4134 
L -19 4666 
z
" transform="scale(0.015625)"/>
      <path id="DejaVuSans-72" d="M 2631 2963 
Q 2534 3019 2420 3045 
Q 2306 3072 2169 3072 
Q 1681 3072 1420 2755 
Q 1159 2438 1159 1844 
L 1159 0 
L 581 0 
L 581 3500 
L 1159 3500 
L 1159 2956 
Q 1341 3275 1631 3429 
Q 1922 3584 2338 3584 
Q 2397 3584 2469 3576 
Q 2541 3569 2628 3553 
L 2631 2963 
z
" transform="scale(0.015625)"/>
      <path id="DejaVuSans-61" d="M 2194 1759 
Q 1497 1759 1228 1600 
Q 959 1441 959 1056 
Q 959 750 1161 570 
Q 1363 391 1709 391 
Q 2188 391 2477 730 
Q 2766 1069 2766 1631 
L 2766 1759 
L 2194 1759 
z
M 3341 1997 
L 3341 0 
L 2766 0 
L 2766 531 
Q 2569 213 2275 61 
Q 1981 -91 1556 -91 
Q 1019 -91 701 211 
Q 384 513 384 1019 
Q 384 1609 779 1909 
Q 1175 2209 1959 2209 
L 2766 2209 
L 2766 2266 
Q 2766 2663 2505 2880 
Q 2244 3097 1772 3097 
Q 1472 3097 1187 3025 
Q 903 2953 641 2809 
L 641 3341 
Q 956 3463 1253 3523 
Q 1550 3584 1831 3584 
Q 2591 3584 2966 3190 
Q 3341 2797 3341 1997 
z
" transform="scale(0.015625)"/>
      <path id="DejaVuSans-6a" d="M 603 3500 
L 1178 3500 
L 1178 -63 
Q 1178 -731 923 -1031 
Q 669 -1331 103 -1331 
L -116 -1331 
L -116 -844 
L 38 -844 
Q 366 -844 484 -692 
Q 603 -541 603 -63 
L 603 3500 
z
M 603 4863 
L 1178 4863 
L 1178 4134 
L 603 4134 
L 603 4863 
z
" transform="scale(0.015625)"/>
      <path id="DejaVuSans-65" d="M 3597 1894 
L 3597 1613 
L 953 1613 
Q 991 1019 1311 708 
Q 1631 397 2203 397 
Q 2534 397 2845 478 
Q 3156 559 3463 722 
L 3463 178 
Q 3153 47 2828 -22 
Q 2503 -91 2169 -91 
Q 1331 -91 842 396 
Q 353 884 353 1716 
Q 353 2575 817 3079 
Q 1281 3584 2069 3584 
Q 2775 3584 3186 3129 
Q 3597 2675 3597 1894 
z
M 3022 2063 
Q 3016 2534 2758 2815 
Q 2500 3097 2075 3097 
Q 1594 3097 1305 2825 
Q 1016 2553 972 2059 
L 3022 2063 
z
" transform="scale(0.015625)"/>
      <path id="DejaVuSans-63" d="M 3122 3366 
L 3122 2828 
Q 2878 2963 2633 3030 
Q 2388 3097 2138 3097 
Q 1578 3097 1268 2742 
Q 959 2388 959 1747 
Q 959 1106 1268 751 
Q 1578 397 2138 397 
Q 2388 397 2633 464 
Q 2878 531 3122 666 
L 3122 134 
Q 2881 22 2623 -34 
Q 2366 -91 2075 -91 
Q 1284 -91 818 406 
Q 353 903 353 1747 
Q 353 2603 823 3093 
Q 1294 3584 2113 3584 
Q 2378 3584 2631 3529 
Q 2884 3475 3122 3366 
z
" transform="scale(0.015625)"/>
      <path id="DejaVuSans-74" d="M 1172 4494 
L 1172 3500 
L 2356 3500 
L 2356 3053 
L 1172 3053 
L 1172 1153 
Q 1172 725 1289 603 
Q 1406 481 1766 481 
L 2356 481 
L 2356 0 
L 1766 0 
Q 1100 0 847 248 
Q 594 497 594 1153 
L 594 3053 
L 172 3053 
L 172 3500 
L 594 3500 
L 594 4494 
L 1172 4494 
z
" transform="scale(0.015625)"/>
      <path id="DejaVuSans-6f" d="M 1959 3097 
Q 1497 3097 1228 2736 
Q 959 2375 959 1747 
Q 959 1119 1226 758 
Q 1494 397 1959 397 
Q 2419 397 2687 759 
Q 2956 1122 2956 1747 
Q 2956 2369 2687 2733 
Q 2419 3097 1959 3097 
z
M 1959 3584 
Q 2709 3584 3137 3096 
Q 3566 2609 3566 1747 
Q 3566 888 3137 398 
Q 2709 -91 1959 -91 
Q 1206 -91 779 398 
Q 353 888 353 1747 
Q 353 2609 779 3096 
Q 1206 3584 1959 3584 
z
" transform="scale(0.015625)"/>
      <path id="DejaVuSans-79" d="M 2059 -325 
Q 1816 -950 1584 -1140 
Q 1353 -1331 966 -1331 
L 506 -1331 
L 506 -850 
L 844 -850 
Q 1081 -850 1212 -737 
Q 1344 -625 1503 -206 
L 1606 56 
L 191 3500 
L 800 3500 
L 1894 763 
L 2988 3500 
L 3597 3500 
L 2059 -325 
z
" transform="scale(0.015625)"/>
      <path id="DejaVuSans-20" transform="scale(0.015625)"/>
      <path id="DejaVuSans-50" d="M 1259 4147 
L 1259 2394 
L 2053 2394 
Q 2494 2394 2734 2622 
Q 2975 2850 2975 3272 
Q 2975 3691 2734 3919 
Q 2494 4147 2053 4147 
L 1259 4147 
z
M 628 4666 
L 2053 4666 
Q 2838 4666 3239 4311 
Q 3641 3956 3641 3272 
Q 3641 2581 3239 2228 
Q 2838 1875 2053 1875 
L 1259 1875 
L 1259 0 
L 628 0 
L 628 4666 
z
" transform="scale(0.015625)"/>
      <path id="DejaVuSans-6c" d="M 603 4863 
L 1178 4863 
L 1178 0 
L 603 0 
L 603 4863 
z
" transform="scale(0.015625)"/>
     </defs>
     <use xlink:href="#DejaVuSans-54"/>
     <use xlink:href="#DejaVuSans-72" x="46.333984"/>
     <use xlink:href="#DejaVuSans-61" x="87.447266"/>
     <use xlink:href="#DejaVuSans-6a" x="148.726562"/>
     <use xlink:href="#DejaVuSans-65" x="176.509766"/>
     <use xlink:href="#DejaVuSans-63" x="238.033203"/>
     <use xlink:href="#DejaVuSans-74" x="293.013672"/>
     <use xlink:href="#DejaVuSans-6f" x="332.222656"/>
     <use xlink:href="#DejaVuSans-72" x="393.404297"/>
     <use xlink:href="#DejaVuSans-79" x="434.517578"/>
     <use xlink:href="#DejaVuSans-20" x="493.697266"/>
     <use xlink:href="#DejaVuSans-50" x="525.484375"/>
     <use xlink:href="#DejaVuSans-6c" x="585.787109"/>
     <use xlink:href="#DejaVuSans-6f" x="613.570312"/>
     <use xlink:href="#DejaVuSans-74" x="674.751953"/>
    </g>
   </g>
  </g>
  <g id="patch_7">
   <path d="M 103.104 307.584 
L 369.216 307.584 
L 369.216 41.472 
L 103.104 41.472 
z
" style="fill: #ffffff"/>
  </g>
  <g id="axes_2">
   <g id="line2d_1">
    <path clip-path="url(#pd0f979c79f)" style="fill: none; stroke-dasharray: 5.55,2.4; stroke-dashoffset: 0; stroke: #ff8c00; stroke-width: 1.5"/>
   </g>
   <g id="line2d_2">
    <path d="M 310.729112 -1 
L 318.940566 7.632544 
L 325.637065 14.989256 
L 329.744704 19.723505 
L 329.744704 19.723505 
" clip-path="url(#pd0f979c79f)" style="fill: none; stroke-dasharray: 9.6,2.4,1.5,2.4; stroke-dashoffset: 0; stroke: #00ffff; stroke-width: 1.5"/>
   </g>
   <g id="line2d_3">
    <path d="M 331.452041 21.766187 
L 335.359081 26.677765 
L 339.098081 31.741961 
L 342.511923 36.741156 
L 345.748052 41.885602 
L 348.665734 46.944032 
L 351.398056 52.138268 
L 353.822379 57.223679 
L 356.05636 62.433407 
L 357.997024 67.510048 
L 359.745596 72.697689 
L 361.292485 77.994461 
L 362.566548 83.125088 
L 363.64201 88.348873 
L 364.511168 93.662114 
L 365.166735 99.060321 
L 365.353059 101.069523 
L 365.353059 101.069523 
" clip-path="url(#pd0f979c79f)" style="fill: none; stroke-dasharray: 5.55,2.4; stroke-dashoffset: 0; stroke: #f08080; stroke-width: 1.5"/>
   </g>
   <g id="line2d_4">
    <path d="M 365.353059 101.069523 
L 365.637424 105.31002 
L 365.637424 105.31002 
" clip-path="url(#pd0f979c79f)" style="fill: none; stroke-dasharray: 9.6,2.4,1.5,2.4; stroke-dashoffset: 0; stroke: #ff00ff; stroke-width: 1.5"/>
   </g>
   <g id="line2d_5">
    <path d="M 365.638602 105.335122 
L 365.74236 110.030047 
L 365.615262 114.804702 
L 365.253219 119.652669 
L 364.652633 124.567048 
L 363.810457 129.540456 
L 362.724255 134.565033 
L 361.392266 139.632458 
L 359.813457 144.733969 
L 357.987581 149.86039 
L 355.915228 155.002167 
L 353.597867 160.149419 
L 351.037879 165.291985 
L 348.238586 170.419487 
L 345.20426 175.521401 
L 341.940129 180.587129 
L 338.452358 185.606078 
L 334.547209 190.827104 
L 330.41141 195.972621 
L 326.055257 201.03091 
L 321.489957 205.990675 
L 316.727521 210.841146 
L 311.780651 215.57216 
L 306.40246 220.400808 
L 300.851423 225.077253 
L 295.143761 229.592409 
L 289.295879 233.938212 
L 283.324211 238.107645 
L 276.95317 242.279969 
L 270.482595 246.246552 
L 263.930445 250.00297 
L 257.314077 253.545955 
L 250.346366 257.019425 
L 243.344757 260.255928 
L 236.326332 263.255244 
L 229.307109 266.018134 
L 221.997992 268.650851 
L 214.719962 271.030638 
L 207.487458 273.160978 
L 200.313688 275.045992 
L 193.210684 276.690321 
L 185.898732 278.152685 
L 178.686539 279.36547 
L 171.584097 280.335044 
L 164.600345 281.067974 
L 157.743257 281.570947 
L 150.753871 281.857351 
L 143.909891 281.909871 
L 137.198202 281.734582 
L 130.651622 281.338408 
L 124.275049 280.728825 
L 118.072777 279.913172 
L 112.048569 278.898634 
L 106.20572 277.692234 
L 100.547106 276.300818 
L 95.075241 274.731062 
L 89.792316 272.989464 
L 84.700242 271.082349 
L 79.800678 269.015873 
L 75.095065 266.79603 
L 70.584655 264.428656 
L 66.270524 261.919439 
L 62.153604 259.273924 
L 58.234689 256.497525 
L 54.514456 253.595531 
L 50.993476 250.573116 
L 47.672223 247.435346 
L 44.551083 244.187189 
L 41.630364 240.833523 
L 38.910298 237.379143 
L 36.391048 233.828772 
L 34.072712 230.187064 
L 31.955324 226.458615 
L 30.038858 222.647966 
L 28.323227 218.759614 
L 26.754025 214.644245 
L 25.401017 210.45484 
L 24.263903 206.196319 
L 23.342313 201.873577 
L 23.055591 200.257241 
L 23.055591 200.257241 
" clip-path="url(#pd0f979c79f)" style="fill: none; stroke-dasharray: 5.55,2.4; stroke-dashoffset: 0; stroke: #800000; stroke-width: 1.5"/>
   </g>
   <g id="line2d_6">
    <path d="M 23.055591 200.257241 
L 23.052691 200.239955 
L 23.049801 200.222705 
L 23.04692 200.205493 
L 23.04405 200.188317 
L 23.041188 200.171178 
L 23.038337 200.154076 
L 23.035495 200.137011 
L 23.032663 200.119982 
L 23.029841 200.102991 
L 23.027028 200.086037 
L 23.024225 200.06912 
L 23.021431 200.05224 
L 23.018647 200.035398 
L 23.015873 200.018592 
L 23.013109 200.001824 
L 23.010354 199.985094 
L 23.007609 199.968401 
L 23.004873 199.951745 
L 23.002148 199.935127 
L 22.999431 199.918546 
L 22.996725 199.902003 
L 22.994028 199.885497 
L 22.991341 199.869029 
L 22.988664 199.852599 
L 22.985996 199.836207 
L 22.983338 199.819853 
L 22.980689 199.803536 
L 22.97805 199.787258 
L 22.975421 199.771017 
L 22.972801 199.754815 
L 22.970192 199.73865 
L 22.967591 199.722524 
L 22.965001 199.706436 
L 22.96242 199.690386 
L 22.959849 199.674374 
L 22.957287 199.658401 
L 22.954735 199.642466 
L 22.952193 199.62657 
L 22.94966 199.610712 
L 22.947137 199.594892 
L 22.944624 199.579111 
L 22.94212 199.563369 
L 22.939626 199.547666 
L 22.937142 199.532001 
L 22.934667 199.516375 
L 22.932202 199.500788 
L 22.929747 199.48524 
L 22.927301 199.46973 
L 22.924865 199.45426 
L 22.922439 199.438829 
L 22.920022 199.423436 
L 22.917615 199.408083 
L 22.915217 199.39277 
L 22.912829 199.377495 
L 22.910451 199.36226 
L 22.908082 199.347064 
L 22.905723 199.331907 
L 22.903374 199.31679 
L 22.901034 199.301713 
L 22.898704 199.286675 
L 22.896384 199.271676 
L 22.894073 199.256718 
L 22.891772 199.241799 
L 22.88948 199.226919 
L 22.887198 199.21208 
L 22.884926 199.19728 
L 22.882663 199.182521 
L 22.88041 199.167801 
L 22.878167 199.153122 
L 22.875933 199.138482 
L 22.873708 199.123883 
L 22.871494 199.109324 
L 22.869289 199.094805 
L 22.867094 199.080327 
L 22.864908 199.065888 
L 22.862732 199.051491 
L 22.860565 199.037133 
L 22.858408 199.022817 
L 22.856261 199.00854 
L 22.854123 198.994305 
L 22.851995 198.98011 
L 22.849876 198.965956 
L 22.847767 198.951843 
L 22.845668 198.93777 
L 22.843578 198.923739 
L 22.841498 198.909748 
L 22.839427 198.895799 
L 22.837366 198.88189 
L 22.835315 198.868023 
L 22.833273 198.854197 
L 22.831241 198.840412 
L 22.829218 198.826669 
L 22.827205 198.812966 
L 22.825202 198.799306 
L 22.823208 198.785686 
L 22.821223 198.772109 
L 22.819248 198.758572 
L 22.817283 198.745078 
L 22.815327 198.731625 
L 22.813381 198.718214 
L 22.811444 198.704845 
L 22.809517 198.691517 
L 22.8076 198.678232 
L 22.805692 198.664989 
L 22.803793 198.651787 
L 22.801904 198.638628 
L 22.800025 198.625511 
L 22.798155 198.612436 
L 22.796295 198.599404 
L 22.794444 198.586413 
L 22.792603 198.573466 
L 22.790771 198.56056 
L 22.788949 198.547697 
L 22.787136 198.534877 
L 22.785333 198.5221 
L 22.783539 198.509365 
L 22.781755 198.496673 
L 22.77998 198.484023 
L 22.778215 198.471417 
L 22.776459 198.458853 
L 22.774713 198.446333 
" clip-path="url(#pd0f979c79f)" style="fill: none; stroke-dasharray: 9.6,2.4,1.5,2.4; stroke-dashoffset: 0; stroke: #dc143c; stroke-width: 1.5"/>
   </g>
   <g id="line2d_7">
    <path d="M 22.774397 198.444061 
L 22.420722 194.930801 
L 22.331229 191.371067 
L 22.505719 187.76965 
L 22.94415 184.131349 
L 23.646622 180.460991 
L 24.613359 176.763455 
L 25.844707 173.043692 
L 27.341113 169.30674 
L 29.103121 165.557751 
L 31.131359 161.802008 
L 33.426527 158.044949 
L 35.989388 154.292189 
L 38.820758 150.549544 
L 41.921495 146.823058 
L 45.292483 143.119031 
L 48.934628 139.444052 
L 52.848835 135.80503 
L 57.036004 132.209231 
L 61.497003 128.664327 
L 66.232657 125.178436 
L 71.243726 121.760179 
L 76.530876 118.418741 
L 82.094653 115.163943 
L 87.93545 112.00632 
L 94.05346 108.957219 
L 100.448627 106.028907 
L 107.120586 103.234702 
L 114.068576 100.589123 
L 121.291349 98.108082 
L 128.787036 95.809095 
L 136.552991 93.711552 
L 144.585573 91.837041 
L 152.879875 90.209747 
L 161.429354 88.856943 
L 167.266594 88.122691 
L 173.21022 87.534355 
L 179.256341 87.103187 
L 185.400262 86.841582 
L 191.636304 86.763261 
L 197.957579 86.883459 
L 204.355704 87.219178 
L 210.820436 87.789462 
L 217.339193 88.615737 
L 223.896443 89.722212 
L 230.472888 91.136346 
L 237.044402 92.889398 
L 243.58061 95.01704 
L 250.042994 97.560038 
L 253.231633 99.001595 
L 256.382367 100.564924 
L 259.486829 102.256833 
L 262.535509 104.08454 
L 265.517588 106.055665 
L 268.420753 108.178198 
L 271.230989 110.460444 
L 273.932363 112.91093 
L 276.506793 115.53826 
L 278.933826 118.350898 
L 281.190441 121.356866 
L 283.250919 124.563326 
L 285.086822 127.976021 
L 286.667152 131.59856 
L 287.958784 135.43154 
L 288.927266 139.471522 
L 289.538076 143.709928 
L 289.758403 148.131987 
L 289.559412 152.715928 
L 288.918837 157.432644 
L 287.823528 162.246248 
L 286.261089 167.148092 
L 284.257025 172.054648 
L 281.815383 176.952525 
L 278.974941 181.79209 
L 275.789775 186.511034 
L 272.307814 191.07712 
L 268.578381 195.466061 
L 264.649293 199.661399 
L 260.564772 203.65374 
L 256.363181 207.440481 
L 252.08066 211.020886 
L 247.744989 214.400402 
L 243.380036 217.585858 
L 239.005285 220.585566 
L 234.636432 223.408656 
L 230.285977 226.064609 
L 221.677454 230.912812 
L 213.234676 235.202561 
L 204.989203 238.99931 
L 196.957501 242.360437 
L 189.146449 245.335483 
L 181.556937 247.966936 
L 174.186185 250.291171 
L 167.029242 252.339373 
L 160.079942 254.138349 
L 153.331521 255.711234 
L 146.777004 257.078082 
L 137.293669 258.779632 
L 128.208514 260.106462 
L 119.50049 261.099975 
L 111.150278 261.79474 
L 103.140304 262.219901 
L 95.454672 262.400242 
L 88.079046 262.357021 
L 81.000508 262.108609 
L 74.207429 261.671 
L 67.689335 261.058215 
L 61.436789 260.282624 
L 55.441283 259.355206 
L 49.695141 258.285762 
L 44.191436 257.083093 
L 38.923908 255.755137 
L 33.886903 254.309096 
L 29.075312 252.751534 
L 24.484515 251.08846 
L 20.11034 249.325403 
L 15.949018 247.467471 
L 11.997146 245.519405 
L 8.25166 243.485623 
L 4.709798 241.370262 
L 1.36908 239.177206 
L -1 237.485693 
M -1 140.730928 
L 3.010306 136.788205 
L 7.642557 132.606995 
L 12.626261 128.474023 
L 17.963468 124.398684 
L 23.656237 120.390963 
L 29.706612 116.46151 
L 36.116601 112.621727 
L 42.888152 108.883866 
L 50.023114 105.26115 
L 57.523206 101.767913 
L 65.389958 98.41976 
L 73.624653 95.233773 
L 80.042723 92.961937 
L 86.668548 90.800505 
L 93.5022 88.758848 
L 100.543542 86.84715 
L 107.79217 85.076529 
L 115.247356 83.459165 
L 122.90796 82.008473 
L 130.77233 80.739295 
L 138.838162 79.668141 
L 147.102323 78.813484 
L 155.560617 78.196117 
L 164.207471 77.839602 
L 173.035512 77.770833 
L 182.034989 78.020735 
L 188.12366 78.381852 
L 194.278031 78.912491 
L 200.492232 79.62611 
L 206.759105 80.537776 
L 213.069886 81.664431 
L 219.413787 83.025208 
L 225.777456 84.641813 
L 232.14426 86.53898 
L 238.493336 88.745003 
L 244.798323 91.292364 
L 251.025657 94.218435 
L 254.097194 95.836687 
L 257.132265 97.566227 
L 260.123493 99.413433 
L 263.06246 101.385109 
L 265.939553 103.488499 
L 268.743779 105.73127 
L 271.462565 108.121481 
L 274.081531 110.667526 
L 276.584247 113.378022 
L 278.951984 116.261652 
L 281.16347 119.32691 
L 283.194691 122.581753 
L 285.018759 126.033115 
L 286.605941 129.686252 
L 287.923908 133.543909 
L 288.938332 137.605308 
L 289.61393 141.86498 
L 289.91608 146.311573 
L 289.813006 150.926783 
L 289.278462 155.684687 
L 288.294611 160.551791 
L 286.853576 165.491423 
L 284.979772 170.407798 
L 282.699412 175.242462 
L 280.015587 180.014191 
L 276.968871 184.680209 
L 273.604505 189.205318 
L 269.970273 193.561859 
L 266.11383 197.729638 
L 262.079428 201.696474 
L 257.91037 205.453502 
L 253.642268 208.999874 
L 249.306694 212.337691 
L 244.930351 215.471937 
L 240.535455 218.409579 
L 236.140236 221.158842 
L 231.759475 223.728655 
L 227.405032 226.128232 
L 223.08632 228.366784 
L 214.584013 232.396492 
L 206.293617 235.885312 
L 198.238325 238.893623 
L 190.429698 241.47428 
L 182.871836 243.673072 
L 175.564132 245.529502 
L 168.503083 247.077629 
L 161.683466 248.346871 
L 155.099116 249.362712 
L 148.743421 250.147314 
L 142.609645 250.720028 
L 136.691136 251.097831 
L 130.981447 251.295682 
L 125.473097 251.326809 
L 120.162935 251.202971 
L 112.554794 250.749401 
L 105.360109 250.001676 
L 98.563468 248.986409 
L 92.151053 247.726604 
L 86.110504 246.242321 
L 80.430795 244.551193 
L 75.102103 242.668838 
L 70.115692 240.609204 
L 65.463804 238.384829 
L 61.139559 236.007075 
L 57.136869 233.486306 
L 53.45036 230.832042 
L 50.075301 228.053092 
L 47.007541 225.157657 
L 44.243459 222.153426 
L 41.779907 219.047657 
L 39.614172 215.847242 
L 37.743933 212.558771 
L 36.16723 209.188581 
L 34.882427 205.742808 
L 33.888185 202.227424 
L 33.183439 198.648281 
L 32.76737 195.011138 
L 32.639385 191.321701 
L 32.799095 187.585651 
L 33.246301 183.80867 
L 33.980972 179.996472 
L 35.003228 176.154828 
L 36.31333 172.289594 
L 37.911659 168.406738 
L 39.798704 164.512366 
L 41.975048 160.612749 
L 44.441351 156.714357 
L 47.198341 152.823882 
L 50.246792 148.948279 
L 53.587514 145.094795 
L 57.221333 141.271012 
L 61.149075 137.484887 
L 65.371546 133.744799 
L 69.889506 130.059605 
L 74.70365 126.438696 
L 79.814574 122.892065 
L 85.222741 119.430387 
L 90.928443 116.065105 
L 96.931749 112.808539 
L 103.232446 109.673999 
L 109.829969 106.675934 
L 116.723303 103.8301 
L 123.910873 101.15376 
L 131.390396 98.665924 
L 139.158694 96.387649 
L 147.211446 94.34239 
L 155.542874 92.556443 
L 161.248284 91.524374 
L 167.07134 90.63043 
L 173.00861 89.885287 
L 179.055963 89.300655 
L 185.208418 88.889427 
L 191.459961 88.665854 
L 197.803302 88.645754 
L 204.229584 88.846753 
L 210.727989 89.288576 
L 217.285252 89.993392 
L 223.885009 90.986217 
L 230.506958 92.295384 
L 237.125747 93.953097 
L 243.709498 95.996039 
L 246.976019 97.174822 
L 250.21785 98.466034 
L 253.428194 99.875812 
L 256.59935 101.410686 
L 259.722589 103.077589 
L 262.787999 104.883852 
L 265.78432 106.837192 
L 268.698754 108.945671 
L 271.516766 111.217633 
L 274.221861 113.661596 
L 276.795365 116.286091 
L 279.216213 119.099428 
L 281.460777 122.109374 
L 283.502757 125.322703 
L 285.313207 128.744616 
L 286.860753 132.378004 
L 288.112089 136.222552 
L 289.03286 140.273718 
L 289.588999 144.521656 
L 289.748569 148.95023 
L 289.484056 153.536296 
L 288.774912 158.249514 
L 287.609959 163.053176 
L 285.987061 167.913579 
L 283.941025 172.726888 
L 281.497717 177.44959 
L 278.666154 182.09399 
L 275.490241 186.616658 
L 272.01542 190.985884 
L 268.288648 195.176938 
L 264.354997 199.173024 
L 260.259698 202.96091 
L 256.041165 206.535911 
L 251.734193 209.896917 
L 247.36887 213.046354 
L 242.970743 215.989255 
L 238.561184 218.732457 
L 234.157849 221.283958 
L 229.775165 223.652416 
L 225.424804 225.846778 
L 221.116122 227.876006 
L 216.856539 229.748889 
L 208.506672 233.059217 
L 200.407472 235.840931 
L 192.576968 238.150266 
L 185.023826 240.036525 
L 177.750651 241.542616 
L 170.75619 242.705782 
L 164.036803 243.558361 
L 157.587429 244.128487 
L 151.402237 244.440717 
L 145.475046 244.516568 
L 139.799603 244.374972 
L 134.369758 244.032667 
L 129.178338 243.504364 
L 124.222225 242.803583 
L 119.494787 241.942099 
L 114.991026 240.930616 
L 110.706279 239.778812 
L 106.636219 238.495484 
L 102.776838 237.088662 
L 99.12444 235.565706 
L 95.675619 233.933397 
L 92.427249 232.198002 
L 89.376462 230.365347 
L 86.520633 228.440865 
L 83.857368 226.429645 
L 81.384483 224.336476 
L 79.099995 222.165884 
L 77.002106 219.922162 
L 75.089189 217.609399 
L 73.35978 215.231511 
L 71.812563 212.792255 
L 70.446363 210.295258 
L 69.260132 207.744032 
L 68.252944 205.141992 
L 67.423985 202.492469 
L 66.772545 199.798731 
L 66.298009 197.063987 
L 65.999852 194.291409 
L 65.877631 191.484138 
L 65.930978 188.645295 
L 66.159595 185.777996 
L 66.563248 182.885359 
L 67.141761 179.970512 
L 67.895007 177.036609 
L 68.82291 174.086834 
L 69.925433 171.124413 
L 71.202572 168.152625 
L 72.654357 165.174807 
L 74.280842 162.194372 
L 76.082096 159.214812 
L 78.058206 156.239714 
L 80.209262 153.272768 
L 83.764069 148.845997 
L 87.712982 144.459574 
L 92.056182 140.127674 
L 96.793692 135.865352 
L 101.925301 131.688684 
L 107.450475 127.614921 
L 113.368247 123.662674 
L 117.530811 121.105245 
L 121.866574 118.617174 
L 126.374741 116.205276 
L 131.054321 113.876809 
L 135.904086 111.639521 
L 140.922533 109.501707 
L 146.107832 107.472273 
L 151.457764 105.560809 
L 156.96965 103.777676 
L 162.640263 102.134102 
L 168.465718 100.642295 
L 174.441341 99.31558 
L 180.561501 98.168551 
L 186.819409 97.217251 
L 193.206858 96.479388 
L 199.713899 95.974584 
L 206.328426 95.724667 
L 213.035647 95.754019 
L 219.817401 96.089972 
L 226.651269 96.763279 
L 233.509415 97.80863 
L 240.357059 99.265236 
L 243.763698 100.161393 
L 247.150485 101.177415 
L 250.510126 102.319726 
L 253.8344 103.595132 
L 257.114025 105.010812 
L 260.338517 106.574316 
L 263.496028 108.293539 
L 266.573169 110.176671 
L 269.554817 112.232122 
L 272.42392 114.46841 
L 275.161293 116.893983 
L 277.745443 119.516985 
L 280.152421 122.344928 
L 282.355757 125.384253 
L 284.326514 128.639775 
L 286.033526 132.113986 
L 287.443896 135.806218 
L 288.523832 139.711714 
L 289.239891 143.820651 
L 289.560653 148.117247 
L 289.458793 152.57911 
L 288.913382 157.177034 
L 287.912109 161.875554 
L 286.451573 166.639645 
L 284.561104 171.371113 
L 282.262623 176.02871 
L 279.561941 180.625063 
L 276.502015 185.111888 
L 273.126166 189.455231 
L 269.479141 193.628759 
L 265.608499 197.609755 
L 261.557314 201.384986 
L 257.366303 204.945925 
L 253.072145 208.288918 
L 248.707119 211.414235 
L 244.299097 214.325161 
L 239.87177 217.027185 
L 235.445017 219.527315 
L 231.035327 221.833536 
L 226.656251 223.954374 
L 222.318823 225.898585 
L 218.031946 227.674915 
L 213.802745 229.291939 
L 209.636862 230.757952 
L 201.511708 233.268311 
L 193.680774 235.264696 
L 186.157336 236.799227 
L 178.947375 237.917708 
L 172.05212 238.660206 
L 165.469763 239.061738 
L 159.196615 239.152947 
L 153.227882 238.960719 
L 147.558191 238.508729 
L 142.181929 237.817917 
L 137.093474 236.906885 
L 132.287343 235.792245 
L 127.758283 234.488904 
L 123.501327 233.01031 
L 119.511821 231.368657 
L 115.785442 229.575063 
L 112.318194 227.63972 
L 109.106405 225.57202 
L 106.146714 223.380664 
L 103.43606 221.07376 
L 100.971662 218.658902 
L 98.751005 216.143243 
L 96.771822 213.533555 
L 95.032079 210.836289 
L 93.529955 208.057618 
L 92.26383 205.203483 
L 91.232267 202.279633 
L 90.433996 199.29166 
L 89.867905 196.24503 
L 89.533018 193.145113 
L 89.428489 189.99721 
L 89.553584 186.806582 
L 89.90767 183.578472 
L 90.490204 180.318126 
L 91.300717 177.030823 
L 92.338804 173.721889 
L 93.604111 170.396724 
L 95.096322 167.060826 
L 96.815144 163.719807 
L 98.760297 160.379423 
L 100.931494 157.045593 
L 103.328432 153.724428 
L 105.950769 150.422255 
L 108.798107 147.145647 
L 111.869976 143.901454 
L 115.165807 140.696835 
L 118.684906 137.539296 
L 122.426432 134.43673 
L 126.389354 131.397462 
L 130.572424 128.430297 
L 134.974124 125.544579 
L 139.59262 122.750253 
L 144.4257 120.057934 
L 149.4707 117.478994 
L 154.72442 115.025651 
L 160.183019 112.711075 
L 165.841891 110.549515 
L 171.695506 108.556441 
L 177.737228 106.748707 
L 183.959072 105.144745 
L 190.351419 103.764789 
L 196.902647 102.631134 
L 203.598665 101.768442 
L 210.422324 101.204088 
L 217.352663 100.968568 
L 224.363932 101.09595 
L 231.424332 101.624381 
L 234.960972 102.052155 
L 238.49438 102.596609 
L 242.018071 103.263892 
L 245.524781 104.060496 
L 249.006364 104.993266 
L 252.453677 106.0694 
L 255.856449 107.296443 
L 259.203137 108.682262 
L 262.480768 110.235004 
L 265.674768 111.963035 
L 268.768787 113.874839 
L 271.744517 115.978877 
L 274.581522 118.283388 
L 277.257097 120.796117 
L 279.746181 123.523961 
L 282.021353 126.472509 
L 284.052969 129.645461 
L 285.809489 133.04394 
L 287.258063 136.665683 
L 288.365441 140.504173 
L 289.099252 144.547768 
L 289.429654 148.778948 
L 289.331288 153.173838 
L 288.785381 157.702162 
L 287.781679 162.328016 
L 286.320221 167.011409 
L 284.433146 171.649517 
L 284.433146 171.649517 
" clip-path="url(#pd0f979c79f)" style="fill: none; stroke-dasharray: 5.55,2.4; stroke-dashoffset: 0; stroke: #ff6347; stroke-width: 1.5"/>
   </g>
   <g id="line2d_8">
    <path d="M 284.430591 171.655135 
L 282.871263 174.847717 
L 280.84652 178.456496 
L 278.577804 182.008131 
L 276.085754 185.482683 
L 273.39207 188.863483 
L 270.519382 192.13628 
L 267.102138 195.674541 
L 263.519347 199.048307 
L 259.801647 202.248324 
L 255.977646 205.268712 
L 251.635851 208.410519 
L 247.227232 211.32643 
L 242.7799 214.018841 
L 237.871945 216.727909 
L 232.973677 219.180504 
L 227.667595 221.575195 
L 222.423694 223.690458 
L 217.260958 225.54086 
L 211.776858 227.263498 
L 206.42022 228.710549 
L 201.202124 229.899384 
L 195.746953 230.909708 
L 190.469345 231.658769 
L 185.374365 232.164323 
L 180.121841 232.454349 
L 175.085116 232.502093 
L 170.26527 232.32443 
L 165.66244 231.936771 
L 161.276086 231.353209 
L 157.105196 230.586649 
L 152.892225 229.580606 
L 148.921002 228.39301 
L 145.189491 227.035973 
L 141.695591 225.52066 
L 138.436235 223.856872 
L 135.397147 222.046107 
L 132.591735 220.104722 
L 130.01805 218.041226 
L 127.674251 215.863629 
L 125.558602 213.579503 
L 123.669483 211.196045 
L 122.005386 208.720123 
L 120.564913 206.158328 
L 119.346771 203.517012 
L 118.349768 200.80233 
L 117.572802 198.020271 
L 117.014857 195.176693 
L 116.674993 192.27735 
L 116.558827 189.884496 
L 116.558827 189.884496 
" clip-path="url(#pd0f979c79f)" style="fill: none; stroke-dasharray: 5.55,2.4; stroke-dashoffset: 0; stroke: #ffa07a; stroke-width: 1.5"/>
   </g>
   <g id="line2d_9">
    <path d="M 116.558827 189.884496 
L 116.558465 189.864688 
L 116.558111 189.844835 
L 116.557767 189.824936 
L 116.557431 189.804992 
L 116.557105 189.785002 
L 116.556787 189.764967 
L 116.556479 189.744886 
L 116.556179 189.724759 
L 116.555888 189.704586 
L 116.555607 189.684367 
L 116.555334 189.664102 
L 116.55507 189.643791 
L 116.554816 189.623435 
L 116.554571 189.603031 
L 116.554334 189.582582 
L 116.554107 189.562087 
L 116.553889 189.541545 
L 116.553681 189.520956 
L 116.553481 189.500321 
L 116.553291 189.47964 
L 116.55311 189.458912 
L 116.552938 189.438137 
L 116.552775 189.417316 
L 116.552622 189.396447 
L 116.552478 189.375532 
L 116.552343 189.35457 
L 116.552218 189.333561 
L 116.552102 189.312504 
L 116.551996 189.291401 
L 116.551899 189.27025 
L 116.551811 189.249053 
L 116.551733 189.227807 
L 116.551665 189.206515 
L 116.551606 189.185175 
L 116.551556 189.163787 
L 116.551516 189.142352 
L 116.551485 189.120869 
L 116.551464 189.099338 
L 116.551453 189.07776 
L 116.551451 189.056133 
L 116.551459 189.034459 
L 116.551477 189.012737 
L 116.551504 188.990966 
L 116.551541 188.969148 
L 116.551588 188.947281 
L 116.551645 188.925366 
L 116.551711 188.903402 
L 116.551787 188.881391 
L 116.551873 188.85933 
L 116.551968 188.837221 
L 116.552074 188.815064 
L 116.552189 188.792858 
L 116.552314 188.770603 
L 116.55245 188.748299 
L 116.552595 188.725946 
L 116.55275 188.703544 
L 116.552915 188.681094 
L 116.55309 188.658594 
L 116.553275 188.636045 
L 116.55347 188.613446 
L 116.553675 188.590798 
L 116.55389 188.568101 
L 116.554115 188.545355 
L 116.55435 188.522559 
L 116.554596 188.499713 
L 116.554851 188.476817 
L 116.555117 188.453872 
L 116.555393 188.430877 
L 116.555679 188.407832 
L 116.555976 188.384737 
L 116.556283 188.361592 
L 116.556599 188.338397 
L 116.556927 188.315151 
L 116.557264 188.291856 
L 116.557612 188.26851 
L 116.55797 188.245113 
L 116.558339 188.221666 
L 116.558718 188.198169 
L 116.559108 188.17462 
L 116.559508 188.151021 
L 116.559918 188.127372 
L 116.560339 188.103671 
L 116.56077 188.079919 
" clip-path="url(#pd0f979c79f)" style="fill: none; stroke-dasharray: 9.6,2.4,1.5,2.4; stroke-dashoffset: 0; stroke: #0000ff; stroke-width: 1.5"/>
   </g>
   <g id="line2d_10">
    <path d="M 116.56085 188.075596 
L 116.734397 184.489464 
L 117.122868 180.862774 
L 117.769626 176.97245 
L 118.65566 173.051919 
L 119.778832 169.109244 
L 121.136717 165.152521 
L 122.7266 161.189878 
L 124.545466 157.229483 
L 126.717212 153.04769 
L 129.137622 148.887402 
L 131.801965 144.758458 
L 134.705092 140.670748 
L 137.841424 136.634209 
L 141.204939 132.658829 
L 144.789155 128.754636 
L 148.587123 124.9317 
L 152.819754 120.995695 
L 157.272898 117.173396 
L 161.936558 113.476738 
L 166.800075 109.917666 
L 171.852107 106.508121 
L 177.08061 103.260019 
L 182.472814 100.185237 
L 187.718553 97.443586 
L 193.062028 94.889315 
L 198.514432 92.519204 
L 204.062564 90.342876 
L 209.692579 88.369819 
L 215.389969 86.609351 
L 221.139556 85.070597 
L 226.925479 83.762448 
L 232.408416 82.746491 
L 237.894488 81.950929 
L 243.368617 81.382486 
L 248.815167 81.047565 
L 253.901639 80.951077 
L 258.935387 81.071499 
L 263.902032 81.41317 
L 268.786776 81.980029 
L 273.278328 82.719084 
L 277.671708 83.66161 
L 281.953803 84.809666 
L 286.111246 86.164847 
L 289.867067 87.617521 
L 293.491245 89.252027 
L 296.972446 91.068355 
L 300.299249 93.066008 
L 303.240146 95.082435 
L 306.02883 97.253055 
L 308.656141 99.576147 
L 311.112986 102.049506 
L 313.390387 104.67042 
L 315.479526 107.435633 
L 317.233423 110.112922 
L 317.913138 111.262983 
L 317.913138 111.262983 
" clip-path="url(#pd0f979c79f)" style="fill: none; stroke-dasharray: 5.55,2.4; stroke-dashoffset: 0; stroke: #bdb76b; stroke-width: 1.5"/>
   </g>
   <g id="line2d_11">
    <path d="M 317.913138 111.262983 
L 319.682432 114.57627 
L 321.57744 118.603544 
L 323.403694 123.004712 
L 324.863549 127.084275 
L 325.735923 130.129061 
L 326.044443 131.919153 
L 326.0516 132.280611 
L 326.0516 132.280611 
" clip-path="url(#pd0f979c79f)" style="fill: none; stroke-dasharray: 9.6,2.4,1.5,2.4; stroke-dashoffset: 0; stroke: #ff69b4; stroke-width: 1.5"/>
   </g>
   <g id="line2d_12">
    <path d="M 326.051478 132.28351 
L 325.892899 134.298093 
L 325.584246 136.386274 
L 325.122298 138.545944 
L 324.504169 140.77467 
L 323.727346 143.069683 
L 322.789728 145.427873 
L 321.689673 147.845783 
L 320.426029 150.319612 
L 318.998175 152.845218 
L 317.406054 155.418123 
L 315.650204 158.033523 
L 313.73178 160.686309 
L 309.415054 166.082172 
L 304.478144 171.559504 
L 298.953875 177.068837 
L 292.885314 182.558613 
L 286.324969 187.976509 
L 279.333556 193.270838 
L 271.978388 198.391938 
L 264.331503 203.293451 
L 256.467653 207.933423 
L 248.462291 212.275167 
L 240.389671 216.287844 
L 232.321173 219.946768 
L 224.3239 223.233452 
L 216.459612 226.135416 
L 208.783977 228.645816 
L 201.346141 230.762934 
L 194.188571 232.489586 
L 187.347126 233.832484 
L 180.851319 234.801596 
L 174.7247 235.409522 
L 168.985338 235.670917 
L 163.646347 235.601971 
L 158.716438 235.219946 
L 154.200469 234.542776 
L 150.099965 233.58874 
L 146.413619 232.376179 
L 143.13774 230.923276 
L 140.266672 229.247881 
L 137.793154 227.367378 
L 135.708645 225.298583 
L 134.003608 223.05768 
L 132.667746 220.660173 
L 131.69021 218.120863 
L 131.059779 215.45384 
L 130.764995 212.672486 
L 130.794293 209.789493 
L 131.136092 206.816885 
L 131.77888 203.76604 
L 132.711269 200.647732 
L 133.922051 197.472156 
L 135.400619 194.248182 
L 137.13549 190.986544 
L 139.116485 187.695161 
L 141.333359 184.382306 
L 143.776133 181.055871 
L 146.43509 177.723396 
L 149.300766 174.392112 
L 152.36394 171.068972 
L 157.30939 166.114158 
L 162.64952 161.214533 
L 168.355712 156.391105 
L 174.400038 151.664314 
L 180.755036 147.054266 
L 187.39346 142.580956 
L 194.288007 138.264488 
L 201.41101 134.125288 
L 208.734099 130.184316 
L 216.227831 126.463274 
L 223.861266 122.984807 
L 231.601515 119.772704 
L 239.413219 116.852084 
L 247.257983 114.249569 
L 252.485593 112.705174 
L 257.695785 111.323499 
L 262.874098 110.113711 
L 268.005011 109.08534 
L 273.071845 108.248273 
L 278.056648 107.612741 
L 282.940094 107.18929 
L 287.701378 106.98874 
L 292.318113 107.022126 
L 296.766248 107.300618 
L 301.019995 107.835404 
L 305.051784 108.637561 
L 308.832257 109.717869 
L 312.330299 111.086597 
L 315.51314 112.75324 
L 316.975708 113.700958 
L 318.346526 114.726201 
L 319.621126 115.82979 
L 320.794984 117.012428 
L 321.863535 118.274687 
L 322.822195 119.616991 
L 323.666376 121.039605 
L 324.391505 122.542613 
L 324.993054 124.125906 
L 325.466561 125.789161 
L 325.807661 127.531828 
L 326.012115 129.35311 
L 326.075845 131.251945 
L 325.994967 133.226996 
L 325.765833 135.276628 
L 325.385062 137.398902 
L 324.849588 139.591556 
L 324.156695 141.851998 
L 323.30406 144.177298 
L 322.289794 146.564183 
L 321.112483 149.009035 
L 319.771221 151.507889 
L 318.265649 154.056443 
L 316.59599 156.650063 
L 314.763069 159.2838 
L 310.61392 164.650343 
L 305.83769 170.110892 
L 300.464436 175.616732 
L 294.534584 181.116733 
L 288.098256 186.558638 
L 281.214148 191.890457 
L 273.948008 197.061862 
L 266.37082 202.025511 
L 258.556818 206.738195 
L 250.581462 211.161771 
L 242.519495 215.263816 
L 234.443202 219.01801 
L 226.420932 222.404242 
L 218.515937 225.408477 
L 210.785546 228.022432 
L 203.280649 230.243092 
L 196.045474 232.072139 
L 189.117603 233.515323 
L 182.52819 234.581812 
L 176.302311 235.283573 
L 170.459429 235.634772 
L 165.013913 235.651242 
L 159.97558 235.350003 
L 155.350251 234.748848 
L 151.140279 233.865993 
L 147.345058 232.719786 
L 143.961485 231.328472 
L 140.984382 229.710002 
L 138.40688 227.881894 
L 136.220745 225.861122 
L 134.416678 223.664042 
L 132.984561 221.30634 
L 131.913672 218.803003 
L 131.192873 216.168308 
L 130.810756 213.415824 
L 130.755774 210.558423 
L 131.016341 207.6083 
L 131.580921 204.577004 
L 132.438087 201.475462 
L 133.576581 198.314019 
L 134.985344 195.102474 
L 136.653554 191.850114 
L 138.570633 188.565757 
L 140.726268 185.257784 
L 143.11041 181.934185 
L 145.713273 178.602589 
L 148.525327 175.270305 
L 151.537288 171.944356 
L 156.410312 166.982065 
L 161.683135 162.071194 
L 167.326996 157.232872 
L 173.313862 152.487624 
L 179.616205 147.855598 
L 186.206762 143.356792 
L 193.05826 139.011275 
L 200.14312 134.839402 
L 207.433123 130.862023 
L 214.899041 127.100695 
L 222.510231 123.577882 
L 230.234182 120.317159 
L 238.036009 117.343398 
L 245.877894 114.682944 
L 253.718471 112.363772 
L 258.922475 111.02186 
L 264.091032 109.854054 
L 269.208358 108.86997 
L 274.257482 108.079576 
L 279.220139 107.49318 
L 284.076662 107.121399 
L 288.805879 106.975109 
L 288.805879 106.975109 
" clip-path="url(#pd0f979c79f)" style="fill: none; stroke-dasharray: 5.55,2.4; stroke-dashoffset: 0; stroke: #ffd700; stroke-width: 1.5"/>
   </g>
   <g id="Path3DCollection_1">
    <defs>
     <path id="m7c16b45f75" d="M 0 2.236068 
C 0.593012 2.236068 1.161816 2.000462 1.581139 1.581139 
C 2.000462 1.161816 2.236068 0.593012 2.236068 0 
C 2.236068 -0.593012 2.000462 -1.161816 1.581139 -1.581139 
C 1.161816 -2.000462 0.593012 -2.236068 0 -2.236068 
C -0.593012 -2.236068 -1.161816 -2.000462 -1.581139 -1.581139 
C -2.000462 -1.161816 -2.236068 -0.593012 -2.236068 0 
C -2.236068 0.593012 -2.000462 1.161816 -1.581139 1.581139 
C -1.161816 2.000462 -0.593012 2.236068 0 2.236068 
z
" style="stroke: #00ffff"/>
    </defs>
    <g clip-path="url(#pd0f979c79f)"/>
   </g>
   <g id="Path3DCollection_2">
    <defs>
     <path id="m8bb2a96c5a" d="M 0 2.236068 
C 0.593012 2.236068 1.161816 2.000462 1.581139 1.581139 
C 2.000462 1.161816 2.236068 0.593012 2.236068 0 
C 2.236068 -0.593012 2.000462 -1.161816 1.581139 -1.581139 
C 1.161816 -2.000462 0.593012 -2.236068 0 -2.236068 
C -0.593012 -2.236068 -1.161816 -2.000462 -1.581139 -1.581139 
C -2.000462 -1.161816 -2.236068 -0.593012 -2.236068 0 
C -2.236068 0.593012 -2.000462 1.161816 -1.581139 1.581139 
C -1.161816 2.000462 -0.593012 2.236068 0 2.236068 
z
" style="stroke: #ff00ff"/>
    </defs>
    <g clip-path="url(#pd0f979c79f)"/>
   </g>
   <g id="Path3DCollection_3">
    <defs>
     <path id="me43f6d9bbb" d="M 0 2.236068 
C 0.593012 2.236068 1.161816 2.000462 1.581139 1.581139 
C 2.000462 1.161816 2.236068 0.593012 2.236068 0 
C 2.236068 -0.593012 2.000462 -1.161816 1.581139 -1.581139 
C 1.161816 -2.000462 0.593012 -2.236068 0 -2.236068 
C -0.593012 -2.236068 -1.161816 -2.000462 -1.581139 -1.581139 
C -2.000462 -1.161816 -2.236068 -0.593012 -2.236068 0 
C -2.236068 0.593012 -2.000462 1.161816 -1.581139 1.581139 
C -1.161816 2.000462 -0.593012 2.236068 0 2.236068 
z
" style="stroke: #dc143c"/>
    </defs>
    <g clip-path="url(#pd0f979c79f)"/>
   </g>
   <g id="Path3DCollection_4">
    <defs>
     <path id="mbff8457620" d="M 0 2.236068 
C 0.593012 2.236068 1.161816 2.000462 1.581139 1.581139 
C 2.000462 1.161816 2.236068 0.593012 2.236068 0 
C 2.236068 -0.593012 2.000462 -1.161816 1.581139 -1.581139 
C 1.161816 -2.000462 0.593012 -2.236068 0 -2.236068 
C -0.593012 -2.236068 -1.161816 -2.000462 -1.581139 -1.581139 
C -2.000462 -1.161816 -2.236068 -0.593012 -2.236068 0 
C -2.236068 0.593012 -2.000462 1.161816 -1.581139 1.581139 
C -1.161816 2.000462 -0.593012 2.236068 0 2.236068 
z
" style="stroke: #f08080"/>
    </defs>
    <g clip-path="url(#pd0f979c79f)"/>
   </g>
   <g id="Path3DCollection_5">
    <defs>
     <path id="m2cb3538f7d" d="M 0 2.236068 
C 0.593012 2.236068 1.161816 2.000462 1.581139 1.581139 
C 2.000462 1.161816 2.236068 0.593012 2.236068 0 
C 2.236068 -0.593012 2.000462 -1.161816 1.581139 -1.581139 
C 1.161816 -2.000462 0.593012 -2.236068 0 -2.236068 
C -0.593012 -2.236068 -1.161816 -2.000462 -1.581139 -1.581139 
C -2.000462 -1.161816 -2.236068 -0.593012 -2.236068 0 
C -2.236068 0.593012 -2.000462 1.161816 -1.581139 1.581139 
C -1.161816 2.000462 -0.593012 2.236068 0 2.236068 
z
" style="stroke: #000000"/>
    </defs>
    <g clip-path="url(#pd0f979c79f)"/>
   </g>
   <g id="Path3DCollection_6">
    <defs>
     <path id="m574f4d407c" d="M 0 2.236068 
C 0.593012 2.236068 1.161816 2.000462 1.581139 1.581139 
C 2.000462 1.161816 2.236068 0.593012 2.236068 0 
C 2.236068 -0.593012 2.000462 -1.161816 1.581139 -1.581139 
C 1.161816 -2.000462 0.593012 -2.236068 0 -2.236068 
C -0.593012 -2.236068 -1.161816 -2.000462 -1.581139 -1.581139 
C -2.000462 -1.161816 -2.236068 -0.593012 -2.236068 0 
C -2.236068 0.593012 -2.000462 1.161816 -1.581139 1.581139 
C -1.161816 2.000462 -0.593012 2.236068 0 2.236068 
z
" style="stroke: #0000ff"/>
    </defs>
    <g clip-path="url(#pd0f979c79f)"/>
   </g>
   <g id="Path3DCollection_7">
    <defs>
     <path id="m893de7dad7" d="M 0 2.236068 
C 0.593012 2.236068 1.161816 2.000462 1.581139 1.581139 
C 2.000462 1.161816 2.236068 0.593012 2.236068 0 
C 2.236068 -0.593012 2.000462 -1.161816 1.581139 -1.581139 
C 1.161816 -2.000462 0.593012 -2.236068 0 -2.236068 
C -0.593012 -2.236068 -1.161816 -2.000462 -1.581139 -1.581139 
C -2.000462 -1.161816 -2.236068 -0.593012 -2.236068 0 
C -2.236068 0.593012 -2.000462 1.161816 -1.581139 1.581139 
C -1.161816 2.000462 -0.593012 2.236068 0 2.236068 
z
" style="stroke: #ff69b4"/>
    </defs>
    <g clip-path="url(#pd0f979c79f)"/>
   </g>
   <g id="Path3DCollection_8">
    <defs>
     <path id="m2e0c7a2cb0" d="M 0 2.236068 
C 0.593012 2.236068 1.161816 2.000462 1.581139 1.581139 
C 2.000462 1.161816 2.236068 0.593012 2.236068 0 
C 2.236068 -0.593012 2.000462 -1.161816 1.581139 -1.581139 
C 1.161816 -2.000462 0.593012 -2.236068 0 -2.236068 
C -0.593012 -2.236068 -1.161816 -2.000462 -1.581139 -1.581139 
C -2.000462 -1.161816 -2.236068 -0.593012 -2.236068 0 
C -2.236068 0.593012 -2.000462 1.161816 -1.581139 1.581139 
C -1.161816 2.000462 -0.593012 2.236068 0 2.236068 
z
" style="stroke: #1f77b4"/>
    </defs>
    <g clip-path="url(#pd0f979c79f)">
     <use xlink:href="#m2e0c7a2cb0" x="288.805879" y="106.975109" style="fill: #1f77b4; stroke: #1f77b4"/>
    </g>
   </g>
   <g id="Line3DCollection_1">
    <path d="M 298.185816 106.91497 
L 288.805879 106.975109 
" clip-path="url(#pd0f979c79f)" style="fill: none; stroke: #1f77b4; stroke-width: 1.5"/>
    <path d="M 298.185816 106.91497 
L 295.208717 105.954182 
" clip-path="url(#pd0f979c79f)" style="fill: none; stroke: #1f77b4; stroke-width: 1.5"/>
    <path d="M 298.185816 106.91497 
L 295.700277 107.910411 
" clip-path="url(#pd0f979c79f)" style="fill: none; stroke: #1f77b4; stroke-width: 1.5"/>
   </g>
   <g id="Path3DCollection_9">
    <g clip-path="url(#pd0f979c79f)">
     <use xlink:href="#m2cb3538f7d" x="284.430591" y="171.655135" style="stroke: #000000"/>
    </g>
   </g>
   <g id="Path3DCollection_10">
    <g clip-path="url(#pd0f979c79f)">
     <use xlink:href="#mbff8457620" x="284.433146" y="171.649517" style="fill: #f08080; stroke: #f08080"/>
    </g>
   </g>
   <g id="Path3DCollection_11">
    <g clip-path="url(#pd0f979c79f)">
     <use xlink:href="#m2cb3538f7d" x="284.433146" y="171.649517" style="stroke: #000000"/>
    </g>
   </g>
   <g id="Path3DCollection_12">
    <g clip-path="url(#pd0f979c79f)">
     <use xlink:href="#m8bb2a96c5a" x="365.638602" y="105.335122" style="fill: #ff00ff; stroke: #ff00ff"/>
    </g>
   </g>
   <g id="Path3DCollection_13">
    <g clip-path="url(#pd0f979c79f)">
     <use xlink:href="#m8bb2a96c5a" x="365.637424" y="105.31002" style="fill: #ff00ff; stroke: #ff00ff"/>
    </g>
   </g>
   <g id="Path3DCollection_14">
    <g clip-path="url(#pd0f979c79f)">
     <use xlink:href="#m8bb2a96c5a" x="365.637424" y="105.31002" style="fill: #ff00ff; stroke: #ff00ff"/>
    </g>
   </g>
   <g id="Line3DCollection_2">
    <path d="M 265.321466 155.698088 
L 239.756108 170.931892 
" clip-path="url(#pd0f979c79f)" style="fill: none; stroke: #ff0000; stroke-width: 0.5"/>
    <path d="M 265.321466 155.698088 
L 258.029944 157.351303 
" clip-path="url(#pd0f979c79f)" style="fill: none; stroke: #ff0000; stroke-width: 0.5"/>
    <path d="M 265.321466 155.698088 
L 257.990545 162.752245 
" clip-path="url(#pd0f979c79f)" style="fill: none; stroke: #ff0000; stroke-width: 0.5"/>
   </g>
   <g id="Line3DCollection_3">
    <path d="M 239.756108 205.532343 
L 239.756108 170.931892 
" clip-path="url(#pd0f979c79f)" style="fill: none; stroke: #0000ff; stroke-width: 0.5"/>
    <path d="M 239.756108 205.532343 
L 237.75112 196.835416 
" clip-path="url(#pd0f979c79f)" style="fill: none; stroke: #0000ff; stroke-width: 0.5"/>
    <path d="M 239.756108 205.532343 
L 241.755344 194.378504 
" clip-path="url(#pd0f979c79f)" style="fill: none; stroke: #0000ff; stroke-width: 0.5"/>
   </g>
   <g id="Path3DCollection_15">
    <g clip-path="url(#pd0f979c79f)">
     <use xlink:href="#m8bb2a96c5a" x="365.353059" y="101.069523" style="fill: #ff00ff; stroke: #ff00ff"/>
    </g>
   </g>
   <g id="Path3DCollection_16">
    <g clip-path="url(#pd0f979c79f)">
     <use xlink:href="#m893de7dad7" x="326.0516" y="132.280611" style="fill: #ff69b4; stroke: #ff69b4"/>
    </g>
   </g>
   <g id="Path3DCollection_17">
    <g clip-path="url(#pd0f979c79f)">
     <use xlink:href="#m893de7dad7" x="326.0516" y="132.280611" style="fill: #ff69b4; stroke: #ff69b4"/>
    </g>
   </g>
   <g id="Path3DCollection_18">
    <g clip-path="url(#pd0f979c79f)">
     <use xlink:href="#m893de7dad7" x="326.051478" y="132.28351" style="fill: #ff69b4; stroke: #ff69b4"/>
    </g>
   </g>
   <g id="Path3DCollection_19">
    <g clip-path="url(#pd0f979c79f)">
     <use xlink:href="#m893de7dad7" x="317.913138" y="111.262983" style="fill: #ff69b4; stroke: #ff69b4"/>
    </g>
   </g>
   <g id="Line3DCollection_4">
    <path d="M 271.287426 184.160851 
L 239.756108 170.931892 
" clip-path="url(#pd0f979c79f)" style="fill: none; stroke: #008000; stroke-width: 0.5"/>
    <path d="M 271.287426 184.160851 
L 262.072134 177.536434 
" clip-path="url(#pd0f979c79f)" style="fill: none; stroke: #008000; stroke-width: 0.5"/>
    <path d="M 271.287426 184.160851 
L 262.022834 183.025942 
" clip-path="url(#pd0f979c79f)" style="fill: none; stroke: #008000; stroke-width: 0.5"/>
   </g>
   <g id="Path3DCollection_20">
    <g clip-path="url(#pd0f979c79f)">
     <use xlink:href="#m574f4d407c" x="116.558827" y="189.884496" style="fill: #0000ff; stroke: #0000ff"/>
    </g>
   </g>
   <g id="Path3DCollection_21">
    <g clip-path="url(#pd0f979c79f)">
     <use xlink:href="#m574f4d407c" x="116.56077" y="188.079919" style="fill: #0000ff; stroke: #0000ff"/>
    </g>
   </g>
   <g id="Path3DCollection_22">
    <g clip-path="url(#pd0f979c79f)">
     <use xlink:href="#m574f4d407c" x="116.56077" y="188.079919" style="fill: #0000ff; stroke: #0000ff"/>
    </g>
   </g>
   <g id="Path3DCollection_23">
    <g clip-path="url(#pd0f979c79f)">
     <use xlink:href="#m574f4d407c" x="116.56085" y="188.075596" style="fill: #0000ff; stroke: #0000ff"/>
    </g>
   </g>
   <g id="Line3DCollection_5">
    <path d="M 239.756108 214.032813 
L 250.623586 204.683991 
L 260.101483 191.47601 
L 267.153217 175.917758 
L 271.00115 159.736415 
L 271.188441 144.734881 
L 267.630068 132.640354 
L 260.649379 124.934895 
L 250.986236 122.669935 
L 239.756108 126.286279 
" clip-path="url(#pd0f979c79f)" style="fill: none; stroke: #1a3380; stroke-opacity: 0.2; stroke-width: 0.5"/>
    <path d="M 239.756108 214.032813 
L 254.277038 206.890778 
L 267.00191 195.553352 
L 276.506369 181.316902 
L 281.706032 165.7801 
L 281.959356 150.703731 
L 277.150219 137.849514 
L 267.739244 128.795149 
L 254.762883 124.734132 
L 239.756108 126.286279 
" clip-path="url(#pd0f979c79f)" style="fill: none; stroke: #1a3380; stroke-opacity: 0.2; stroke-width: 0.5"/>
    <path d="M 239.756108 214.032813 
L 256.381108 209.605926 
L 271.035697 200.595002 
L 282.034263 188.017851 
L 288.070522 173.296285 
L 288.364954 158.127586 
L 282.780966 144.316301 
L 271.887321 133.569746 
L 256.939152 127.274325 
L 239.756108 126.286279 
" clip-path="url(#pd0f979c79f)" style="fill: none; stroke: #1a3380; stroke-opacity: 0.2; stroke-width: 0.5"/>
    <path d="M 239.756108 214.032813 
L 256.695118 212.541661 
L 271.721674 206.077584 
L 283.058495 195.336273 
L 289.302069 181.524474 
L 289.607007 166.255634 
L 283.830009 151.381047 
L 272.597674 138.763649 
L 257.265689 130.02149 
L 239.756108 126.286279 
" clip-path="url(#pd0f979c79f)" style="fill: none; stroke: #1a3380; stroke-opacity: 0.2; stroke-width: 0.5"/>
    <path d="M 239.756108 214.032813 
L 255.167381 215.380882 
L 268.922921 211.411162 
L 279.353672 202.487415 
L 285.117776 189.584234 
L 285.399653 174.218252 
L 280.065185 158.286394 
L 269.727283 143.818124 
L 255.688239 132.678934 
L 239.756108 126.286279 
" clip-path="url(#pd0f979c79f)" style="fill: none; stroke: #1a3380; stroke-opacity: 0.2; stroke-width: 0.5"/>
    <path d="M 239.756108 214.032813 
L 251.948216 217.811005 
L 262.887792 216.000835 
L 271.219531 208.666267 
L 275.837217 196.563857 
L 276.063279 181.114511 
L 271.78901 164.254527 
L 263.529172 148.168989 
L 252.361458 134.953934 
L 239.756108 126.286279 
" clip-path="url(#pd0f979c79f)" style="fill: none; stroke: #1a3380; stroke-opacity: 0.2; stroke-width: 0.5"/>
    <path d="M 239.756108 214.032813 
L 247.380209 219.559846 
L 254.24698 219.317941 
L 259.493341 213.14647 
L 262.407204 201.633814 
L 262.549967 186.124354 
L 259.852457 168.582903 
L 254.650338 151.314289 
L 247.639154 136.591406 
L 239.756108 126.286279 
" clip-path="url(#pd0f979c79f)" style="fill: none; stroke: #1a3380; stroke-opacity: 0.2; stroke-width: 0.5"/>
    <path d="M 239.756108 214.032813 
L 241.96389 220.42887 
L 243.956104 220.970683 
L 245.480593 215.383296 
L 246.328202 204.167963 
L 246.369746 188.628596 
L 245.585021 170.744229 
L 244.073238 152.881675 
L 242.038952 137.405171 
L 239.756108 126.286279 
" clip-path="url(#pd0f979c79f)" style="fill: none; stroke: #1a3380; stroke-opacity: 0.2; stroke-width: 0.5"/>
    <path d="M 239.756108 214.032813 
L 236.30122 220.318592 
L 233.18441 220.760788 
L 230.79983 215.099055 
L 229.474194 203.845833 
L 229.409222 188.310263 
L 230.636501 170.46957 
L 233.001176 152.682611 
L 236.183773 137.301902 
L 239.756108 126.286279 
" clip-path="url(#pd0f979c79f)" style="fill: none; stroke: #1a3380; stroke-opacity: 0.2; stroke-width: 0.5"/>
    <path d="M 239.756108 214.032813 
L 231.023919 219.241666 
L 223.164538 218.71355 
L 217.163252 212.329245 
L 213.83139 200.70844 
L 213.66817 185.209924 
L 216.752571 167.793312 
L 222.703033 150.741152 
L 230.727449 136.293471 
L 239.756108 126.286279 
" clip-path="url(#pd0f979c79f)" style="fill: none; stroke: #1a3380; stroke-opacity: 0.2; stroke-width: 0.5"/>
    <path d="M 239.756108 214.032813 
L 226.717213 217.321209 
L 215.030229 215.073944 
L 206.1371 207.41656 
L 201.211195 195.151013 
L 200.970097 179.718485 
L 205.529497 163.047315 
L 214.345392 147.290224 
L 226.275525 134.49537 
L 239.756108 126.286279 
" clip-path="url(#pd0f979c79f)" style="fill: none; stroke: #1a3380; stroke-opacity: 0.2; stroke-width: 0.5"/>
    <path d="M 239.756108 214.032813 
L 223.850717 214.774676 
L 209.67275 210.26979 
L 198.933352 200.954456 
L 193.003004 187.85486 
L 192.713076 172.509643 
L 198.201152 156.805951 
L 208.844229 142.736336 
L 223.313545 132.11149 
L 239.756108 126.286279 
" clip-path="url(#pd0f979c79f)" style="fill: none; stroke: #1a3380; stroke-opacity: 0.2; stroke-width: 0.5"/>
    <path d="M 239.756108 214.032813 
L 222.726396 211.886274 
L 207.640789 204.850791 
L 196.272714 193.695835 
L 190.016802 179.678344 
L 189.711351 164.431887 
L 195.499487 149.797283 
L 206.761967 137.601295 
L 222.153216 129.408147 
L 239.756108 126.286279 
" clip-path="url(#pd0f979c79f)" style="fill: none; stroke: #1a3380; stroke-opacity: 0.2; stroke-width: 0.5"/>
    <path d="M 239.756108 214.032813 
L 223.449666 208.972687 
L 209.095569 199.416685 
L 198.334627 186.449256 
L 192.433183 171.535334 
L 192.145407 156.388194 
L 197.604432 142.802358 
L 208.261974 132.453707 
L 222.902726 126.681842 
L 239.756108 126.286279 
" clip-path="url(#pd0f979c79f)" style="fill: none; stroke: #1a3380; stroke-opacity: 0.2; stroke-width: 0.5"/>
    <path d="M 239.756108 214.032813 
L 225.924991 206.347274 
L 213.818868 194.547466 
L 204.78524 179.983257 
L 199.846293 164.286225 
L 199.605727 149.228305 
L 204.173553 136.562688 
L 213.117795 127.842726 
L 225.462526 124.225713 
L 239.756108 126.286279 
" clip-path="url(#pd0f979c79f)" style="fill: none; stroke: #1a3380; stroke-opacity: 0.2; stroke-width: 0.5"/>
    <path d="M 239.756108 214.032813 
L 229.873408 204.287194 
L 221.261775 190.744799 
L 214.859028 174.951398 
L 211.366837 158.65585 
L 211.19689 143.667752 
L 214.426201 131.708122 
L 220.764166 124.242722 
L 229.543777 122.298814 
L 239.756108 126.286279 
" clip-path="url(#pd0f979c79f)" style="fill: none; stroke: #1a3380; stroke-opacity: 0.2; stroke-width: 0.5"/>
    <path d="M 239.756108 214.032813 
L 234.867122 203.006486 
L 230.61874 188.388718 
L 227.467167 171.841535 
L 225.750778 155.180844 
L 225.667296 140.236067 
L 227.254338 128.708342 
L 230.373589 122.012641 
L 234.704303 121.101056 
L 239.756108 126.286279 
" clip-path="url(#pd0f979c79f)" style="fill: none; stroke: #1a3380; stroke-opacity: 0.2; stroke-width: 0.5"/>
    <path d="M 239.756108 214.032813 
L 240.375716 202.636693 
L 240.913706 187.709552 
L 241.312544 170.946191 
L 241.529664 154.181046 
L 241.540222 139.248765 
L 241.33947 127.844762 
L 240.944739 121.369859 
L 240.396342 120.755237 
L 239.756108 126.286279 
" clip-path="url(#pd0f979c79f)" style="fill: none; stroke: #1a3380; stroke-opacity: 0.2; stroke-width: 0.5"/>
    <path d="M 239.756108 214.032813 
L 245.819139 203.215583 
L 251.090118 188.772972 
L 255.001718 172.348317 
L 257.132543 155.746881 
L 257.236191 140.795036 
L 255.265917 129.197158 
L 251.394345 122.376323 
L 246.021108 121.296602 
L 239.756108 126.286279 
" clip-path="url(#pd0f979c79f)" style="fill: none; stroke: #1a3380; stroke-opacity: 0.2; stroke-width: 0.5"/>
    <path d="M 239.756108 214.032813 
L 250.623586 204.683991 
L 260.101483 191.47601 
L 267.153217 175.917758 
L 271.00115 159.736415 
L 271.188441 144.734881 
L 267.630068 132.640354 
L 260.649379 124.934895 
L 250.986236 122.669935 
L 239.756108 126.286279 
" clip-path="url(#pd0f979c79f)" style="fill: none; stroke: #1a3380; stroke-opacity: 0.2; stroke-width: 0.5"/>
    <path d="M 239.756108 214.032813 
L 239.756108 214.032813 
L 239.756108 214.032813 
L 239.756108 214.032813 
L 239.756108 214.032813 
L 239.756108 214.032813 
L 239.756108 214.032813 
L 239.756108 214.032813 
L 239.756108 214.032813 
L 239.756108 214.032813 
L 239.756108 214.032813 
L 239.756108 214.032813 
L 239.756108 214.032813 
L 239.756108 214.032813 
L 239.756108 214.032813 
L 239.756108 214.032813 
L 239.756108 214.032813 
L 239.756108 214.032813 
L 239.756108 214.032813 
L 239.756108 214.032813 
" clip-path="url(#pd0f979c79f)" style="fill: none; stroke: #1a3380; stroke-opacity: 0.2; stroke-width: 0.5"/>
    <path d="M 250.623586 204.683991 
L 254.277038 206.890778 
L 256.381108 209.605926 
L 256.695118 212.541661 
L 255.167381 215.380882 
L 251.948216 217.811005 
L 247.380209 219.559846 
L 241.96389 220.42887 
L 236.30122 220.318592 
L 231.023919 219.241666 
L 226.717213 217.321209 
L 223.850717 214.774676 
L 222.726396 211.886274 
L 223.449666 208.972687 
L 225.924991 206.347274 
L 229.873408 204.287194 
L 234.867122 203.006486 
L 240.375716 202.636693 
L 245.819139 203.215583 
L 250.623586 204.683991 
" clip-path="url(#pd0f979c79f)" style="fill: none; stroke: #1a3380; stroke-opacity: 0.2; stroke-width: 0.5"/>
    <path d="M 260.101483 191.47601 
L 267.00191 195.553352 
L 271.035697 200.595002 
L 271.721674 206.077584 
L 268.922921 211.411162 
L 262.887792 216.000835 
L 254.24698 219.317941 
L 243.956104 220.970683 
L 233.18441 220.760788 
L 223.164538 218.71355 
L 215.030229 215.073944 
L 209.67275 210.26979 
L 207.640789 204.850791 
L 209.095569 199.416685 
L 213.818868 194.547466 
L 221.261775 190.744799 
L 230.61874 188.388718 
L 240.913706 187.709552 
L 251.090118 188.772972 
L 260.101483 191.47601 
" clip-path="url(#pd0f979c79f)" style="fill: none; stroke: #1a3380; stroke-opacity: 0.2; stroke-width: 0.5"/>
    <path d="M 267.153217 175.917758 
L 276.506369 181.316902 
L 282.034263 188.017851 
L 283.058495 195.336273 
L 279.353672 202.487415 
L 271.219531 208.666267 
L 259.493341 213.14647 
L 245.480593 215.383296 
L 230.79983 215.099055 
L 217.163252 212.329245 
L 206.1371 207.41656 
L 198.933352 200.954456 
L 196.272714 193.695835 
L 198.334627 186.449256 
L 204.78524 179.983257 
L 214.859028 174.951398 
L 227.467167 171.841535 
L 241.312544 170.946191 
L 255.001718 172.348317 
L 267.153217 175.917758 
" clip-path="url(#pd0f979c79f)" style="fill: none; stroke: #1a3380; stroke-opacity: 0.2; stroke-width: 0.5"/>
    <path d="M 271.00115 159.736415 
L 281.706032 165.7801 
L 288.070522 173.296285 
L 289.302069 181.524474 
L 285.117776 189.584234 
L 275.837217 196.563857 
L 262.407204 201.633814 
L 246.328202 204.167963 
L 229.474194 203.845833 
L 213.83139 200.70844 
L 201.211195 195.151013 
L 193.003004 187.85486 
L 190.016802 179.678344 
L 192.433183 171.535334 
L 199.846293 164.286225 
L 211.366837 158.65585 
L 225.750778 155.180844 
L 241.529664 154.181046 
L 257.132543 155.746881 
L 271.00115 159.736415 
" clip-path="url(#pd0f979c79f)" style="fill: none; stroke: #1a3380; stroke-opacity: 0.2; stroke-width: 0.5"/>
    <path d="M 271.188441 144.734881 
L 281.959356 150.703731 
L 288.364954 158.127586 
L 289.607007 166.255634 
L 285.399653 174.218252 
L 276.063279 181.114511 
L 262.549967 186.124354 
L 246.369746 188.628596 
L 229.409222 188.310263 
L 213.66817 185.209924 
L 200.970097 179.718485 
L 192.713076 172.509643 
L 189.711351 164.431887 
L 192.145407 156.388194 
L 199.605727 149.228305 
L 211.19689 143.667752 
L 225.667296 140.236067 
L 241.540222 139.248765 
L 257.236191 140.795036 
L 271.188441 144.734881 
" clip-path="url(#pd0f979c79f)" style="fill: none; stroke: #1a3380; stroke-opacity: 0.2; stroke-width: 0.5"/>
    <path d="M 267.630068 132.640354 
L 277.150219 137.849514 
L 282.780966 144.316301 
L 283.830009 151.381047 
L 280.065185 158.286394 
L 271.78901 164.254527 
L 259.852457 168.582903 
L 245.585021 170.744229 
L 230.636501 170.46957 
L 216.752571 167.793312 
L 205.529497 163.047315 
L 198.201152 156.805951 
L 195.499487 149.797283 
L 197.604432 142.802358 
L 204.173553 136.562688 
L 214.426201 131.708122 
L 227.254338 128.708342 
L 241.33947 127.844762 
L 255.265917 129.197158 
L 267.630068 132.640354 
" clip-path="url(#pd0f979c79f)" style="fill: none; stroke: #1a3380; stroke-opacity: 0.2; stroke-width: 0.5"/>
    <path d="M 260.649379 124.934895 
L 267.739244 128.795149 
L 271.887321 133.569746 
L 272.597674 138.763649 
L 269.727283 143.818124 
L 263.529172 148.168989 
L 254.650338 151.314289 
L 244.073238 152.881675 
L 233.001176 152.682611 
L 222.703033 150.741152 
L 214.345392 147.290224 
L 208.844229 142.736336 
L 206.761967 137.601295 
L 208.261974 132.453707 
L 213.117795 127.842726 
L 220.764166 124.242722 
L 230.373589 122.012641 
L 240.944739 121.369859 
L 251.394345 122.376323 
L 260.649379 124.934895 
" clip-path="url(#pd0f979c79f)" style="fill: none; stroke: #1a3380; stroke-opacity: 0.2; stroke-width: 0.5"/>
    <path d="M 250.986236 122.669935 
L 254.762883 124.734132 
L 256.939152 127.274325 
L 257.265689 130.02149 
L 255.688239 132.678934 
L 252.361458 134.953934 
L 247.639154 136.591406 
L 242.038952 137.405171 
L 236.183773 137.301902 
L 230.727449 136.293471 
L 226.275525 134.49537 
L 223.313545 132.11149 
L 222.153216 129.408147 
L 222.902726 126.681842 
L 225.462526 124.225713 
L 229.543777 122.298814 
L 234.704303 121.101056 
L 240.396342 120.755237 
L 246.021108 121.296602 
L 250.986236 122.669935 
" clip-path="url(#pd0f979c79f)" style="fill: none; stroke: #1a3380; stroke-opacity: 0.2; stroke-width: 0.5"/>
    <path d="M 239.756108 126.286279 
L 239.756108 126.286279 
L 239.756108 126.286279 
L 239.756108 126.286279 
L 239.756108 126.286279 
L 239.756108 126.286279 
L 239.756108 126.286279 
L 239.756108 126.286279 
L 239.756108 126.286279 
L 239.756108 126.286279 
L 239.756108 126.286279 
L 239.756108 126.286279 
L 239.756108 126.286279 
L 239.756108 126.286279 
L 239.756108 126.286279 
L 239.756108 126.286279 
L 239.756108 126.286279 
L 239.756108 126.286279 
L 239.756108 126.286279 
L 239.756108 126.286279 
" clip-path="url(#pd0f979c79f)" style="fill: none; stroke: #1a3380; stroke-opacity: 0.2; stroke-width: 0.5"/>
   </g>
   <g id="Path3DCollection_24">
    <g clip-path="url(#pd0f979c79f)">
     <use xlink:href="#me43f6d9bbb" x="23.055591" y="200.257241" style="fill: #dc143c; stroke: #dc143c"/>
    </g>
   </g>
   <g id="Path3DCollection_25">
    <g clip-path="url(#pd0f979c79f)">
     <use xlink:href="#me43f6d9bbb" x="22.774713" y="198.446333" style="fill: #dc143c; stroke: #dc143c"/>
    </g>
   </g>
   <g id="Path3DCollection_26">
    <g clip-path="url(#pd0f979c79f)">
     <use xlink:href="#me43f6d9bbb" x="22.774713" y="198.446333" style="fill: #dc143c; stroke: #dc143c"/>
    </g>
   </g>
   <g id="Path3DCollection_27">
    <g clip-path="url(#pd0f979c79f)">
     <use xlink:href="#me43f6d9bbb" x="22.774397" y="198.444061" style="fill: #dc143c; stroke: #dc143c"/>
    </g>
   </g>
   <g id="Path3DCollection_28">
    <g clip-path="url(#pd0f979c79f)">
     <use xlink:href="#m7c16b45f75" x="331.452041" y="21.766187" style="fill: #00ffff; stroke: #00ffff"/>
    </g>
   </g>
   <g id="Path3DCollection_29">
    <g clip-path="url(#pd0f979c79f)">
     <use xlink:href="#m7c16b45f75" x="329.744704" y="19.723505" style="fill: #00ffff; stroke: #00ffff"/>
    </g>
   </g>
   <g id="Path3DCollection_30">
    <g clip-path="url(#pd0f979c79f)">
     <use xlink:href="#m7c16b45f75" x="329.744704" y="19.723505" style="fill: #00ffff; stroke: #00ffff"/>
    </g>
   </g>
   <g id="Path3DCollection_31">
    <g clip-path="url(#pd0f979c79f)"/>
   </g>
   <g id="Path3DCollection_32">
    <defs>
     <path id="mf4aeed5e87" d="M 0 2.236068 
C 0.593012 2.236068 1.161816 2.000462 1.581139 1.581139 
C 2.000462 1.161816 2.236068 0.593012 2.236068 0 
C 2.236068 -0.593012 2.000462 -1.161816 1.581139 -1.581139 
C 1.161816 -2.000462 0.593012 -2.236068 0 -2.236068 
C -0.593012 -2.236068 -1.161816 -2.000462 -1.581139 -1.581139 
C -2.000462 -1.161816 -2.236068 -0.593012 -2.236068 0 
C -2.236068 0.593012 -2.000462 1.161816 -1.581139 1.581139 
C -1.161816 2.000462 -0.593012 2.236068 0 2.236068 
z
" style="stroke: #008000"/>
    </defs>
    <g clip-path="url(#pd0f979c79f)"/>
   </g>
  </g>
 </g>
 <defs>
  <clipPath id="pd0f979c79f">
   <rect x="103.104" y="41.472" width="266.112" height="266.112"/>
  </clipPath>
 </defs>
</svg>
