<?xml version="1.0" encoding="utf-8" standalone="no"?>
<!DOCTYPE svg PUBLIC "-//W3C//DTD SVG 1.1//EN"
  "http://www.w3.org/Graphics/SVG/1.1/DTD/svg11.dtd">
<svg xmlns:xlink="http://www.w3.org/1999/xlink" width="460.8pt" height="345.6pt" viewBox="0 0 460.8 345.6" xmlns="http://www.w3.org/2000/svg" version="1.1">
 <metadata>
  <rdf:RDF xmlns:dc="http://purl.org/dc/elements/1.1/" xmlns:cc="http://creativecommons.org/ns#" xmlns:rdf="http://www.w3.org/1999/02/22-rdf-syntax-ns#">
   <cc:Work>
    <dc:type rdf:resource="http://purl.org/dc/dcmitype/StillImage"/>
    <dc:date>2023-12-10T17:49:44.439135</dc:date>
    <dc:format>image/svg+xml</dc:format>
    <dc:creator>
     <cc:Agent>
      <dc:title>Matplotlib v3.8.0, https://matplotlib.org/</dc:title>
     </cc:Agent>
    </dc:creator>
   </cc:Work>
  </rdf:RDF>
 </metadata>
 <defs>
  <style type="text/css">*{stroke-linejoin: round; stroke-linecap: butt}</style>
 </defs>
 <g id="figure_1">
  <g id="patch_1">
   <path d="M 0 345.6 
L 460.8 345.6 
L 460.8 0 
L 0 0 
z
" style="fill: #ffffff"/>
  </g>
  <g id="axes_1">
   <g id="patch_2">
    <path d="M 57.6 307.584 
L 414.72 307.584 
L 414.72 41.472 
L 57.6 41.472 
z
" style="fill: #ffffff"/>
   </g>
   <g id="patch_3">
    <path d="M 57.6 307.584 
L 57.6 41.472 
" style="fill: none; stroke: #000000; stroke-width: 0.8; stroke-linejoin: miter; stroke-linecap: square"/>
   </g>
   <g id="patch_4">
    <path d="M 414.72 307.584 
L 414.72 41.472 
" style="fill: none; stroke: #000000; stroke-width: 0.8; stroke-linejoin: miter; stroke-linecap: square"/>
   </g>
   <g id="patch_5">
    <path d="M 57.6 307.584 
L 414.72 307.584 
" style="fill: none; stroke: #000000; stroke-width: 0.8; stroke-linejoin: miter; stroke-linecap: square"/>
   </g>
   <g id="patch_6">
    <path d="M 57.6 41.472 
L 414.72 41.472 
" style="fill: none; stroke: #000000; stroke-width: 0.8; stroke-linejoin: miter; stroke-linecap: square"/>
   </g>
   <g id="text_1">
    <!-- Trajectory Plot -->
    <g transform="translate(193.322812 35.472) scale(0.12 -0.12)">
     <defs>
      <path id="DejaVuSans-54" d="M -19 4666 
L 3928 4666 
L 3928 4134 
L 2272 4134 
L 2272 0 
L 1638 0 
L 1638 4134 
L -19 4134 
L -19 4666 
z
" transform="scale(0.015625)"/>
      <path id="DejaVuSans-72" d="M 2631 2963 
Q 2534 3019 2420 3045 
Q 2306 3072 2169 3072 
Q 1681 3072 1420 2755 
Q 1159 2438 1159 1844 
L 1159 0 
L 581 0 
L 581 3500 
L 1159 3500 
L 1159 2956 
Q 1341 3275 1631 3429 
Q 1922 3584 2338 3584 
Q 2397 3584 2469 3576 
Q 2541 3569 2628 3553 
L 2631 2963 
z
" transform="scale(0.015625)"/>
      <path id="DejaVuSans-61" d="M 2194 1759 
Q 1497 1759 1228 1600 
Q 959 1441 959 1056 
Q 959 750 1161 570 
Q 1363 391 1709 391 
Q 2188 391 2477 730 
Q 2766 1069 2766 1631 
L 2766 1759 
L 2194 1759 
z
M 3341 1997 
L 3341 0 
L 2766 0 
L 2766 531 
Q 2569 213 2275 61 
Q 1981 -91 1556 -91 
Q 1019 -91 701 211 
Q 384 513 384 1019 
Q 384 1609 779 1909 
Q 1175 2209 1959 2209 
L 2766 2209 
L 2766 2266 
Q 2766 2663 2505 2880 
Q 2244 3097 1772 3097 
Q 1472 3097 1187 3025 
Q 903 2953 641 2809 
L 641 3341 
Q 956 3463 1253 3523 
Q 1550 3584 1831 3584 
Q 2591 3584 2966 3190 
Q 3341 2797 3341 1997 
z
" transform="scale(0.015625)"/>
      <path id="DejaVuSans-6a" d="M 603 3500 
L 1178 3500 
L 1178 -63 
Q 1178 -731 923 -1031 
Q 669 -1331 103 -1331 
L -116 -1331 
L -116 -844 
L 38 -844 
Q 366 -844 484 -692 
Q 603 -541 603 -63 
L 603 3500 
z
M 603 4863 
L 1178 4863 
L 1178 4134 
L 603 4134 
L 603 4863 
z
" transform="scale(0.015625)"/>
      <path id="DejaVuSans-65" d="M 3597 1894 
L 3597 1613 
L 953 1613 
Q 991 1019 1311 708 
Q 1631 397 2203 397 
Q 2534 397 2845 478 
Q 3156 559 3463 722 
L 3463 178 
Q 3153 47 2828 -22 
Q 2503 -91 2169 -91 
Q 1331 -91 842 396 
Q 353 884 353 1716 
Q 353 2575 817 3079 
Q 1281 3584 2069 3584 
Q 2775 3584 3186 3129 
Q 3597 2675 3597 1894 
z
M 3022 2063 
Q 3016 2534 2758 2815 
Q 2500 3097 2075 3097 
Q 1594 3097 1305 2825 
Q 1016 2553 972 2059 
L 3022 2063 
z
" transform="scale(0.015625)"/>
      <path id="DejaVuSans-63" d="M 3122 3366 
L 3122 2828 
Q 2878 2963 2633 3030 
Q 2388 3097 2138 3097 
Q 1578 3097 1268 2742 
Q 959 2388 959 1747 
Q 959 1106 1268 751 
Q 1578 397 2138 397 
Q 2388 397 2633 464 
Q 2878 531 3122 666 
L 3122 134 
Q 2881 22 2623 -34 
Q 2366 -91 2075 -91 
Q 1284 -91 818 406 
Q 353 903 353 1747 
Q 353 2603 823 3093 
Q 1294 3584 2113 3584 
Q 2378 3584 2631 3529 
Q 2884 3475 3122 3366 
z
" transform="scale(0.015625)"/>
      <path id="DejaVuSans-74" d="M 1172 4494 
L 1172 3500 
L 2356 3500 
L 2356 3053 
L 1172 3053 
L 1172 1153 
Q 1172 725 1289 603 
Q 1406 481 1766 481 
L 2356 481 
L 2356 0 
L 1766 0 
Q 1100 0 847 248 
Q 594 497 594 1153 
L 594 3053 
L 172 3053 
L 172 3500 
L 594 3500 
L 594 4494 
L 1172 4494 
z
" transform="scale(0.015625)"/>
      <path id="DejaVuSans-6f" d="M 1959 3097 
Q 1497 3097 1228 2736 
Q 959 2375 959 1747 
Q 959 1119 1226 758 
Q 1494 397 1959 397 
Q 2419 397 2687 759 
Q 2956 1122 2956 1747 
Q 2956 2369 2687 2733 
Q 2419 3097 1959 3097 
z
M 1959 3584 
Q 2709 3584 3137 3096 
Q 3566 2609 3566 1747 
Q 3566 888 3137 398 
Q 2709 -91 1959 -91 
Q 1206 -91 779 398 
Q 353 888 353 1747 
Q 353 2609 779 3096 
Q 1206 3584 1959 3584 
z
" transform="scale(0.015625)"/>
      <path id="DejaVuSans-79" d="M 2059 -325 
Q 1816 -950 1584 -1140 
Q 1353 -1331 966 -1331 
L 506 -1331 
L 506 -850 
L 844 -850 
Q 1081 -850 1212 -737 
Q 1344 -625 1503 -206 
L 1606 56 
L 191 3500 
L 800 3500 
L 1894 763 
L 2988 3500 
L 3597 3500 
L 2059 -325 
z
" transform="scale(0.015625)"/>
      <path id="DejaVuSans-20" transform="scale(0.015625)"/>
      <path id="DejaVuSans-50" d="M 1259 4147 
L 1259 2394 
L 2053 2394 
Q 2494 2394 2734 2622 
Q 2975 2850 2975 3272 
Q 2975 3691 2734 3919 
Q 2494 4147 2053 4147 
L 1259 4147 
z
M 628 4666 
L 2053 4666 
Q 2838 4666 3239 4311 
Q 3641 3956 3641 3272 
Q 3641 2581 3239 2228 
Q 2838 1875 2053 1875 
L 1259 1875 
L 1259 0 
L 628 0 
L 628 4666 
z
" transform="scale(0.015625)"/>
      <path id="DejaVuSans-6c" d="M 603 4863 
L 1178 4863 
L 1178 0 
L 603 0 
L 603 4863 
z
" transform="scale(0.015625)"/>
     </defs>
     <use xlink:href="#DejaVuSans-54"/>
     <use xlink:href="#DejaVuSans-72" x="46.333984"/>
     <use xlink:href="#DejaVuSans-61" x="87.447266"/>
     <use xlink:href="#DejaVuSans-6a" x="148.726562"/>
     <use xlink:href="#DejaVuSans-65" x="176.509766"/>
     <use xlink:href="#DejaVuSans-63" x="238.033203"/>
     <use xlink:href="#DejaVuSans-74" x="293.013672"/>
     <use xlink:href="#DejaVuSans-6f" x="332.222656"/>
     <use xlink:href="#DejaVuSans-72" x="393.404297"/>
     <use xlink:href="#DejaVuSans-79" x="434.517578"/>
     <use xlink:href="#DejaVuSans-20" x="493.697266"/>
     <use xlink:href="#DejaVuSans-50" x="525.484375"/>
     <use xlink:href="#DejaVuSans-6c" x="585.787109"/>
     <use xlink:href="#DejaVuSans-6f" x="613.570312"/>
     <use xlink:href="#DejaVuSans-74" x="674.751953"/>
    </g>
   </g>
  </g>
  <g id="patch_7">
   <path d="M 103.104 307.584 
L 369.216 307.584 
L 369.216 41.472 
L 103.104 41.472 
z
" style="fill: #ffffff"/>
  </g>
  <g id="axes_2">
   <g id="line2d_1">
    <path d="M 163.760327 329.108951 
L 165.86005 327.647029 
L 167.968017 326.178587 
L 170.084287 324.703543 
L 172.208919 323.221813 
L 174.341974 321.73331 
L 176.483511 320.237942 
L 178.633591 318.735617 
L 180.792276 317.226235 
L 182.959627 315.709695 
L 185.135707 314.185891 
L 187.320577 312.654713 
L 189.514301 311.116045 
L 191.716939 309.569767 
L 193.928556 308.015753 
L 196.149213 306.453872 
L 198.378972 304.883986 
L 200.617895 303.305951 
L 202.866043 301.719614 
L 205.123474 300.124818 
L 207.390249 298.521393 
L 209.666424 296.909166 
L 211.952055 295.287949 
L 214.247193 293.657547 
L 216.551889 292.017754 
L 218.866191 290.368351 
L 221.190139 288.709107 
" clip-path="url(#p4e08f2c6f0)" style="fill: none; stroke-dasharray: 5.55,2.4; stroke-dashoffset: 0; stroke: #ff8c00; stroke-width: 1.5"/>
   </g>
   <g id="line2d_2">
    <path d="M 221.190139 288.709107 
L 240.334751 274.890732 
L 253.800668 264.913098 
L 263.890783 257.173725 
L 271.581667 251.00557 
L 277.325413 246.13045 
L 280.50046 243.260176 
L 280.50046 243.260176 
" clip-path="url(#p4e08f2c6f0)" style="fill: none; stroke-dasharray: 9.6,2.4,1.5,2.4; stroke-dashoffset: 0; stroke: #00ffff; stroke-width: 1.5"/>
   </g>
   <g id="line2d_3">
    <path d="M 281.389686 242.419213 
L 284.467689 239.316892 
L 287.271061 236.184531 
L 289.876256 232.945933 
L 292.273762 229.609943 
L 294.455295 226.187232 
L 296.414176 222.690315 
L 298.145712 219.133503 
L 299.64755 215.53277 
L 300.919968 211.905527 
L 301.966089 208.270302 
L 302.547711 205.819474 
L 302.547711 205.819474 
" clip-path="url(#p4e08f2c6f0)" style="fill: none; stroke-dasharray: 5.55,2.4; stroke-dashoffset: 0; stroke: #f08080; stroke-width: 1.5"/>
   </g>
   <g id="line2d_4">
    <path d="M 302.547711 205.819474 
L 302.976373 203.660849 
L 302.976373 203.660849 
" clip-path="url(#p4e08f2c6f0)" style="fill: none; stroke-dasharray: 9.6,2.4,1.5,2.4; stroke-dashoffset: 0; stroke: #ff00ff; stroke-width: 1.5"/>
   </g>
   <g id="line2d_5">
    <path d="M 302.976373 203.660849 
L 303.434016 200.470507 
L 303.687204 197.171458 
L 303.726021 193.770661 
L 303.541216 190.276374 
L 303.12442 186.698197 
L 302.468373 183.047092 
L 301.567158 179.335372 
L 300.416437 175.576646 
L 299.013664 171.785726 
L 297.358281 167.978488 
L 295.451871 164.17169 
L 293.298272 160.382744 
L 290.903622 156.629463 
L 288.276352 152.929766 
L 285.427105 149.301383 
L 282.368589 145.761548 
L 279.115373 142.326705 
L 275.542886 138.882372 
L 271.796985 135.584053 
L 267.898474 132.445831 
L 263.868878 129.479881 
L 259.568968 126.593075 
L 255.175638 123.912058 
L 250.712794 121.443541 
L 246.035897 119.112796 
L 241.333501 117.017946 
L 236.628498 115.159351 
L 231.775252 113.481701 
L 226.963277 112.052017 
L 222.049226 110.828231 
L 217.218696 109.85656 
L 212.488085 109.128309 
L 207.719716 108.621293 
L 203.086238 108.352596 
L 198.598568 108.310416 
L 194.128476 108.491697 
L 189.83031 108.888266 
L 185.691659 109.490184 
L 181.617087 110.310625 
L 177.742113 111.319957 
L 174.068634 112.504628 
L 170.597397 113.85163 
L 167.232256 115.396112 
L 164.080422 117.086808 
L 161.140015 118.911485 
L 158.331345 120.9176 
L 155.740839 123.041588 
L 153.364826 125.272305 
L 151.14049 127.667093 
L 149.134236 130.153078 
L 147.294453 132.792673 
L 145.674613 135.50797 
L 144.26929 138.289534 
L 143.043553 141.206003 
L 142.00869 144.252899 
L 141.193606 147.345267 
L 140.579423 150.555382 
L 140.183335 153.79607 
L 139.996969 157.141248 
L 140.029618 160.584414 
L 140.033096 160.66653 
L 140.033096 160.66653 
" clip-path="url(#p4e08f2c6f0)" style="fill: none; stroke-dasharray: 5.55,2.4; stroke-dashoffset: 0; stroke: #800000; stroke-width: 1.5"/>
   </g>
   <g id="line2d_6">
    <path d="M 140.033096 160.66653 
L 140.033474 160.67529 
L 140.033853 160.684032 
L 140.034232 160.692754 
L 140.034612 160.701457 
L 140.034993 160.710141 
L 140.035374 160.718806 
L 140.035756 160.727452 
L 140.036138 160.736078 
L 140.036521 160.744686 
L 140.036905 160.753274 
L 140.037289 160.761843 
L 140.037673 160.770392 
L 140.038058 160.778923 
L 140.038444 160.787434 
L 140.03883 160.795925 
L 140.039217 160.804398 
L 140.039604 160.81285 
L 140.039992 160.821284 
L 140.04038 160.829698 
L 140.040769 160.838092 
L 140.041158 160.846468 
L 140.041548 160.854823 
L 140.041938 160.863159 
L 140.042329 160.871476 
L 140.042721 160.879773 
L 140.043112 160.88805 
L 140.043505 160.896308 
L 140.043897 160.904546 
L 140.044291 160.912765 
L 140.044684 160.920963 
L 140.045078 160.929143 
L 140.045473 160.937302 
L 140.045868 160.945442 
L 140.046263 160.953562 
L 140.046659 160.961662 
L 140.047056 160.969742 
L 140.047453 160.977802 
L 140.04785 160.985843 
L 140.048248 160.993864 
L 140.048646 161.001864 
L 140.049044 161.009845 
L 140.049443 161.017806 
L 140.049842 161.025747 
L 140.050242 161.033668 
L 140.050642 161.041569 
L 140.051043 161.04945 
L 140.051444 161.057311 
L 140.051845 161.065151 
L 140.052247 161.072972 
L 140.052649 161.080772 
L 140.053051 161.088552 
L 140.053454 161.096313 
L 140.053857 161.104052 
L 140.054261 161.111772 
L 140.054664 161.119471 
L 140.055069 161.12715 
L 140.055473 161.134809 
L 140.055878 161.142448 
L 140.056283 161.150066 
L 140.056689 161.157663 
L 140.057094 161.165241 
L 140.0575 161.172797 
L 140.057907 161.180334 
L 140.058314 161.18785 
L 140.058721 161.195345 
L 140.059128 161.20282 
L 140.059536 161.210274 
L 140.059943 161.217708 
L 140.060352 161.225121 
L 140.06076 161.232513 
L 140.061169 161.239885 
L 140.061578 161.247236 
L 140.061987 161.254567 
L 140.062396 161.261876 
L 140.062806 161.269165 
L 140.063216 161.276433 
L 140.063626 161.283681 
L 140.064036 161.290907 
L 140.064447 161.298113 
L 140.064858 161.305298 
L 140.065269 161.312462 
L 140.06568 161.319604 
L 140.066091 161.326726 
L 140.066503 161.333827 
L 140.066915 161.340907 
L 140.067327 161.347966 
L 140.067739 161.355004 
L 140.068151 161.362021 
L 140.068564 161.369016 
L 140.068976 161.375991 
L 140.069389 161.382944 
L 140.069802 161.389876 
L 140.070215 161.396787 
L 140.070628 161.403677 
L 140.071042 161.410545 
L 140.071455 161.417392 
L 140.071868 161.424218 
L 140.072282 161.431022 
L 140.072696 161.437805 
L 140.07311 161.444566 
L 140.073524 161.451307 
L 140.073938 161.458025 
L 140.074352 161.464722 
L 140.074766 161.471398 
L 140.07518 161.478052 
L 140.075595 161.484684 
L 140.076009 161.491295 
L 140.076423 161.497885 
L 140.076838 161.504452 
L 140.077252 161.510998 
L 140.077667 161.517522 
L 140.078081 161.524025 
L 140.078496 161.530505 
L 140.07891 161.536964 
L 140.079325 161.543401 
L 140.079739 161.549816 
L 140.080154 161.55621 
L 140.080568 161.562581 
L 140.080983 161.56893 
L 140.081397 161.575258 
L 140.081811 161.581563 
" clip-path="url(#p4e08f2c6f0)" style="fill: none; stroke-dasharray: 9.6,2.4,1.5,2.4; stroke-dashoffset: 0; stroke: #dc143c; stroke-width: 1.5"/>
   </g>
   <g id="line2d_7">
    <path d="M 140.081811 161.581563 
L 140.332998 163.930561 
L 140.775488 166.286909 
L 141.405897 168.646238 
L 142.453735 171.593146 
L 143.785842 174.529998 
L 145.398415 177.448767 
L 147.288601 180.341365 
L 149.454474 183.199506 
L 151.895006 186.014561 
L 154.610065 188.777388 
L 157.600405 191.478154 
L 160.867671 194.106111 
L 164.414407 196.649336 
L 168.24406 199.094405 
L 172.36098 201.425989 
L 176.770407 203.626333 
L 181.478421 205.674579 
L 185.464379 207.187121 
L 189.649538 208.571443 
L 194.037752 209.809828 
L 198.632781 210.881213 
L 203.437977 211.760271 
L 208.45577 212.41618 
L 212.359132 212.739132 
L 216.381725 212.895947 
L 220.521271 212.863455 
L 224.773257 212.613763 
L 229.129788 212.112978 
L 233.577845 211.319509 
L 236.584198 210.602985 
L 239.613262 209.715472 
L 242.652936 208.635722 
L 245.686838 207.339005 
L 248.692775 205.796581 
L 251.640647 203.975227 
L 254.489631 201.837022 
L 257.184497 199.339742 
L 258.451842 197.942457 
L 259.65112 196.438584 
L 260.769332 194.822805 
L 261.791773 193.090389 
L 262.702013 191.237584 
L 263.482023 189.26212 
L 264.112466 187.16382 
L 264.573261 184.945284 
L 264.84443 182.612589 
L 264.907274 180.175896 
L 264.745803 177.649825 
L 264.348279 175.0534 
L 263.707994 172.406782 
L 262.835396 169.768361 
L 261.743653 167.174989 
L 260.432524 164.615807 
L 258.919672 162.112022 
L 257.22745 159.684839 
L 255.380267 157.351594 
L 253.402675 155.125053 
L 251.320104 153.01565 
L 249.155043 151.028583 
L 246.928379 149.16655 
L 244.658636 147.429766 
L 240.051964 144.323744 
L 235.436837 141.682518 
L 230.884191 139.467307 
L 226.441434 137.636236 
L 222.138997 136.148536 
L 217.995445 134.966528 
L 214.02121 134.056361 
L 210.221222 133.388079 
L 206.596733 132.935378 
L 203.14657 132.675237 
L 199.867994 132.587522 
L 195.263547 132.741271 
L 191.021931 133.193064 
L 187.127281 133.900892 
L 183.563668 134.829703 
L 180.315694 135.950007 
L 177.36878 137.236795 
L 174.709305 138.668678 
L 172.324648 140.227225 
L 170.203172 141.896427 
L 168.334185 143.662277 
L 166.707889 145.512429 
L 165.315319 147.435921 
L 164.148282 149.422953 
L 163.199302 151.464694 
L 162.461566 153.553132 
L 161.928874 155.680945 
L 161.595593 157.841382 
L 161.456618 160.028176 
L 161.507335 162.235457 
L 161.743589 164.45768 
L 162.161654 166.689556 
L 162.758208 168.925998 
L 163.530311 171.162062 
L 164.828445 174.134507 
L 166.428941 177.086235 
L 168.327636 180.005737 
L 170.521323 182.881195 
L 173.007696 185.700244 
L 175.78529 188.449703 
L 178.853419 191.115276 
L 182.212106 193.681176 
L 185.861979 196.129689 
L 189.804126 198.44061 
L 194.039886 200.590531 
L 197.410162 202.080939 
L 200.946659 203.45188 
L 204.64936 204.687772 
L 208.517629 205.770504 
L 212.549842 206.678836 
L 216.742844 207.387632 
L 221.091152 207.866872 
L 225.585763 208.08036 
L 230.212355 207.984059 
L 233.359457 207.721561 
L 236.546058 207.278604 
L 239.759511 206.633243 
L 242.982889 205.760147 
L 246.193533 204.630133 
L 249.361089 203.209786 
L 252.444926 201.461325 
L 255.390833 199.343049 
L 256.79044 198.131482 
L 258.127052 196.810936 
L 259.388278 195.376151 
L 260.560159 193.822366 
L 261.627153 192.145648 
L 262.5722 190.343315 
L 263.376938 188.414436 
L 264.02211 186.360416 
L 264.488195 184.185605 
L 264.75631 181.89788 
L 264.809351 179.50908 
L 264.633297 177.035198 
L 264.218518 174.496056 
L 263.543506 171.84832 
L 262.614013 169.123066 
L 261.463659 166.437097 
L 260.098523 163.787649 
L 258.540328 161.199292 
L 256.813543 158.691671 
L 254.943958 156.279985 
L 252.957074 153.974979 
L 250.876914 151.783313 
L 248.725266 149.708187 
L 244.281572 145.907194 
L 239.74812 142.553896 
L 235.210045 139.613388 
L 230.723966 137.044993 
L 226.326128 134.808239 
L 222.038809 132.865645 
L 217.874915 131.183734 
L 213.841148 129.733157 
L 208.039495 127.936208 
L 202.53469 126.531071 
L 197.318433 125.459576 
L 192.379083 124.67454 
L 187.703677 124.13738 
L 183.279027 123.816265 
L 177.747453 123.679001 
L 172.610296 123.827707 
L 167.841386 124.22099 
L 163.417066 124.825119 
L 159.316057 125.61226 
L 155.519255 126.559185 
L 152.009506 127.646315 
L 148.77139 128.856985 
L 145.791026 130.176895 
L 143.055888 131.593674 
L 140.554656 133.096542 
L 138.277078 134.676041 
L 136.213853 136.32382 
L 133.923455 138.468333 
L 131.939977 140.695205 
L 130.250196 142.993225 
L 128.842327 145.35248 
L 127.705861 147.764136 
L 126.831435 150.220248 
L 126.21071 152.71361 
L 125.836278 155.237633 
L 125.701583 157.786232 
L 125.800847 160.353736 
L 126.129016 162.934811 
L 126.681712 165.524383 
L 127.455191 168.117576 
L 128.446313 170.709653 
L 129.652515 173.295955 
L 131.071793 175.871851 
L 132.702686 178.432676 
L 134.54427 180.973678 
L 137.031766 183.989796 
L 139.822454 186.961405 
L 142.917793 189.878977 
L 146.320394 192.732138 
L 150.034063 195.509404 
L 154.063859 198.197863 
L 158.416161 200.782772 
L 162.295002 202.845517 
L 166.408451 204.813077 
L 170.76252 206.672186 
L 175.363968 208.407315 
L 180.220295 210.000075 
L 185.339688 211.428418 
L 190.730886 212.665562 
L 195.245602 213.495692 
L 199.944567 214.161878 
L 204.831891 214.639181 
L 209.910757 214.897048 
L 215.182572 214.897547 
L 219.262149 214.700731 
L 223.446669 214.307625 
L 227.730779 213.687968 
L 232.105054 212.804618 
L 236.553792 211.611518 
L 239.548966 210.616142 
L 242.555207 209.437149 
L 245.557443 208.050404 
L 248.535048 206.427678 
L 251.459775 204.536101 
L 254.292924 202.337793 
L 256.981576 199.790067 
L 258.250145 198.37083 
L 259.453879 196.846873 
L 260.579986 195.212552 
L 261.613887 193.462725 
L 262.539182 191.593149 
L 263.337731 189.600997 
L 263.989937 187.485488 
L 264.475287 185.248615 
L 264.773221 182.895904 
L 264.864356 180.437083 
L 264.731995 177.886512 
L 264.363786 175.263158 
L 263.750805 172.580162 
L 262.896401 169.870467 
L 261.810906 167.175166 
L 260.504003 164.5048 
L 258.998004 161.889299 
L 257.316808 159.349434 
L 255.48609 156.901572 
L 253.531605 154.557546 
L 251.477861 152.324961 
L 249.347259 150.207777 
L 247.159631 148.207006 
L 242.679209 144.548142 
L 238.143551 141.322053 
L 233.625603 138.490625 
L 229.173068 136.012846 
L 224.815996 133.84933 
L 220.572482 131.964265 
L 216.452662 130.325981 
L 210.5146 128.271875 
L 204.868467 126.633621 
L 199.508395 125.348319 
L 194.423981 124.365132 
L 189.602849 123.64266 
L 185.032037 123.146891 
L 179.304946 122.790455 
L 173.970747 122.732909 
L 169.004269 122.930625 
L 164.380843 123.348168 
L 160.078864 123.956433 
L 156.078922 124.731224 
L 152.36359 125.652206 
L 148.917199 126.70213 
L 145.725646 127.866236 
L 142.0753 129.4627 
L 138.781129 131.196514 
L 135.823491 133.049632 
L 133.184957 135.006605 
L 130.850027 137.054083 
L 128.804877 139.180436 
L 127.037162 141.375442 
L 125.535838 143.630053 
L 124.290799 145.936644 
L 123.293681 148.287049 
L 122.536296 150.67513 
L 122.011571 153.094872 
L 121.7132 155.540733 
L 121.635585 158.00757 
L 121.773781 160.490563 
L 122.123448 162.985155 
L 122.68082 165.486998 
L 123.442669 167.991901 
L 124.406279 170.495784 
L 125.825843 173.493446 
L 127.52984 176.476954 
L 129.516305 179.439336 
L 131.784227 182.373441 
L 134.333545 185.271815 
L 137.165164 188.126564 
L 140.280971 190.9292 
L 143.683874 193.670453 
L 147.377846 196.340053 
L 151.367982 198.926459 
L 155.660571 201.416515 
L 160.263171 203.795013 
L 165.184692 206.044131 
L 169.536994 207.804394 
L 174.124691 209.445631 
L 178.955271 210.950652 
L 184.036905 212.298895 
L 189.378348 213.465449 
L 194.988714 214.419711 
L 199.676719 215.004939 
L 204.546883 215.405963 
L 209.602623 215.593277 
L 214.845721 215.530286 
L 218.900458 215.291515 
L 223.057748 214.862323 
L 227.312849 214.213604 
L 231.657243 213.309663 
L 236.076603 212.106271 
L 239.053464 211.11087 
L 242.043405 209.938265 
L 245.032531 208.565266 
L 248.001805 206.964718 
L 250.925118 205.104907 
L 253.766639 202.949125 
L 256.477241 200.45566 
L 257.763354 199.068117 
L 258.989938 197.578855 
L 260.144966 195.982071 
L 261.214656 194.272314 
L 262.183391 192.444836 
L 263.033737 190.496061 
L 263.746627 188.424168 
L 264.301785 186.229799 
L 264.678451 183.916819 
L 264.856468 181.493057 
L 264.817699 178.970872 
L 264.54768 176.367362 
L 264.037145 173.703472 
L 263.310111 171.104826 
L 262.366113 168.571347 
L 261.192977 166.054964 
L 259.806481 163.579771 
L 258.226866 161.169695 
L 256.47621 158.843713 
L 254.57943 156.618906 
L 252.560487 154.506891 
L 250.443033 152.516255 
L 248.249264 150.652318 
L 245.999437 148.917596 
L 243.71163 147.312308 
L 239.083245 144.482351 
L 234.465608 142.135751 
L 229.93095 140.234791 
L 225.528653 138.737969 
L 221.291194 137.604171 
L 217.238944 136.794801 
L 213.383773 136.274699 
L 209.731668 136.012361 
L 206.284598 135.979825 
L 203.041817 136.152375 
L 200.000787 136.508202 
L 197.15781 137.028053 
L 194.508475 137.6949 
L 192.047968 138.493651 
L 189.771282 139.410883 
L 187.673367 140.43462 
L 185.749227 141.554139 
L 183.993991 142.759799 
L 182.402953 144.042901 
L 180.971603 145.395564 
L 179.695639 146.810615 
L 178.570978 148.281504 
L 177.159289 150.579513 
L 176.06727 152.97138 
L 175.283874 155.440695 
L 174.79907 157.972638 
L 174.603794 160.553668 
L 174.689887 163.171266 
L 175.050034 165.81371 
L 175.67771 168.469879 
L 176.567123 171.129067 
L 177.713167 173.78082 
L 179.111365 176.41477 
L 180.757821 179.020479 
L 182.649165 181.587269 
L 184.782501 184.104048 
L 187.155333 186.559115 
L 189.765497 188.939943 
L 192.611058 191.232926 
L 195.690183 193.423084 
L 199.000978 195.493699 
L 202.541256 197.425882 
L 206.308215 199.19803 
L 210.297986 200.785143 
L 214.504978 202.157966 
L 218.920926 203.281893 
L 221.975106 203.872807 
L 225.111723 204.32062 
L 228.324117 204.609092 
L 231.603539 204.719695 
L 234.938471 204.631236 
L 238.313728 204.319449 
L 241.709266 203.756574 
L 245.098595 202.910981 
L 248.446699 201.746948 
L 251.707376 200.224799 
L 253.286641 199.316141 
L 254.819977 198.301773 
L 256.296941 197.176228 
L 257.705735 195.934239 
L 259.033122 194.570951 
L 260.264396 193.082192 
L 261.383415 191.464828 
L 262.372745 189.717176 
L 263.213946 187.839495 
L 263.888037 185.834516 
L 264.376168 183.707972 
L 264.66051 181.469061 
L 264.725319 179.130751 
L 264.558099 176.709834 
L 264.150682 174.226342 
L 263.51038 171.741541 
L 262.64981 169.313031 
L 261.568059 166.923116 
L 260.264274 164.563366 
L 258.757359 162.261167 
L 257.067243 160.037774 
L 255.215819 157.911348 
L 253.226208 155.897025 
L 251.121862 154.006787 
L 248.925794 152.249524 
L 246.659971 150.631241 
L 244.344887 149.155365 
L 241.999282 147.823104 
L 239.640019 146.633814 
L 237.282048 145.585368 
L 234.938461 144.674476 
L 230.338184 143.248095 
L 225.911416 142.315085 
L 221.70943 141.831473 
L 217.767232 141.752681 
L 214.10759 142.035716 
L 210.74427 142.640312 
L 207.684521 143.529406 
L 204.930944 144.669231 
L 202.482875 146.029183 
L 200.337398 147.58158 
L 198.490084 149.301372 
L 196.935521 151.165847 
L 195.667703 153.154332 
L 194.680296 155.247926 
L 193.966841 157.429243 
L 193.520881 159.682189 
L 193.336049 161.991746 
L 193.406132 164.343789 
L 193.725093 166.724902 
L 194.287085 169.122226 
L 195.086444 171.523296 
L 196.117669 173.915899 
L 197.375385 176.287934 
L 198.854299 178.627261 
L 200.54913 180.921567 
L 202.454535 183.158207 
L 204.565004 185.324053 
L 206.874737 187.40532 
L 209.377481 189.387383 
L 212.066337 191.254575 
L 214.933503 192.989962 
L 217.969961 194.575095 
L 221.165063 195.989735 
L 224.506022 197.211554 
L 227.977239 198.215817 
L 231.559452 198.975063 
L 235.22865 199.458802 
L 238.954691 199.633297 
L 242.699569 199.461513 
L 246.415312 198.9034 
L 248.24394 198.466323 
L 250.041516 197.916749 
L 251.798109 197.249362 
L 253.502689 196.459017 
L 255.143064 195.540886 
L 256.705846 194.490648 
L 258.176464 193.304716 
L 259.539219 191.980519 
L 260.777426 190.516818 
L 261.873645 188.914062 
L 262.810031 187.174778 
L 263.568809 185.303937 
L 264.132881 183.309308 
L 264.486558 181.201705 
L 264.616364 178.995115 
L 264.511869 176.706622 
L 264.166398 174.35573 
L 263.580245 171.973264 
L 262.766354 169.61952 
L 261.735423 167.312477 
L 260.508797 165.093407 
L 259.072796 162.925538 
L 257.446011 160.83244 
L 255.647902 158.833365 
L 253.69948 156.945289 
L 251.622808 155.182836 
L 249.440433 153.558165 
L 247.174868 152.080951 
L 244.848139 150.758454 
L 242.481427 149.595656 
L 240.094785 148.595445 
L 237.706943 147.758829 
L 235.335179 147.085169 
L 232.995258 146.572411 
L 230.70142 146.217305 
L 228.466403 146.015618 
L 226.301503 145.962326 
L 224.21665 146.051778 
L 222.220494 146.277846 
L 220.320505 146.634054 
L 218.52307 147.11368 
L 216.833592 147.709851 
L 215.256586 148.415611 
L 213.795766 149.223981 
L 212.45413 150.128006 
L 211.234038 151.12079 
L 210.137282 152.195522 
L 209.165149 153.345496 
L 208.318476 154.564123 
L 207.597703 155.84494 
L 207.002919 157.18161 
L 206.533896 158.567923 
L 206.190124 159.997795 
L 205.970845 161.465259 
L 205.875069 162.964458 
L 205.901599 164.489637 
L 206.049049 166.035132 
L 206.315852 167.59536 
L 206.700271 169.164802 
L 207.814196 172.309526 
L 209.373696 175.426033 
L 211.359003 178.471285 
L 213.747478 181.402052 
L 216.5132 184.174483 
L 219.626347 186.743721 
L 223.052378 189.063577 
L 226.75099 191.086309 
L 230.674837 192.762579 
L 232.704138 193.454986 
L 234.768034 194.041685 
L 236.857927 194.51623 
L 238.964474 194.872201 
L 241.077528 195.103264 
L 243.186091 195.203236 
L 245.278275 195.166184 
L 247.34127 194.986527 
L 249.361334 194.659171 
L 251.323808 194.179661 
L 253.213154 193.544362 
L 255.013041 192.750656 
L 256.706468 191.797165 
L 258.275957 190.683985 
L 259.703789 189.412929 
L 260.972321 187.987762 
L 262.06436 186.414418 
L 262.963606 184.701174 
L 263.655134 182.858772 
L 264.12591 180.900451 
L 264.365313 178.841864 
L 264.365607 176.70059 
L 264.120419 174.481632 
L 263.628293 172.196226 
L 262.90205 169.919428 
L 261.950786 167.673514 
L 260.771138 165.445164 
L 259.381433 163.265947 
L 257.798957 161.15778 
L 256.042746 159.139868 
L 254.133459 157.229259 
L 252.092828 155.440687 
L 249.943092 153.786458 
L 247.706484 152.276433 
L 245.404788 150.918084 
L 243.058977 149.716638 
L 240.68894 148.675252 
L 238.313282 147.795221 
L 235.949202 147.076212 
L 233.612425 146.516479 
L 231.317191 146.113091 
L 229.076274 145.862133 
L 226.901038 145.758891 
L 224.801511 145.798021 
L 222.786466 145.973692 
L 220.863517 146.279711 
L 219.039215 146.70963 
L 217.31914 147.256832 
L 215.707998 147.914605 
L 214.209702 148.676199 
L 212.827457 149.534874 
L 211.563835 150.483932 
L 210.420842 151.516751 
L 209.399984 152.626797 
L 208.502317 153.807643 
L 207.728502 155.052975 
L 207.078844 156.356594 
L 206.553336 157.712421 
L 206.151686 159.114491 
L 205.87335 160.556949 
L 205.717556 162.03404 
L 205.683323 163.540108 
L 205.769477 165.069578 
L 205.974666 166.61695 
L 206.297367 168.176789 
L 207.288409 171.312349 
L 208.727214 174.433532 
L 210.595797 177.497783 
L 212.873372 180.462292 
L 215.535962 183.283567 
L 218.555816 185.917032 
L 221.900615 188.316676 
L 225.532458 190.434795 
L 229.406601 192.22189 
L 233.469966 193.626819 
L 233.469966 193.626819 
" clip-path="url(#p4e08f2c6f0)" style="fill: none; stroke-dasharray: 5.55,2.4; stroke-dashoffset: 0; stroke: #ff6347; stroke-width: 1.5"/>
   </g>
   <g id="Path3DCollection_1">
    <defs>
     <path id="m2a45449860" d="M 0 2.236068 
C 0.593012 2.236068 1.161816 2.000462 1.581139 1.581139 
C 2.000462 1.161816 2.236068 0.593012 2.236068 0 
C 2.236068 -0.593012 2.000462 -1.161816 1.581139 -1.581139 
C 1.161816 -2.000462 0.593012 -2.236068 0 -2.236068 
C -0.593012 -2.236068 -1.161816 -2.000462 -1.581139 -1.581139 
C -2.000462 -1.161816 -2.236068 -0.593012 -2.236068 0 
C -2.236068 0.593012 -2.000462 1.161816 -1.581139 1.581139 
C -1.161816 2.000462 -0.593012 2.236068 0 2.236068 
z
" style="stroke: #00ffff"/>
    </defs>
    <g clip-path="url(#p4e08f2c6f0)"/>
   </g>
   <g id="Path3DCollection_2">
    <defs>
     <path id="mf420ccd898" d="M 0 2.236068 
C 0.593012 2.236068 1.161816 2.000462 1.581139 1.581139 
C 2.000462 1.161816 2.236068 0.593012 2.236068 0 
C 2.236068 -0.593012 2.000462 -1.161816 1.581139 -1.581139 
C 1.161816 -2.000462 0.593012 -2.236068 0 -2.236068 
C -0.593012 -2.236068 -1.161816 -2.000462 -1.581139 -1.581139 
C -2.000462 -1.161816 -2.236068 -0.593012 -2.236068 0 
C -2.236068 0.593012 -2.000462 1.161816 -1.581139 1.581139 
C -1.161816 2.000462 -0.593012 2.236068 0 2.236068 
z
" style="stroke: #008000"/>
    </defs>
    <g clip-path="url(#p4e08f2c6f0)">
     <use xlink:href="#mf420ccd898" x="163.760327" y="329.108951" style="fill: #008000; stroke: #008000"/>
    </g>
   </g>
   <g id="Path3DCollection_3">
    <g clip-path="url(#p4e08f2c6f0)">
     <use xlink:href="#m2a45449860" x="221.190139" y="288.709107" style="fill: #00ffff; stroke: #00ffff"/>
    </g>
   </g>
   <g id="legend_1">
    <g id="patch_8">
     <path d="M 451.0496 191.25325 
L 687.248038 191.25325 
Q 689.248038 191.25325 689.248038 189.25325 
L 689.248038 43.472 
Q 689.248038 41.472 687.248038 41.472 
L 451.0496 41.472 
Q 449.0496 41.472 449.0496 43.472 
L 449.0496 189.25325 
Q 449.0496 191.25325 451.0496 191.25325 
z
" style="fill: #ffffff; opacity: 0.8; stroke: #cccccc; stroke-linejoin: miter"/>
    </g>
    <g id="Path3DCollection_4">
     <g>
      <use xlink:href="#mf420ccd898" x="463.0496" y="50.445438" style="fill: #008000; stroke: #008000"/>
     </g>
    </g>
    <g id="text_2">
     <!-- Spacecraft on 10/12/2023, 16:50:30 UTC -->
     <g transform="translate(481.0496 53.070438) scale(0.1 -0.1)">
      <defs>
       <path id="DejaVuSans-53" d="M 3425 4513 
L 3425 3897 
Q 3066 4069 2747 4153 
Q 2428 4238 2131 4238 
Q 1616 4238 1336 4038 
Q 1056 3838 1056 3469 
Q 1056 3159 1242 3001 
Q 1428 2844 1947 2747 
L 2328 2669 
Q 3034 2534 3370 2195 
Q 3706 1856 3706 1288 
Q 3706 609 3251 259 
Q 2797 -91 1919 -91 
Q 1588 -91 1214 -16 
Q 841 59 441 206 
L 441 856 
Q 825 641 1194 531 
Q 1563 422 1919 422 
Q 2459 422 2753 634 
Q 3047 847 3047 1241 
Q 3047 1584 2836 1778 
Q 2625 1972 2144 2069 
L 1759 2144 
Q 1053 2284 737 2584 
Q 422 2884 422 3419 
Q 422 4038 858 4394 
Q 1294 4750 2059 4750 
Q 2388 4750 2728 4690 
Q 3069 4631 3425 4513 
z
" transform="scale(0.015625)"/>
       <path id="DejaVuSans-70" d="M 1159 525 
L 1159 -1331 
L 581 -1331 
L 581 3500 
L 1159 3500 
L 1159 2969 
Q 1341 3281 1617 3432 
Q 1894 3584 2278 3584 
Q 2916 3584 3314 3078 
Q 3713 2572 3713 1747 
Q 3713 922 3314 415 
Q 2916 -91 2278 -91 
Q 1894 -91 1617 61 
Q 1341 213 1159 525 
z
M 3116 1747 
Q 3116 2381 2855 2742 
Q 2594 3103 2138 3103 
Q 1681 3103 1420 2742 
Q 1159 2381 1159 1747 
Q 1159 1113 1420 752 
Q 1681 391 2138 391 
Q 2594 391 2855 752 
Q 3116 1113 3116 1747 
z
" transform="scale(0.015625)"/>
       <path id="DejaVuSans-66" d="M 2375 4863 
L 2375 4384 
L 1825 4384 
Q 1516 4384 1395 4259 
Q 1275 4134 1275 3809 
L 1275 3500 
L 2222 3500 
L 2222 3053 
L 1275 3053 
L 1275 0 
L 697 0 
L 697 3053 
L 147 3053 
L 147 3500 
L 697 3500 
L 697 3744 
Q 697 4328 969 4595 
Q 1241 4863 1831 4863 
L 2375 4863 
z
" transform="scale(0.015625)"/>
       <path id="DejaVuSans-6e" d="M 3513 2113 
L 3513 0 
L 2938 0 
L 2938 2094 
Q 2938 2591 2744 2837 
Q 2550 3084 2163 3084 
Q 1697 3084 1428 2787 
Q 1159 2491 1159 1978 
L 1159 0 
L 581 0 
L 581 3500 
L 1159 3500 
L 1159 2956 
Q 1366 3272 1645 3428 
Q 1925 3584 2291 3584 
Q 2894 3584 3203 3211 
Q 3513 2838 3513 2113 
z
" transform="scale(0.015625)"/>
       <path id="DejaVuSans-31" d="M 794 531 
L 1825 531 
L 1825 4091 
L 703 3866 
L 703 4441 
L 1819 4666 
L 2450 4666 
L 2450 531 
L 3481 531 
L 3481 0 
L 794 0 
L 794 531 
z
" transform="scale(0.015625)"/>
       <path id="DejaVuSans-30" d="M 2034 4250 
Q 1547 4250 1301 3770 
Q 1056 3291 1056 2328 
Q 1056 1369 1301 889 
Q 1547 409 2034 409 
Q 2525 409 2770 889 
Q 3016 1369 3016 2328 
Q 3016 3291 2770 3770 
Q 2525 4250 2034 4250 
z
M 2034 4750 
Q 2819 4750 3233 4129 
Q 3647 3509 3647 2328 
Q 3647 1150 3233 529 
Q 2819 -91 2034 -91 
Q 1250 -91 836 529 
Q 422 1150 422 2328 
Q 422 3509 836 4129 
Q 1250 4750 2034 4750 
z
" transform="scale(0.015625)"/>
       <path id="DejaVuSans-2f" d="M 1625 4666 
L 2156 4666 
L 531 -594 
L 0 -594 
L 1625 4666 
z
" transform="scale(0.015625)"/>
       <path id="DejaVuSans-32" d="M 1228 531 
L 3431 531 
L 3431 0 
L 469 0 
L 469 531 
Q 828 903 1448 1529 
Q 2069 2156 2228 2338 
Q 2531 2678 2651 2914 
Q 2772 3150 2772 3378 
Q 2772 3750 2511 3984 
Q 2250 4219 1831 4219 
Q 1534 4219 1204 4116 
Q 875 4013 500 3803 
L 500 4441 
Q 881 4594 1212 4672 
Q 1544 4750 1819 4750 
Q 2544 4750 2975 4387 
Q 3406 4025 3406 3419 
Q 3406 3131 3298 2873 
Q 3191 2616 2906 2266 
Q 2828 2175 2409 1742 
Q 1991 1309 1228 531 
z
" transform="scale(0.015625)"/>
       <path id="DejaVuSans-33" d="M 2597 2516 
Q 3050 2419 3304 2112 
Q 3559 1806 3559 1356 
Q 3559 666 3084 287 
Q 2609 -91 1734 -91 
Q 1441 -91 1130 -33 
Q 819 25 488 141 
L 488 750 
Q 750 597 1062 519 
Q 1375 441 1716 441 
Q 2309 441 2620 675 
Q 2931 909 2931 1356 
Q 2931 1769 2642 2001 
Q 2353 2234 1838 2234 
L 1294 2234 
L 1294 2753 
L 1863 2753 
Q 2328 2753 2575 2939 
Q 2822 3125 2822 3475 
Q 2822 3834 2567 4026 
Q 2313 4219 1838 4219 
Q 1578 4219 1281 4162 
Q 984 4106 628 3988 
L 628 4550 
Q 988 4650 1302 4700 
Q 1616 4750 1894 4750 
Q 2613 4750 3031 4423 
Q 3450 4097 3450 3541 
Q 3450 3153 3228 2886 
Q 3006 2619 2597 2516 
z
" transform="scale(0.015625)"/>
       <path id="DejaVuSans-2c" d="M 750 794 
L 1409 794 
L 1409 256 
L 897 -744 
L 494 -744 
L 750 256 
L 750 794 
z
" transform="scale(0.015625)"/>
       <path id="DejaVuSans-36" d="M 2113 2584 
Q 1688 2584 1439 2293 
Q 1191 2003 1191 1497 
Q 1191 994 1439 701 
Q 1688 409 2113 409 
Q 2538 409 2786 701 
Q 3034 994 3034 1497 
Q 3034 2003 2786 2293 
Q 2538 2584 2113 2584 
z
M 3366 4563 
L 3366 3988 
Q 3128 4100 2886 4159 
Q 2644 4219 2406 4219 
Q 1781 4219 1451 3797 
Q 1122 3375 1075 2522 
Q 1259 2794 1537 2939 
Q 1816 3084 2150 3084 
Q 2853 3084 3261 2657 
Q 3669 2231 3669 1497 
Q 3669 778 3244 343 
Q 2819 -91 2113 -91 
Q 1303 -91 875 529 
Q 447 1150 447 2328 
Q 447 3434 972 4092 
Q 1497 4750 2381 4750 
Q 2619 4750 2861 4703 
Q 3103 4656 3366 4563 
z
" transform="scale(0.015625)"/>
       <path id="DejaVuSans-3a" d="M 750 794 
L 1409 794 
L 1409 0 
L 750 0 
L 750 794 
z
M 750 3309 
L 1409 3309 
L 1409 2516 
L 750 2516 
L 750 3309 
z
" transform="scale(0.015625)"/>
       <path id="DejaVuSans-35" d="M 691 4666 
L 3169 4666 
L 3169 4134 
L 1269 4134 
L 1269 2991 
Q 1406 3038 1543 3061 
Q 1681 3084 1819 3084 
Q 2600 3084 3056 2656 
Q 3513 2228 3513 1497 
Q 3513 744 3044 326 
Q 2575 -91 1722 -91 
Q 1428 -91 1123 -41 
Q 819 9 494 109 
L 494 744 
Q 775 591 1075 516 
Q 1375 441 1709 441 
Q 2250 441 2565 725 
Q 2881 1009 2881 1497 
Q 2881 1984 2565 2268 
Q 2250 2553 1709 2553 
Q 1456 2553 1204 2497 
Q 953 2441 691 2322 
L 691 4666 
z
" transform="scale(0.015625)"/>
       <path id="DejaVuSans-55" d="M 556 4666 
L 1191 4666 
L 1191 1831 
Q 1191 1081 1462 751 
Q 1734 422 2344 422 
Q 2950 422 3222 751 
Q 3494 1081 3494 1831 
L 3494 4666 
L 4128 4666 
L 4128 1753 
Q 4128 841 3676 375 
Q 3225 -91 2344 -91 
Q 1459 -91 1007 375 
Q 556 841 556 1753 
L 556 4666 
z
" transform="scale(0.015625)"/>
       <path id="DejaVuSans-43" d="M 4122 4306 
L 4122 3641 
Q 3803 3938 3442 4084 
Q 3081 4231 2675 4231 
Q 1875 4231 1450 3742 
Q 1025 3253 1025 2328 
Q 1025 1406 1450 917 
Q 1875 428 2675 428 
Q 3081 428 3442 575 
Q 3803 722 4122 1019 
L 4122 359 
Q 3791 134 3420 21 
Q 3050 -91 2638 -91 
Q 1578 -91 968 557 
Q 359 1206 359 2328 
Q 359 3453 968 4101 
Q 1578 4750 2638 4750 
Q 3056 4750 3426 4639 
Q 3797 4528 4122 4306 
z
" transform="scale(0.015625)"/>
      </defs>
      <use xlink:href="#DejaVuSans-53"/>
      <use xlink:href="#DejaVuSans-70" x="63.476562"/>
      <use xlink:href="#DejaVuSans-61" x="126.953125"/>
      <use xlink:href="#DejaVuSans-63" x="188.232422"/>
      <use xlink:href="#DejaVuSans-65" x="243.212891"/>
      <use xlink:href="#DejaVuSans-63" x="304.736328"/>
      <use xlink:href="#DejaVuSans-72" x="359.716797"/>
      <use xlink:href="#DejaVuSans-61" x="400.830078"/>
      <use xlink:href="#DejaVuSans-66" x="462.109375"/>
      <use xlink:href="#DejaVuSans-74" x="495.564453"/>
      <use xlink:href="#DejaVuSans-20" x="534.773438"/>
      <use xlink:href="#DejaVuSans-6f" x="566.560547"/>
      <use xlink:href="#DejaVuSans-6e" x="627.742188"/>
      <use xlink:href="#DejaVuSans-20" x="691.121094"/>
      <use xlink:href="#DejaVuSans-31" x="722.908203"/>
      <use xlink:href="#DejaVuSans-30" x="786.53125"/>
      <use xlink:href="#DejaVuSans-2f" x="850.154297"/>
      <use xlink:href="#DejaVuSans-31" x="883.845703"/>
      <use xlink:href="#DejaVuSans-32" x="947.46875"/>
      <use xlink:href="#DejaVuSans-2f" x="1011.091797"/>
      <use xlink:href="#DejaVuSans-32" x="1044.783203"/>
      <use xlink:href="#DejaVuSans-30" x="1108.40625"/>
      <use xlink:href="#DejaVuSans-32" x="1172.029297"/>
      <use xlink:href="#DejaVuSans-33" x="1235.652344"/>
      <use xlink:href="#DejaVuSans-2c" x="1299.275391"/>
      <use xlink:href="#DejaVuSans-20" x="1331.0625"/>
      <use xlink:href="#DejaVuSans-31" x="1362.849609"/>
      <use xlink:href="#DejaVuSans-36" x="1426.472656"/>
      <use xlink:href="#DejaVuSans-3a" x="1490.095703"/>
      <use xlink:href="#DejaVuSans-35" x="1523.787109"/>
      <use xlink:href="#DejaVuSans-30" x="1587.410156"/>
      <use xlink:href="#DejaVuSans-3a" x="1651.033203"/>
      <use xlink:href="#DejaVuSans-33" x="1684.724609"/>
      <use xlink:href="#DejaVuSans-30" x="1748.347656"/>
      <use xlink:href="#DejaVuSans-20" x="1811.970703"/>
      <use xlink:href="#DejaVuSans-55" x="1843.757812"/>
      <use xlink:href="#DejaVuSans-54" x="1916.951172"/>
      <use xlink:href="#DejaVuSans-43" x="1972.160156"/>
     </g>
    </g>
    <g id="line2d_8">
     <path d="M 453.0496 64.248563 
L 461.8 64.248563 
" style="fill: none; stroke-dasharray: 5.55,2.4; stroke-dashoffset: 0; stroke: #ff8c00; stroke-width: 1.5"/>
    </g>
    <g id="text_3">
     <!-- MTO -->
     <g transform="translate(481.0496 67.748563) scale(0.1 -0.1)">
      <defs>
       <path id="DejaVuSans-4d" d="M 628 4666 
L 1569 4666 
L 2759 1491 
L 3956 4666 
L 4897 4666 
L 4897 0 
L 4281 0 
L 4281 4097 
L 3078 897 
L 2444 897 
L 1241 4097 
L 1241 0 
L 628 0 
L 628 4666 
z
" transform="scale(0.015625)"/>
       <path id="DejaVuSans-4f" d="M 2522 4238 
Q 1834 4238 1429 3725 
Q 1025 3213 1025 2328 
Q 1025 1447 1429 934 
Q 1834 422 2522 422 
Q 3209 422 3611 934 
Q 4013 1447 4013 2328 
Q 4013 3213 3611 3725 
Q 3209 4238 2522 4238 
z
M 2522 4750 
Q 3503 4750 4090 4092 
Q 4678 3434 4678 2328 
Q 4678 1225 4090 567 
Q 3503 -91 2522 -91 
Q 1538 -91 948 565 
Q 359 1222 359 2328 
Q 359 3434 948 4092 
Q 1538 4750 2522 4750 
z
" transform="scale(0.015625)"/>
      </defs>
      <use xlink:href="#DejaVuSans-4d"/>
      <use xlink:href="#DejaVuSans-54" x="86.279297"/>
      <use xlink:href="#DejaVuSans-4f" x="147.363281"/>
     </g>
    </g>
    <g id="line2d_9">
     <path d="M 453.0496 78.926688 
L 461.8 78.926688 
" style="fill: none; stroke-dasharray: 9.6,2.4,1.5,2.4; stroke-dashoffset: 0; stroke: #00ffff; stroke-width: 1.5"/>
    </g>
    <g id="text_4">
     <!-- MOI 3223.17s -->
     <g transform="translate(481.0496 82.426688) scale(0.1 -0.1)">
      <defs>
       <path id="DejaVuSans-49" d="M 628 4666 
L 1259 4666 
L 1259 0 
L 628 0 
L 628 4666 
z
" transform="scale(0.015625)"/>
       <path id="DejaVuSans-2e" d="M 684 794 
L 1344 794 
L 1344 0 
L 684 0 
L 684 794 
z
" transform="scale(0.015625)"/>
       <path id="DejaVuSans-37" d="M 525 4666 
L 3525 4666 
L 3525 4397 
L 1831 0 
L 1172 0 
L 2766 4134 
L 525 4134 
L 525 4666 
z
" transform="scale(0.015625)"/>
       <path id="DejaVuSans-73" d="M 2834 3397 
L 2834 2853 
Q 2591 2978 2328 3040 
Q 2066 3103 1784 3103 
Q 1356 3103 1142 2972 
Q 928 2841 928 2578 
Q 928 2378 1081 2264 
Q 1234 2150 1697 2047 
L 1894 2003 
Q 2506 1872 2764 1633 
Q 3022 1394 3022 966 
Q 3022 478 2636 193 
Q 2250 -91 1575 -91 
Q 1294 -91 989 -36 
Q 684 19 347 128 
L 347 722 
Q 666 556 975 473 
Q 1284 391 1588 391 
Q 1994 391 2212 530 
Q 2431 669 2431 922 
Q 2431 1156 2273 1281 
Q 2116 1406 1581 1522 
L 1381 1569 
Q 847 1681 609 1914 
Q 372 2147 372 2553 
Q 372 3047 722 3315 
Q 1072 3584 1716 3584 
Q 2034 3584 2315 3537 
Q 2597 3491 2834 3397 
z
" transform="scale(0.015625)"/>
      </defs>
      <use xlink:href="#DejaVuSans-4d"/>
      <use xlink:href="#DejaVuSans-4f" x="86.279297"/>
      <use xlink:href="#DejaVuSans-49" x="164.990234"/>
      <use xlink:href="#DejaVuSans-20" x="194.482422"/>
      <use xlink:href="#DejaVuSans-33" x="226.269531"/>
      <use xlink:href="#DejaVuSans-32" x="289.892578"/>
      <use xlink:href="#DejaVuSans-32" x="353.515625"/>
      <use xlink:href="#DejaVuSans-33" x="417.138672"/>
      <use xlink:href="#DejaVuSans-2e" x="480.761719"/>
      <use xlink:href="#DejaVuSans-31" x="512.548828"/>
      <use xlink:href="#DejaVuSans-37" x="576.171875"/>
      <use xlink:href="#DejaVuSans-73" x="639.794922"/>
     </g>
    </g>
    <g id="Path3DCollection_5">
     <g>
      <use xlink:href="#m2a45449860" x="463.0496" y="94.479813" style="fill: #00ffff; stroke: #00ffff"/>
     </g>
    </g>
    <g id="text_5">
     <!-- e-correction 97.02s -->
     <g transform="translate(481.0496 97.104813) scale(0.1 -0.1)">
      <defs>
       <path id="DejaVuSans-2d" d="M 313 2009 
L 1997 2009 
L 1997 1497 
L 313 1497 
L 313 2009 
z
" transform="scale(0.015625)"/>
       <path id="DejaVuSans-69" d="M 603 3500 
L 1178 3500 
L 1178 0 
L 603 0 
L 603 3500 
z
M 603 4863 
L 1178 4863 
L 1178 4134 
L 603 4134 
L 603 4863 
z
" transform="scale(0.015625)"/>
       <path id="DejaVuSans-39" d="M 703 97 
L 703 672 
Q 941 559 1184 500 
Q 1428 441 1663 441 
Q 2288 441 2617 861 
Q 2947 1281 2994 2138 
Q 2813 1869 2534 1725 
Q 2256 1581 1919 1581 
Q 1219 1581 811 2004 
Q 403 2428 403 3163 
Q 403 3881 828 4315 
Q 1253 4750 1959 4750 
Q 2769 4750 3195 4129 
Q 3622 3509 3622 2328 
Q 3622 1225 3098 567 
Q 2575 -91 1691 -91 
Q 1453 -91 1209 -44 
Q 966 3 703 97 
z
M 1959 2075 
Q 2384 2075 2632 2365 
Q 2881 2656 2881 3163 
Q 2881 3666 2632 3958 
Q 2384 4250 1959 4250 
Q 1534 4250 1286 3958 
Q 1038 3666 1038 3163 
Q 1038 2656 1286 2365 
Q 1534 2075 1959 2075 
z
" transform="scale(0.015625)"/>
      </defs>
      <use xlink:href="#DejaVuSans-65"/>
      <use xlink:href="#DejaVuSans-2d" x="61.523438"/>
      <use xlink:href="#DejaVuSans-63" x="97.607422"/>
      <use xlink:href="#DejaVuSans-6f" x="152.587891"/>
      <use xlink:href="#DejaVuSans-72" x="213.769531"/>
      <use xlink:href="#DejaVuSans-72" x="253.132812"/>
      <use xlink:href="#DejaVuSans-65" x="291.996094"/>
      <use xlink:href="#DejaVuSans-63" x="353.519531"/>
      <use xlink:href="#DejaVuSans-74" x="408.5"/>
      <use xlink:href="#DejaVuSans-69" x="447.708984"/>
      <use xlink:href="#DejaVuSans-6f" x="475.492188"/>
      <use xlink:href="#DejaVuSans-6e" x="536.673828"/>
      <use xlink:href="#DejaVuSans-20" x="600.052734"/>
      <use xlink:href="#DejaVuSans-39" x="631.839844"/>
      <use xlink:href="#DejaVuSans-37" x="695.462891"/>
      <use xlink:href="#DejaVuSans-2e" x="759.085938"/>
      <use xlink:href="#DejaVuSans-30" x="790.873047"/>
      <use xlink:href="#DejaVuSans-32" x="854.496094"/>
      <use xlink:href="#DejaVuSans-73" x="918.119141"/>
     </g>
    </g>
    <g id="line2d_10">
     <path d="M 453.0496 108.282938 
L 461.8 108.282938 
" style="fill: none; stroke-dasharray: 5.55,2.4; stroke-dashoffset: 0; stroke: #f08080; stroke-width: 1.5"/>
    </g>
    <g id="text_6">
     <!-- Wait for periares -->
     <g transform="translate(481.0496 111.782938) scale(0.1 -0.1)">
      <defs>
       <path id="DejaVuSans-57" d="M 213 4666 
L 850 4666 
L 1831 722 
L 2809 4666 
L 3519 4666 
L 4500 722 
L 5478 4666 
L 6119 4666 
L 4947 0 
L 4153 0 
L 3169 4050 
L 2175 0 
L 1381 0 
L 213 4666 
z
" transform="scale(0.015625)"/>
      </defs>
      <use xlink:href="#DejaVuSans-57"/>
      <use xlink:href="#DejaVuSans-61" x="92.501953"/>
      <use xlink:href="#DejaVuSans-69" x="153.78125"/>
      <use xlink:href="#DejaVuSans-74" x="181.564453"/>
      <use xlink:href="#DejaVuSans-20" x="220.773438"/>
      <use xlink:href="#DejaVuSans-66" x="252.560547"/>
      <use xlink:href="#DejaVuSans-6f" x="287.765625"/>
      <use xlink:href="#DejaVuSans-72" x="348.947266"/>
      <use xlink:href="#DejaVuSans-20" x="390.060547"/>
      <use xlink:href="#DejaVuSans-70" x="421.847656"/>
      <use xlink:href="#DejaVuSans-65" x="485.324219"/>
      <use xlink:href="#DejaVuSans-72" x="546.847656"/>
      <use xlink:href="#DejaVuSans-69" x="587.960938"/>
      <use xlink:href="#DejaVuSans-61" x="615.744141"/>
      <use xlink:href="#DejaVuSans-72" x="677.023438"/>
      <use xlink:href="#DejaVuSans-65" x="715.886719"/>
      <use xlink:href="#DejaVuSans-73" x="777.410156"/>
     </g>
    </g>
    <g id="line2d_11">
     <path d="M 453.0496 122.961063 
L 461.8 122.961063 
" style="fill: none; stroke-dasharray: 9.6,2.4,1.5,2.4; stroke-dashoffset: 0; stroke: #ff00ff; stroke-width: 1.5"/>
    </g>
    <g id="text_7">
     <!-- Burn to e=0.2 158.94s -->
     <g transform="translate(481.0496 126.461063) scale(0.1 -0.1)">
      <defs>
       <path id="DejaVuSans-42" d="M 1259 2228 
L 1259 519 
L 2272 519 
Q 2781 519 3026 730 
Q 3272 941 3272 1375 
Q 3272 1813 3026 2020 
Q 2781 2228 2272 2228 
L 1259 2228 
z
M 1259 4147 
L 1259 2741 
L 2194 2741 
Q 2656 2741 2882 2914 
Q 3109 3088 3109 3444 
Q 3109 3797 2882 3972 
Q 2656 4147 2194 4147 
L 1259 4147 
z
M 628 4666 
L 2241 4666 
Q 2963 4666 3353 4366 
Q 3744 4066 3744 3513 
Q 3744 3084 3544 2831 
Q 3344 2578 2956 2516 
Q 3422 2416 3680 2098 
Q 3938 1781 3938 1306 
Q 3938 681 3513 340 
Q 3088 0 2303 0 
L 628 0 
L 628 4666 
z
" transform="scale(0.015625)"/>
       <path id="DejaVuSans-75" d="M 544 1381 
L 544 3500 
L 1119 3500 
L 1119 1403 
Q 1119 906 1312 657 
Q 1506 409 1894 409 
Q 2359 409 2629 706 
Q 2900 1003 2900 1516 
L 2900 3500 
L 3475 3500 
L 3475 0 
L 2900 0 
L 2900 538 
Q 2691 219 2414 64 
Q 2138 -91 1772 -91 
Q 1169 -91 856 284 
Q 544 659 544 1381 
z
M 1991 3584 
L 1991 3584 
z
" transform="scale(0.015625)"/>
       <path id="DejaVuSans-3d" d="M 678 2906 
L 4684 2906 
L 4684 2381 
L 678 2381 
L 678 2906 
z
M 678 1631 
L 4684 1631 
L 4684 1100 
L 678 1100 
L 678 1631 
z
" transform="scale(0.015625)"/>
       <path id="DejaVuSans-38" d="M 2034 2216 
Q 1584 2216 1326 1975 
Q 1069 1734 1069 1313 
Q 1069 891 1326 650 
Q 1584 409 2034 409 
Q 2484 409 2743 651 
Q 3003 894 3003 1313 
Q 3003 1734 2745 1975 
Q 2488 2216 2034 2216 
z
M 1403 2484 
Q 997 2584 770 2862 
Q 544 3141 544 3541 
Q 544 4100 942 4425 
Q 1341 4750 2034 4750 
Q 2731 4750 3128 4425 
Q 3525 4100 3525 3541 
Q 3525 3141 3298 2862 
Q 3072 2584 2669 2484 
Q 3125 2378 3379 2068 
Q 3634 1759 3634 1313 
Q 3634 634 3220 271 
Q 2806 -91 2034 -91 
Q 1263 -91 848 271 
Q 434 634 434 1313 
Q 434 1759 690 2068 
Q 947 2378 1403 2484 
z
M 1172 3481 
Q 1172 3119 1398 2916 
Q 1625 2713 2034 2713 
Q 2441 2713 2670 2916 
Q 2900 3119 2900 3481 
Q 2900 3844 2670 4047 
Q 2441 4250 2034 4250 
Q 1625 4250 1398 4047 
Q 1172 3844 1172 3481 
z
" transform="scale(0.015625)"/>
       <path id="DejaVuSans-34" d="M 2419 4116 
L 825 1625 
L 2419 1625 
L 2419 4116 
z
M 2253 4666 
L 3047 4666 
L 3047 1625 
L 3713 1625 
L 3713 1100 
L 3047 1100 
L 3047 0 
L 2419 0 
L 2419 1100 
L 313 1100 
L 313 1709 
L 2253 4666 
z
" transform="scale(0.015625)"/>
      </defs>
      <use xlink:href="#DejaVuSans-42"/>
      <use xlink:href="#DejaVuSans-75" x="68.603516"/>
      <use xlink:href="#DejaVuSans-72" x="131.982422"/>
      <use xlink:href="#DejaVuSans-6e" x="171.345703"/>
      <use xlink:href="#DejaVuSans-20" x="234.724609"/>
      <use xlink:href="#DejaVuSans-74" x="266.511719"/>
      <use xlink:href="#DejaVuSans-6f" x="305.720703"/>
      <use xlink:href="#DejaVuSans-20" x="366.902344"/>
      <use xlink:href="#DejaVuSans-65" x="398.689453"/>
      <use xlink:href="#DejaVuSans-3d" x="460.212891"/>
      <use xlink:href="#DejaVuSans-30" x="544.001953"/>
      <use xlink:href="#DejaVuSans-2e" x="607.625"/>
      <use xlink:href="#DejaVuSans-32" x="639.412109"/>
      <use xlink:href="#DejaVuSans-20" x="703.035156"/>
      <use xlink:href="#DejaVuSans-31" x="734.822266"/>
      <use xlink:href="#DejaVuSans-35" x="798.445312"/>
      <use xlink:href="#DejaVuSans-38" x="862.068359"/>
      <use xlink:href="#DejaVuSans-2e" x="925.691406"/>
      <use xlink:href="#DejaVuSans-39" x="957.478516"/>
      <use xlink:href="#DejaVuSans-34" x="1021.101562"/>
      <use xlink:href="#DejaVuSans-73" x="1084.724609"/>
     </g>
    </g>
    <g id="line2d_12">
     <path d="M 453.0496 137.639188 
L 461.8 137.639188 
" style="fill: none; stroke-dasharray: 5.55,2.4; stroke-dashoffset: 0; stroke: #800000; stroke-width: 1.5"/>
    </g>
    <g id="text_8">
     <!-- Wait for apoares -->
     <g transform="translate(481.0496 141.139188) scale(0.1 -0.1)">
      <use xlink:href="#DejaVuSans-57"/>
      <use xlink:href="#DejaVuSans-61" x="92.501953"/>
      <use xlink:href="#DejaVuSans-69" x="153.78125"/>
      <use xlink:href="#DejaVuSans-74" x="181.564453"/>
      <use xlink:href="#DejaVuSans-20" x="220.773438"/>
      <use xlink:href="#DejaVuSans-66" x="252.560547"/>
      <use xlink:href="#DejaVuSans-6f" x="287.765625"/>
      <use xlink:href="#DejaVuSans-72" x="348.947266"/>
      <use xlink:href="#DejaVuSans-20" x="390.060547"/>
      <use xlink:href="#DejaVuSans-61" x="421.847656"/>
      <use xlink:href="#DejaVuSans-70" x="483.126953"/>
      <use xlink:href="#DejaVuSans-6f" x="546.603516"/>
      <use xlink:href="#DejaVuSans-61" x="607.785156"/>
      <use xlink:href="#DejaVuSans-72" x="669.064453"/>
      <use xlink:href="#DejaVuSans-65" x="707.927734"/>
      <use xlink:href="#DejaVuSans-73" x="769.451172"/>
     </g>
    </g>
    <g id="line2d_13">
     <path d="M 453.0496 152.317313 
L 461.8 152.317313 
" style="fill: none; stroke-dasharray: 9.6,2.4,1.5,2.4; stroke-dashoffset: 0; stroke: #dc143c; stroke-width: 1.5"/>
    </g>
    <g id="text_9">
     <!-- Burn hp = 120 km 129.98s -->
     <g transform="translate(481.0496 155.817313) scale(0.1 -0.1)">
      <defs>
       <path id="DejaVuSans-68" d="M 3513 2113 
L 3513 0 
L 2938 0 
L 2938 2094 
Q 2938 2591 2744 2837 
Q 2550 3084 2163 3084 
Q 1697 3084 1428 2787 
Q 1159 2491 1159 1978 
L 1159 0 
L 581 0 
L 581 4863 
L 1159 4863 
L 1159 2956 
Q 1366 3272 1645 3428 
Q 1925 3584 2291 3584 
Q 2894 3584 3203 3211 
Q 3513 2838 3513 2113 
z
" transform="scale(0.015625)"/>
       <path id="DejaVuSans-6b" d="M 581 4863 
L 1159 4863 
L 1159 1991 
L 2875 3500 
L 3609 3500 
L 1753 1863 
L 3688 0 
L 2938 0 
L 1159 1709 
L 1159 0 
L 581 0 
L 581 4863 
z
" transform="scale(0.015625)"/>
       <path id="DejaVuSans-6d" d="M 3328 2828 
Q 3544 3216 3844 3400 
Q 4144 3584 4550 3584 
Q 5097 3584 5394 3201 
Q 5691 2819 5691 2113 
L 5691 0 
L 5113 0 
L 5113 2094 
Q 5113 2597 4934 2840 
Q 4756 3084 4391 3084 
Q 3944 3084 3684 2787 
Q 3425 2491 3425 1978 
L 3425 0 
L 2847 0 
L 2847 2094 
Q 2847 2600 2669 2842 
Q 2491 3084 2119 3084 
Q 1678 3084 1418 2786 
Q 1159 2488 1159 1978 
L 1159 0 
L 581 0 
L 581 3500 
L 1159 3500 
L 1159 2956 
Q 1356 3278 1631 3431 
Q 1906 3584 2284 3584 
Q 2666 3584 2933 3390 
Q 3200 3197 3328 2828 
z
" transform="scale(0.015625)"/>
      </defs>
      <use xlink:href="#DejaVuSans-42"/>
      <use xlink:href="#DejaVuSans-75" x="68.603516"/>
      <use xlink:href="#DejaVuSans-72" x="131.982422"/>
      <use xlink:href="#DejaVuSans-6e" x="171.345703"/>
      <use xlink:href="#DejaVuSans-20" x="234.724609"/>
      <use xlink:href="#DejaVuSans-68" x="266.511719"/>
      <use xlink:href="#DejaVuSans-70" x="329.890625"/>
      <use xlink:href="#DejaVuSans-20" x="393.367188"/>
      <use xlink:href="#DejaVuSans-3d" x="425.154297"/>
      <use xlink:href="#DejaVuSans-20" x="508.943359"/>
      <use xlink:href="#DejaVuSans-31" x="540.730469"/>
      <use xlink:href="#DejaVuSans-32" x="604.353516"/>
      <use xlink:href="#DejaVuSans-30" x="667.976562"/>
      <use xlink:href="#DejaVuSans-20" x="731.599609"/>
      <use xlink:href="#DejaVuSans-6b" x="763.386719"/>
      <use xlink:href="#DejaVuSans-6d" x="821.296875"/>
      <use xlink:href="#DejaVuSans-20" x="918.708984"/>
      <use xlink:href="#DejaVuSans-31" x="950.496094"/>
      <use xlink:href="#DejaVuSans-32" x="1014.119141"/>
      <use xlink:href="#DejaVuSans-39" x="1077.742188"/>
      <use xlink:href="#DejaVuSans-2e" x="1141.365234"/>
      <use xlink:href="#DejaVuSans-39" x="1173.152344"/>
      <use xlink:href="#DejaVuSans-38" x="1236.775391"/>
      <use xlink:href="#DejaVuSans-73" x="1300.398438"/>
     </g>
    </g>
    <g id="line2d_14">
     <path d="M 453.0496 166.995438 
L 461.8 166.995438 
" style="fill: none; stroke-dasharray: 5.55,2.4; stroke-dashoffset: 0; stroke: #ff6347; stroke-width: 1.5"/>
    </g>
    <g id="text_10">
     <!-- Aerobraking -->
     <g transform="translate(481.0496 170.495438) scale(0.1 -0.1)">
      <defs>
       <path id="DejaVuSans-41" d="M 2188 4044 
L 1331 1722 
L 3047 1722 
L 2188 4044 
z
M 1831 4666 
L 2547 4666 
L 4325 0 
L 3669 0 
L 3244 1197 
L 1141 1197 
L 716 0 
L 50 0 
L 1831 4666 
z
" transform="scale(0.015625)"/>
       <path id="DejaVuSans-62" d="M 3116 1747 
Q 3116 2381 2855 2742 
Q 2594 3103 2138 3103 
Q 1681 3103 1420 2742 
Q 1159 2381 1159 1747 
Q 1159 1113 1420 752 
Q 1681 391 2138 391 
Q 2594 391 2855 752 
Q 3116 1113 3116 1747 
z
M 1159 2969 
Q 1341 3281 1617 3432 
Q 1894 3584 2278 3584 
Q 2916 3584 3314 3078 
Q 3713 2572 3713 1747 
Q 3713 922 3314 415 
Q 2916 -91 2278 -91 
Q 1894 -91 1617 61 
Q 1341 213 1159 525 
L 1159 0 
L 581 0 
L 581 4863 
L 1159 4863 
L 1159 2969 
z
" transform="scale(0.015625)"/>
       <path id="DejaVuSans-67" d="M 2906 1791 
Q 2906 2416 2648 2759 
Q 2391 3103 1925 3103 
Q 1463 3103 1205 2759 
Q 947 2416 947 1791 
Q 947 1169 1205 825 
Q 1463 481 1925 481 
Q 2391 481 2648 825 
Q 2906 1169 2906 1791 
z
M 3481 434 
Q 3481 -459 3084 -895 
Q 2688 -1331 1869 -1331 
Q 1566 -1331 1297 -1286 
Q 1028 -1241 775 -1147 
L 775 -588 
Q 1028 -725 1275 -790 
Q 1522 -856 1778 -856 
Q 2344 -856 2625 -561 
Q 2906 -266 2906 331 
L 2906 616 
Q 2728 306 2450 153 
Q 2172 0 1784 0 
Q 1141 0 747 490 
Q 353 981 353 1791 
Q 353 2603 747 3093 
Q 1141 3584 1784 3584 
Q 2172 3584 2450 3431 
Q 2728 3278 2906 2969 
L 2906 3500 
L 3481 3500 
L 3481 434 
z
" transform="scale(0.015625)"/>
      </defs>
      <use xlink:href="#DejaVuSans-41"/>
      <use xlink:href="#DejaVuSans-65" x="66.658203"/>
      <use xlink:href="#DejaVuSans-72" x="128.181641"/>
      <use xlink:href="#DejaVuSans-6f" x="167.044922"/>
      <use xlink:href="#DejaVuSans-62" x="228.226562"/>
      <use xlink:href="#DejaVuSans-72" x="291.703125"/>
      <use xlink:href="#DejaVuSans-61" x="332.816406"/>
      <use xlink:href="#DejaVuSans-6b" x="394.095703"/>
      <use xlink:href="#DejaVuSans-69" x="452.005859"/>
      <use xlink:href="#DejaVuSans-6e" x="479.789062"/>
      <use xlink:href="#DejaVuSans-67" x="543.167969"/>
     </g>
    </g>
    <g id="Path3DCollection_6">
     <defs>
      <path id="m791fbee6ff" d="M 0 2.236068 
C 0.593012 2.236068 1.161816 2.000462 1.581139 1.581139 
C 2.000462 1.161816 2.236068 0.593012 2.236068 0 
C 2.236068 -0.593012 2.000462 -1.161816 1.581139 -1.581139 
C 1.161816 -2.000462 0.593012 -2.236068 0 -2.236068 
C -0.593012 -2.236068 -1.161816 -2.000462 -1.581139 -1.581139 
C -2.000462 -1.161816 -2.236068 -0.593012 -2.236068 0 
C -2.236068 0.593012 -2.000462 1.161816 -1.581139 1.581139 
C -1.161816 2.000462 -0.593012 2.236068 0 2.236068 
z
" style="stroke: #1f77b4"/>
     </defs>
     <g>
      <use xlink:href="#m791fbee6ff" x="463.0496" y="182.548563" style="fill: #1f77b4; stroke: #1f77b4"/>
     </g>
    </g>
    <g id="text_11">
     <!-- Spacecraft on 12/12/2023, 16:34:22 UTC -->
     <g transform="translate(481.0496 185.173563) scale(0.1 -0.1)">
      <use xlink:href="#DejaVuSans-53"/>
      <use xlink:href="#DejaVuSans-70" x="63.476562"/>
      <use xlink:href="#DejaVuSans-61" x="126.953125"/>
      <use xlink:href="#DejaVuSans-63" x="188.232422"/>
      <use xlink:href="#DejaVuSans-65" x="243.212891"/>
      <use xlink:href="#DejaVuSans-63" x="304.736328"/>
      <use xlink:href="#DejaVuSans-72" x="359.716797"/>
      <use xlink:href="#DejaVuSans-61" x="400.830078"/>
      <use xlink:href="#DejaVuSans-66" x="462.109375"/>
      <use xlink:href="#DejaVuSans-74" x="495.564453"/>
      <use xlink:href="#DejaVuSans-20" x="534.773438"/>
      <use xlink:href="#DejaVuSans-6f" x="566.560547"/>
      <use xlink:href="#DejaVuSans-6e" x="627.742188"/>
      <use xlink:href="#DejaVuSans-20" x="691.121094"/>
      <use xlink:href="#DejaVuSans-31" x="722.908203"/>
      <use xlink:href="#DejaVuSans-32" x="786.53125"/>
      <use xlink:href="#DejaVuSans-2f" x="850.154297"/>
      <use xlink:href="#DejaVuSans-31" x="883.845703"/>
      <use xlink:href="#DejaVuSans-32" x="947.46875"/>
      <use xlink:href="#DejaVuSans-2f" x="1011.091797"/>
      <use xlink:href="#DejaVuSans-32" x="1044.783203"/>
      <use xlink:href="#DejaVuSans-30" x="1108.40625"/>
      <use xlink:href="#DejaVuSans-32" x="1172.029297"/>
      <use xlink:href="#DejaVuSans-33" x="1235.652344"/>
      <use xlink:href="#DejaVuSans-2c" x="1299.275391"/>
      <use xlink:href="#DejaVuSans-20" x="1331.0625"/>
      <use xlink:href="#DejaVuSans-31" x="1362.849609"/>
      <use xlink:href="#DejaVuSans-36" x="1426.472656"/>
      <use xlink:href="#DejaVuSans-3a" x="1490.095703"/>
      <use xlink:href="#DejaVuSans-33" x="1523.787109"/>
      <use xlink:href="#DejaVuSans-34" x="1587.410156"/>
      <use xlink:href="#DejaVuSans-3a" x="1651.033203"/>
      <use xlink:href="#DejaVuSans-32" x="1684.724609"/>
      <use xlink:href="#DejaVuSans-32" x="1748.347656"/>
      <use xlink:href="#DejaVuSans-20" x="1811.970703"/>
      <use xlink:href="#DejaVuSans-55" x="1843.757812"/>
      <use xlink:href="#DejaVuSans-54" x="1916.951172"/>
      <use xlink:href="#DejaVuSans-43" x="1972.160156"/>
     </g>
    </g>
   </g>
   <g id="Path3DCollection_7">
    <defs>
     <path id="mad528f5273" d="M 0 2.236068 
C 0.593012 2.236068 1.161816 2.000462 1.581139 1.581139 
C 2.000462 1.161816 2.236068 0.593012 2.236068 0 
C 2.236068 -0.593012 2.000462 -1.161816 1.581139 -1.581139 
C 1.161816 -2.000462 0.593012 -2.236068 0 -2.236068 
C -0.593012 -2.236068 -1.161816 -2.000462 -1.581139 -1.581139 
C -2.000462 -1.161816 -2.236068 -0.593012 -2.236068 0 
C -2.236068 0.593012 -2.000462 1.161816 -1.581139 1.581139 
C -1.161816 2.000462 -0.593012 2.236068 0 2.236068 
z
" style="stroke: #dc143c"/>
    </defs>
    <g clip-path="url(#p4e08f2c6f0)">
     <use xlink:href="#mad528f5273" x="140.081811" y="161.581563" style="fill: #dc143c; stroke: #dc143c"/>
    </g>
   </g>
   <g id="Path3DCollection_8">
    <g clip-path="url(#p4e08f2c6f0)">
     <use xlink:href="#mad528f5273" x="140.033096" y="160.66653" style="fill: #dc143c; stroke: #dc143c"/>
    </g>
   </g>
   <g id="Path3DCollection_9">
    <g clip-path="url(#p4e08f2c6f0)">
     <use xlink:href="#m2a45449860" x="280.50046" y="243.260176" style="fill: #00ffff; stroke: #00ffff"/>
    </g>
   </g>
   <g id="Path3DCollection_10">
    <g clip-path="url(#p4e08f2c6f0)">
     <use xlink:href="#m2a45449860" x="280.50046" y="243.260176" style="fill: #00ffff; stroke: #00ffff"/>
    </g>
   </g>
   <g id="Path3DCollection_11">
    <g clip-path="url(#p4e08f2c6f0)">
     <use xlink:href="#m2a45449860" x="281.389686" y="242.419213" style="fill: #00ffff; stroke: #00ffff"/>
    </g>
   </g>
   <g id="Path3DCollection_12">
    <g clip-path="url(#p4e08f2c6f0)">
     <use xlink:href="#m791fbee6ff" x="233.469966" y="193.626819" style="fill: #1f77b4; stroke: #1f77b4"/>
    </g>
   </g>
   <g id="Line3DCollection_1">
    <path d="M 241.758261 196.023401 
L 233.469966 193.626819 
" clip-path="url(#p4e08f2c6f0)" style="fill: none; stroke: #1f77b4; stroke-width: 1.5"/>
    <path d="M 241.758261 196.023401 
L 239.265036 195.929256 
" clip-path="url(#p4e08f2c6f0)" style="fill: none; stroke: #1f77b4; stroke-width: 1.5"/>
    <path d="M 241.758261 196.023401 
L 239.442823 194.726831 
" clip-path="url(#p4e08f2c6f0)" style="fill: none; stroke: #1f77b4; stroke-width: 1.5"/>
   </g>
   <g id="Line3DCollection_2">
    <path d="M 255.148287 165.473535 
L 239.756108 170.931892 
" clip-path="url(#p4e08f2c6f0)" style="fill: none; stroke: #008000; stroke-width: 0.5"/>
    <path d="M 255.148287 165.473535 
L 250.708783 168.464525 
" clip-path="url(#p4e08f2c6f0)" style="fill: none; stroke: #008000; stroke-width: 0.5"/>
    <path d="M 255.148287 165.473535 
L 250.718853 165.626335 
" clip-path="url(#p4e08f2c6f0)" style="fill: none; stroke: #008000; stroke-width: 0.5"/>
   </g>
   <g id="Path3DCollection_13">
    <defs>
     <path id="m08acda5331" d="M 0 2.236068 
C 0.593012 2.236068 1.161816 2.000462 1.581139 1.581139 
C 2.000462 1.161816 2.236068 0.593012 2.236068 0 
C 2.236068 -0.593012 2.000462 -1.161816 1.581139 -1.581139 
C 1.161816 -2.000462 0.593012 -2.236068 0 -2.236068 
C -0.593012 -2.236068 -1.161816 -2.000462 -1.581139 -1.581139 
C -2.000462 -1.161816 -2.236068 -0.593012 -2.236068 0 
C -2.236068 0.593012 -2.000462 1.161816 -1.581139 1.581139 
C -1.161816 2.000462 -0.593012 2.236068 0 2.236068 
z
" style="stroke: #ff00ff"/>
    </defs>
    <g clip-path="url(#p4e08f2c6f0)">
     <use xlink:href="#m08acda5331" x="302.547711" y="205.819474" style="fill: #ff00ff; stroke: #ff00ff"/>
    </g>
   </g>
   <g id="Path3DCollection_14">
    <g clip-path="url(#p4e08f2c6f0)">
     <use xlink:href="#m08acda5331" x="302.976373" y="203.660849" style="fill: #ff00ff; stroke: #ff00ff"/>
    </g>
   </g>
   <g id="Line3DCollection_3">
    <path d="M 239.756108 152.462057 
L 239.756108 170.931892 
" clip-path="url(#p4e08f2c6f0)" style="fill: none; stroke: #0000ff; stroke-width: 0.5"/>
    <path d="M 239.756108 152.462057 
L 238.741523 157.335898 
" clip-path="url(#p4e08f2c6f0)" style="fill: none; stroke: #0000ff; stroke-width: 0.5"/>
    <path d="M 239.756108 152.462057 
L 240.772241 158.338716 
" clip-path="url(#p4e08f2c6f0)" style="fill: none; stroke: #0000ff; stroke-width: 0.5"/>
   </g>
   <g id="Line3DCollection_4">
    <path d="M 252.906221 177.555036 
L 239.756108 170.931892 
" clip-path="url(#p4e08f2c6f0)" style="fill: none; stroke: #ff0000; stroke-width: 0.5"/>
    <path d="M 252.906221 177.555036 
L 249.064632 177.055062 
" clip-path="url(#p4e08f2c6f0)" style="fill: none; stroke: #ff0000; stroke-width: 0.5"/>
    <path d="M 252.906221 177.555036 
L 249.0733 174.188354 
" clip-path="url(#p4e08f2c6f0)" style="fill: none; stroke: #ff0000; stroke-width: 0.5"/>
   </g>
   <g id="Line3DCollection_5">
    <path d="M 239.756108 147.809988 
L 245.386036 151.95797 
L 250.362484 158.45165 
L 254.056899 166.493118 
L 256.002278 175.075348 
L 255.959845 183.121503 
L 253.949769 189.634883 
L 250.241327 193.831475 
L 245.307538 195.233291 
L 239.756108 193.712292 
" clip-path="url(#p4e08f2c6f0)" style="fill: none; stroke: #1a3380; stroke-opacity: 0.2; stroke-width: 0.5"/>
    <path d="M 239.756108 147.809988 
L 247.249211 151.059211 
L 253.855385 156.743667 
L 258.749284 164.164183 
L 261.322727 172.396798 
L 261.266621 180.418071 
L 258.607496 187.243052 
L 253.694742 192.052202 
L 247.144877 194.288205 
L 239.756108 193.712292 
" clip-path="url(#p4e08f2c6f0)" style="fill: none; stroke: #1a3380; stroke-opacity: 0.2; stroke-width: 0.5"/>
    <path d="M 239.756108 147.809988 
L 248.293753 149.963041 
L 255.797013 154.666147 
L 261.341149 161.337024 
L 264.25164 169.14865 
L 264.188221 177.139674 
L 261.180693 184.339374 
L 255.614819 189.887823 
L 248.175072 193.135481 
L 239.756108 193.712292 
" clip-path="url(#p4e08f2c6f0)" style="fill: none; stroke: #1a3380; stroke-opacity: 0.2; stroke-width: 0.5"/>
    <path d="M 239.756108 147.809988 
L 248.410071 148.7896 
L 255.989793 152.448995 
L 261.575012 158.326686 
L 264.501845 165.69416 
L 264.438108 173.652924 
L 261.413551 181.247356 
L 255.806027 187.577804 
L 248.289987 191.901441 
L 239.756108 193.712292 
" clip-path="url(#p4e08f2c6f0)" style="fill: none; stroke: #1a3380; stroke-opacity: 0.2; stroke-width: 0.5"/>
    <path d="M 239.756108 147.809988 
L 247.590424 147.666212 
L 254.429984 150.33299 
L 259.456561 155.460237 
L 262.086174 162.408728 
L 262.028942 170.336724 
L 259.311406 178.302937 
L 254.264407 185.373001 
L 247.481899 190.71998 
L 239.756108 193.712292 
" clip-path="url(#p4e08f2c6f0)" style="fill: none; stroke: #1a3380; stroke-opacity: 0.2; stroke-width: 0.5"/>
    <path d="M 239.756108 147.809988 
L 245.927702 146.713525 
L 251.300832 148.543532 
L 255.24091 153.04113 
L 257.299174 159.639008 
L 257.254399 167.541 
L 255.127235 175.817879 
L 251.170919 183.508323 
L 245.842334 189.718 
L 239.756108 193.712292 
" clip-path="url(#p4e08f2c6f0)" style="fill: none; stroke: #1a3380; stroke-opacity: 0.2; stroke-width: 0.5"/>
    <path d="M 239.756108 147.809988 
L 243.603664 146.032903 
L 246.946843 147.267909 
L 249.394484 151.319441 
L 250.671806 157.669447 
L 250.644029 165.55291 
L 249.323913 174.04917 
L 246.866083 182.179009 
L 243.550498 189.002137 
L 239.756108 193.712292 
" clip-path="url(#p4e08f2c6f0)" style="fill: none; stroke: #1a3380; stroke-opacity: 0.2; stroke-width: 0.5"/>
    <path d="M 239.756108 147.809988 
L 240.8686 145.696229 
L 241.834314 146.637778 
L 242.540788 150.469813 
L 242.909281 156.698007 
L 242.901269 164.572321 
L 242.520425 173.176314 
L 241.810996 181.522334 
L 240.853236 188.648023 
L 239.756108 193.712292 
" clip-path="url(#p4e08f2c6f0)" style="fill: none; stroke: #1a3380; stroke-opacity: 0.2; stroke-width: 0.5"/>
    <path d="M 239.756108 147.809988 
L 238.014871 145.738896 
L 236.50318 146.717604 
L 235.397183 150.577414 
L 234.820264 156.821017 
L 234.832808 164.696489 
L 235.429063 173.286858 
L 236.539683 181.605523 
L 238.038921 188.692901 
L 239.756108 193.712292 
" clip-path="url(#p4e08f2c6f0)" style="fill: none; stroke: #1a3380; stroke-opacity: 0.2; stroke-width: 0.5"/>
    <path d="M 239.756108 147.809988 
L 235.346909 146.156426 
L 231.514342 147.499242 
L 228.707598 151.631496 
L 227.242605 158.026327 
L 227.274465 165.913149 
L 228.788533 174.369753 
L 231.60694 182.420084 
L 235.407847 189.132057 
L 239.756108 193.712292 
" clip-path="url(#p4e08f2c6f0)" style="fill: none; stroke: #1a3380; stroke-opacity: 0.2; stroke-width: 0.5"/>
    <path d="M 239.756108 147.809988 
L 233.150233 146.904891 
L 227.395822 148.90261 
L 223.174269 153.526191 
L 220.968329 160.194152 
L 221.016321 168.10136 
L 223.296087 176.316174 
L 227.534989 183.882505 
L 233.241635 189.91927 
L 239.756108 193.712292 
" clip-path="url(#p4e08f2c6f0)" style="fill: none; stroke: #1a3380; stroke-opacity: 0.2; stroke-width: 0.5"/>
    <path d="M 239.756108 147.809988 
L 231.662016 147.905129 
L 224.59078 150.782476 
L 219.391032 156.068599 
L 216.669844 163.105692 
L 216.729075 171.040222 
L 219.541221 178.927862 
L 224.762019 185.841363 
L 231.77418 190.971253 
L 239.756108 193.712292 
" clip-path="url(#p4e08f2c6f0)" style="fill: none; stroke: #1a3380; stroke-opacity: 0.2; stroke-width: 0.5"/>
    <path d="M 239.756108 147.809988 
L 231.045761 149.050512 
L 223.410895 152.941366 
L 217.781597 158.994594 
L 214.830498 166.460247 
L 214.894772 174.426173 
L 217.944374 181.933404 
L 223.596062 188.090813 
L 231.166675 192.175832 
L 239.756108 193.712292 
" clip-path="url(#p4e08f2c6f0)" style="fill: none; stroke: #1a3380; stroke-opacity: 0.2; stroke-width: 0.5"/>
    <path d="M 239.756108 147.809988 
L 231.372666 150.217752 
L 223.999497 155.14834 
L 218.54822 161.992655 
L 215.685365 169.901576 
L 215.747754 177.89962 
L 218.706028 185.012767 
L 224.178593 190.39019 
L 231.489249 193.403339 
L 239.756108 193.712292 
" clip-path="url(#p4e08f2c6f0)" style="fill: none; stroke: #1a3380; stroke-opacity: 0.2; stroke-width: 0.5"/>
    <path d="M 239.756108 147.809988 
L 232.612061 151.279909 
L 226.309608 157.162692 
L 221.638276 164.735158 
L 219.181039 173.053251 
L 219.234618 181.080627 
L 221.773645 187.829459 
L 226.46291 192.488726 
L 232.711569 194.520283 
L 239.756108 193.712292 
" clip-path="url(#p4e08f2c6f0)" style="fill: none; stroke: #1a3380; stroke-opacity: 0.2; stroke-width: 0.5"/>
    <path d="M 239.756108 147.809988 
L 234.632719 152.120324 
L 230.10189 158.760629 
L 226.737002 166.914879 
L 224.964701 175.560696 
L 225.003362 183.611354 
L 226.834592 190.068021 
L 230.212222 194.15334 
L 234.704172 195.404011 
L 239.756108 193.712292 
" clip-path="url(#p4e08f2c6f0)" style="fill: none; stroke: #1a3380; stroke-opacity: 0.2; stroke-width: 0.5"/>
    <path d="M 239.756108 147.809988 
L 237.215751 152.645916 
L 234.96579 159.761826 
L 233.292745 168.282476 
L 232.410831 177.135052 
L 232.430074 185.200303 
L 233.341292 191.47248 
L 235.020618 195.196267 
L 237.251208 195.956675 
L 239.756108 193.712292 
" clip-path="url(#p4e08f2c6f0)" style="fill: none; stroke: #1a3380; stroke-opacity: 0.2; stroke-width: 0.5"/>
    <path d="M 239.756108 147.809988 
L 240.078275 152.798125 
L 240.363739 160.052034 
L 240.576084 168.679159 
L 240.688044 177.591873 
L 240.6856 185.661354 
L 240.569921 191.879847 
L 240.356782 195.498564 
L 240.073777 196.116721 
L 239.756108 193.712292 
" clip-path="url(#p4e08f2c6f0)" style="fill: none; stroke: #1a3380; stroke-opacity: 0.2; stroke-width: 0.5"/>
    <path d="M 239.756108 147.809988 
L 242.90533 152.55994 
L 245.693861 159.597953 
L 247.76696 168.058532 
L 248.859609 176.877191 
L 248.835768 184.940053 
L 247.706809 191.242503 
L 245.625917 195.025566 
L 242.86138 195.866271 
L 239.756108 193.712292 
" clip-path="url(#p4e08f2c6f0)" style="fill: none; stroke: #1a3380; stroke-opacity: 0.2; stroke-width: 0.5"/>
    <path d="M 239.756108 147.809988 
L 245.386036 151.95797 
L 250.362484 158.45165 
L 254.056899 166.493118 
L 256.002278 175.075348 
L 255.959845 183.121503 
L 253.949769 189.634883 
L 250.241327 193.831475 
L 245.307538 195.233291 
L 239.756108 193.712292 
" clip-path="url(#p4e08f2c6f0)" style="fill: none; stroke: #1a3380; stroke-opacity: 0.2; stroke-width: 0.5"/>
    <path d="M 239.756108 147.809988 
L 239.756108 147.809988 
L 239.756108 147.809988 
L 239.756108 147.809988 
L 239.756108 147.809988 
L 239.756108 147.809988 
L 239.756108 147.809988 
L 239.756108 147.809988 
L 239.756108 147.809988 
L 239.756108 147.809988 
L 239.756108 147.809988 
L 239.756108 147.809988 
L 239.756108 147.809988 
L 239.756108 147.809988 
L 239.756108 147.809988 
L 239.756108 147.809988 
L 239.756108 147.809988 
L 239.756108 147.809988 
L 239.756108 147.809988 
L 239.756108 147.809988 
" clip-path="url(#p4e08f2c6f0)" style="fill: none; stroke: #1a3380; stroke-opacity: 0.2; stroke-width: 0.5"/>
    <path d="M 245.386036 151.95797 
L 247.249211 151.059211 
L 248.293753 149.963041 
L 248.410071 148.7896 
L 247.590424 147.666212 
L 245.927702 146.713525 
L 243.603664 146.032903 
L 240.8686 145.696229 
L 238.014871 145.738896 
L 235.346909 146.156426 
L 233.150233 146.904891 
L 231.662016 147.905129 
L 231.045761 149.050512 
L 231.372666 150.217752 
L 232.612061 151.279909 
L 234.632719 152.120324 
L 237.215751 152.645916 
L 240.078275 152.798125 
L 242.90533 152.55994 
L 245.386036 151.95797 
" clip-path="url(#p4e08f2c6f0)" style="fill: none; stroke: #1a3380; stroke-opacity: 0.2; stroke-width: 0.5"/>
    <path d="M 250.362484 158.45165 
L 253.855385 156.743667 
L 255.797013 154.666147 
L 255.989793 152.448995 
L 254.429984 150.33299 
L 251.300832 148.543532 
L 246.946843 147.267909 
L 241.834314 146.637778 
L 236.50318 146.717604 
L 231.514342 147.499242 
L 227.395822 148.90261 
L 224.59078 150.782476 
L 223.410895 152.941366 
L 223.999497 155.14834 
L 226.309608 157.162692 
L 230.10189 158.760629 
L 234.96579 159.761826 
L 240.363739 160.052034 
L 245.693861 159.597953 
L 250.362484 158.45165 
" clip-path="url(#p4e08f2c6f0)" style="fill: none; stroke: #1a3380; stroke-opacity: 0.2; stroke-width: 0.5"/>
    <path d="M 254.056899 166.493118 
L 258.749284 164.164183 
L 261.341149 161.337024 
L 261.575012 158.326686 
L 259.456561 155.460237 
L 255.24091 153.04113 
L 249.394484 151.319441 
L 242.540788 150.469813 
L 235.397183 150.577414 
L 228.707598 151.631496 
L 223.174269 153.526191 
L 219.391032 156.068599 
L 217.781597 158.994594 
L 218.54822 161.992655 
L 221.638276 164.735158 
L 226.737002 166.914879 
L 233.292745 168.282476 
L 240.576084 168.679159 
L 247.76696 168.058532 
L 254.056899 166.493118 
" clip-path="url(#p4e08f2c6f0)" style="fill: none; stroke: #1a3380; stroke-opacity: 0.2; stroke-width: 0.5"/>
    <path d="M 256.002278 175.075348 
L 261.322727 172.396798 
L 264.25164 169.14865 
L 264.501845 165.69416 
L 262.086174 162.408728 
L 257.299174 159.639008 
L 250.671806 157.669447 
L 242.909281 156.698007 
L 234.820264 156.821017 
L 227.242605 158.026327 
L 220.968329 160.194152 
L 216.669844 163.105692 
L 214.830498 166.460247 
L 215.685365 169.901576 
L 219.181039 173.053251 
L 224.964701 175.560696 
L 232.410831 177.135052 
L 240.688044 177.591873 
L 248.859609 176.877191 
L 256.002278 175.075348 
" clip-path="url(#p4e08f2c6f0)" style="fill: none; stroke: #1a3380; stroke-opacity: 0.2; stroke-width: 0.5"/>
    <path d="M 255.959845 183.121503 
L 261.266621 180.418071 
L 264.188221 177.139674 
L 264.438108 173.652924 
L 262.028942 170.336724 
L 257.254399 167.541 
L 250.644029 165.55291 
L 242.901269 164.572321 
L 234.832808 164.696489 
L 227.274465 165.913149 
L 221.016321 168.10136 
L 216.729075 171.040222 
L 214.894772 174.426173 
L 215.747754 177.89962 
L 219.234618 181.080627 
L 225.003362 183.611354 
L 232.430074 185.200303 
L 240.6856 185.661354 
L 248.835768 184.940053 
L 255.959845 183.121503 
" clip-path="url(#p4e08f2c6f0)" style="fill: none; stroke: #1a3380; stroke-opacity: 0.2; stroke-width: 0.5"/>
    <path d="M 253.949769 189.634883 
L 258.607496 187.243052 
L 261.180693 184.339374 
L 261.413551 181.247356 
L 259.311406 178.302937 
L 255.127235 175.817879 
L 249.323913 174.04917 
L 242.520425 173.176314 
L 235.429063 173.286858 
L 228.788533 174.369753 
L 223.296087 176.316174 
L 219.541221 178.927862 
L 217.944374 181.933404 
L 218.706028 185.012767 
L 221.773645 187.829459 
L 226.834592 190.068021 
L 233.341292 191.47248 
L 240.569921 191.879847 
L 247.706809 191.242503 
L 253.949769 189.634883 
" clip-path="url(#p4e08f2c6f0)" style="fill: none; stroke: #1a3380; stroke-opacity: 0.2; stroke-width: 0.5"/>
    <path d="M 250.241327 193.831475 
L 253.694742 192.052202 
L 255.614819 189.887823 
L 255.806027 187.577804 
L 254.264407 185.373001 
L 251.170919 183.508323 
L 246.866083 182.179009 
L 241.810996 181.522334 
L 236.539683 181.605523 
L 231.60694 182.420084 
L 227.534989 183.882505 
L 224.762019 185.841363 
L 223.596062 188.090813 
L 224.178593 190.39019 
L 226.46291 192.488726 
L 230.212222 194.15334 
L 235.020618 195.196267 
L 240.356782 195.498564 
L 245.625917 195.025566 
L 250.241327 193.831475 
" clip-path="url(#p4e08f2c6f0)" style="fill: none; stroke: #1a3380; stroke-opacity: 0.2; stroke-width: 0.5"/>
    <path d="M 245.307538 195.233291 
L 247.144877 194.288205 
L 248.175072 193.135481 
L 248.289987 191.901441 
L 247.481899 190.71998 
L 245.842334 189.718 
L 243.550498 189.002137 
L 240.853236 188.648023 
L 238.038921 188.692901 
L 235.407847 189.132057 
L 233.241635 189.91927 
L 231.77418 190.971253 
L 231.166675 192.175832 
L 231.489249 193.403339 
L 232.711569 194.520283 
L 234.704172 195.404011 
L 237.251208 195.956675 
L 240.073777 196.116721 
L 242.86138 195.866271 
L 245.307538 195.233291 
" clip-path="url(#p4e08f2c6f0)" style="fill: none; stroke: #1a3380; stroke-opacity: 0.2; stroke-width: 0.5"/>
    <path d="M 239.756108 193.712292 
L 239.756108 193.712292 
L 239.756108 193.712292 
L 239.756108 193.712292 
L 239.756108 193.712292 
L 239.756108 193.712292 
L 239.756108 193.712292 
L 239.756108 193.712292 
L 239.756108 193.712292 
L 239.756108 193.712292 
L 239.756108 193.712292 
L 239.756108 193.712292 
L 239.756108 193.712292 
L 239.756108 193.712292 
L 239.756108 193.712292 
L 239.756108 193.712292 
L 239.756108 193.712292 
L 239.756108 193.712292 
L 239.756108 193.712292 
L 239.756108 193.712292 
" clip-path="url(#p4e08f2c6f0)" style="fill: none; stroke: #1a3380; stroke-opacity: 0.2; stroke-width: 0.5"/>
   </g>
  </g>
 </g>
 <defs>
  <clipPath id="p4e08f2c6f0">
   <rect x="103.104" y="41.472" width="266.112" height="266.112"/>
  </clipPath>
 </defs>
</svg>
