<?xml version="1.0" encoding="utf-8" standalone="no"?>
<!DOCTYPE svg PUBLIC "-//W3C//DTD SVG 1.1//EN"
  "http://www.w3.org/Graphics/SVG/1.1/DTD/svg11.dtd">
<svg xmlns:xlink="http://www.w3.org/1999/xlink" width="460.8pt" height="345.6pt" viewBox="0 0 460.8 345.6" xmlns="http://www.w3.org/2000/svg" version="1.1">
 <metadata>
  <rdf:RDF xmlns:dc="http://purl.org/dc/elements/1.1/" xmlns:cc="http://creativecommons.org/ns#" xmlns:rdf="http://www.w3.org/1999/02/22-rdf-syntax-ns#">
   <cc:Work>
    <dc:type rdf:resource="http://purl.org/dc/dcmitype/StillImage"/>
    <dc:date>2023-12-10T17:50:49.193465</dc:date>
    <dc:format>image/svg+xml</dc:format>
    <dc:creator>
     <cc:Agent>
      <dc:title>Matplotlib v3.8.0, https://matplotlib.org/</dc:title>
     </cc:Agent>
    </dc:creator>
   </cc:Work>
  </rdf:RDF>
 </metadata>
 <defs>
  <style type="text/css">*{stroke-linejoin: round; stroke-linecap: butt}</style>
 </defs>
 <g id="figure_1">
  <g id="patch_1">
   <path d="M 0 345.6 
L 460.8 345.6 
L 460.8 0 
L 0 0 
z
" style="fill: #ffffff"/>
  </g>
  <g id="axes_1">
   <g id="patch_2">
    <path d="M 57.6 307.584 
L 414.72 307.584 
L 414.72 41.472 
L 57.6 41.472 
z
" style="fill: #ffffff"/>
   </g>
   <g id="patch_3">
    <path d="M 57.6 307.584 
L 57.6 41.472 
" style="fill: none; stroke: #000000; stroke-width: 0.8; stroke-linejoin: miter; stroke-linecap: square"/>
   </g>
   <g id="patch_4">
    <path d="M 414.72 307.584 
L 414.72 41.472 
" style="fill: none; stroke: #000000; stroke-width: 0.8; stroke-linejoin: miter; stroke-linecap: square"/>
   </g>
   <g id="patch_5">
    <path d="M 57.6 307.584 
L 414.72 307.584 
" style="fill: none; stroke: #000000; stroke-width: 0.8; stroke-linejoin: miter; stroke-linecap: square"/>
   </g>
   <g id="patch_6">
    <path d="M 57.6 41.472 
L 414.72 41.472 
" style="fill: none; stroke: #000000; stroke-width: 0.8; stroke-linejoin: miter; stroke-linecap: square"/>
   </g>
   <g id="text_1">
    <!-- Trajectory Plot -->
    <g transform="translate(193.322812 35.472) scale(0.12 -0.12)">
     <defs>
      <path id="DejaVuSans-54" d="M -19 4666 
L 3928 4666 
L 3928 4134 
L 2272 4134 
L 2272 0 
L 1638 0 
L 1638 4134 
L -19 4134 
L -19 4666 
z
" transform="scale(0.015625)"/>
      <path id="DejaVuSans-72" d="M 2631 2963 
Q 2534 3019 2420 3045 
Q 2306 3072 2169 3072 
Q 1681 3072 1420 2755 
Q 1159 2438 1159 1844 
L 1159 0 
L 581 0 
L 581 3500 
L 1159 3500 
L 1159 2956 
Q 1341 3275 1631 3429 
Q 1922 3584 2338 3584 
Q 2397 3584 2469 3576 
Q 2541 3569 2628 3553 
L 2631 2963 
z
" transform="scale(0.015625)"/>
      <path id="DejaVuSans-61" d="M 2194 1759 
Q 1497 1759 1228 1600 
Q 959 1441 959 1056 
Q 959 750 1161 570 
Q 1363 391 1709 391 
Q 2188 391 2477 730 
Q 2766 1069 2766 1631 
L 2766 1759 
L 2194 1759 
z
M 3341 1997 
L 3341 0 
L 2766 0 
L 2766 531 
Q 2569 213 2275 61 
Q 1981 -91 1556 -91 
Q 1019 -91 701 211 
Q 384 513 384 1019 
Q 384 1609 779 1909 
Q 1175 2209 1959 2209 
L 2766 2209 
L 2766 2266 
Q 2766 2663 2505 2880 
Q 2244 3097 1772 3097 
Q 1472 3097 1187 3025 
Q 903 2953 641 2809 
L 641 3341 
Q 956 3463 1253 3523 
Q 1550 3584 1831 3584 
Q 2591 3584 2966 3190 
Q 3341 2797 3341 1997 
z
" transform="scale(0.015625)"/>
      <path id="DejaVuSans-6a" d="M 603 3500 
L 1178 3500 
L 1178 -63 
Q 1178 -731 923 -1031 
Q 669 -1331 103 -1331 
L -116 -1331 
L -116 -844 
L 38 -844 
Q 366 -844 484 -692 
Q 603 -541 603 -63 
L 603 3500 
z
M 603 4863 
L 1178 4863 
L 1178 4134 
L 603 4134 
L 603 4863 
z
" transform="scale(0.015625)"/>
      <path id="DejaVuSans-65" d="M 3597 1894 
L 3597 1613 
L 953 1613 
Q 991 1019 1311 708 
Q 1631 397 2203 397 
Q 2534 397 2845 478 
Q 3156 559 3463 722 
L 3463 178 
Q 3153 47 2828 -22 
Q 2503 -91 2169 -91 
Q 1331 -91 842 396 
Q 353 884 353 1716 
Q 353 2575 817 3079 
Q 1281 3584 2069 3584 
Q 2775 3584 3186 3129 
Q 3597 2675 3597 1894 
z
M 3022 2063 
Q 3016 2534 2758 2815 
Q 2500 3097 2075 3097 
Q 1594 3097 1305 2825 
Q 1016 2553 972 2059 
L 3022 2063 
z
" transform="scale(0.015625)"/>
      <path id="DejaVuSans-63" d="M 3122 3366 
L 3122 2828 
Q 2878 2963 2633 3030 
Q 2388 3097 2138 3097 
Q 1578 3097 1268 2742 
Q 959 2388 959 1747 
Q 959 1106 1268 751 
Q 1578 397 2138 397 
Q 2388 397 2633 464 
Q 2878 531 3122 666 
L 3122 134 
Q 2881 22 2623 -34 
Q 2366 -91 2075 -91 
Q 1284 -91 818 406 
Q 353 903 353 1747 
Q 353 2603 823 3093 
Q 1294 3584 2113 3584 
Q 2378 3584 2631 3529 
Q 2884 3475 3122 3366 
z
" transform="scale(0.015625)"/>
      <path id="DejaVuSans-74" d="M 1172 4494 
L 1172 3500 
L 2356 3500 
L 2356 3053 
L 1172 3053 
L 1172 1153 
Q 1172 725 1289 603 
Q 1406 481 1766 481 
L 2356 481 
L 2356 0 
L 1766 0 
Q 1100 0 847 248 
Q 594 497 594 1153 
L 594 3053 
L 172 3053 
L 172 3500 
L 594 3500 
L 594 4494 
L 1172 4494 
z
" transform="scale(0.015625)"/>
      <path id="DejaVuSans-6f" d="M 1959 3097 
Q 1497 3097 1228 2736 
Q 959 2375 959 1747 
Q 959 1119 1226 758 
Q 1494 397 1959 397 
Q 2419 397 2687 759 
Q 2956 1122 2956 1747 
Q 2956 2369 2687 2733 
Q 2419 3097 1959 3097 
z
M 1959 3584 
Q 2709 3584 3137 3096 
Q 3566 2609 3566 1747 
Q 3566 888 3137 398 
Q 2709 -91 1959 -91 
Q 1206 -91 779 398 
Q 353 888 353 1747 
Q 353 2609 779 3096 
Q 1206 3584 1959 3584 
z
" transform="scale(0.015625)"/>
      <path id="DejaVuSans-79" d="M 2059 -325 
Q 1816 -950 1584 -1140 
Q 1353 -1331 966 -1331 
L 506 -1331 
L 506 -850 
L 844 -850 
Q 1081 -850 1212 -737 
Q 1344 -625 1503 -206 
L 1606 56 
L 191 3500 
L 800 3500 
L 1894 763 
L 2988 3500 
L 3597 3500 
L 2059 -325 
z
" transform="scale(0.015625)"/>
      <path id="DejaVuSans-20" transform="scale(0.015625)"/>
      <path id="DejaVuSans-50" d="M 1259 4147 
L 1259 2394 
L 2053 2394 
Q 2494 2394 2734 2622 
Q 2975 2850 2975 3272 
Q 2975 3691 2734 3919 
Q 2494 4147 2053 4147 
L 1259 4147 
z
M 628 4666 
L 2053 4666 
Q 2838 4666 3239 4311 
Q 3641 3956 3641 3272 
Q 3641 2581 3239 2228 
Q 2838 1875 2053 1875 
L 1259 1875 
L 1259 0 
L 628 0 
L 628 4666 
z
" transform="scale(0.015625)"/>
      <path id="DejaVuSans-6c" d="M 603 4863 
L 1178 4863 
L 1178 0 
L 603 0 
L 603 4863 
z
" transform="scale(0.015625)"/>
     </defs>
     <use xlink:href="#DejaVuSans-54"/>
     <use xlink:href="#DejaVuSans-72" x="46.333984"/>
     <use xlink:href="#DejaVuSans-61" x="87.447266"/>
     <use xlink:href="#DejaVuSans-6a" x="148.726562"/>
     <use xlink:href="#DejaVuSans-65" x="176.509766"/>
     <use xlink:href="#DejaVuSans-63" x="238.033203"/>
     <use xlink:href="#DejaVuSans-74" x="293.013672"/>
     <use xlink:href="#DejaVuSans-6f" x="332.222656"/>
     <use xlink:href="#DejaVuSans-72" x="393.404297"/>
     <use xlink:href="#DejaVuSans-79" x="434.517578"/>
     <use xlink:href="#DejaVuSans-20" x="493.697266"/>
     <use xlink:href="#DejaVuSans-50" x="525.484375"/>
     <use xlink:href="#DejaVuSans-6c" x="585.787109"/>
     <use xlink:href="#DejaVuSans-6f" x="613.570312"/>
     <use xlink:href="#DejaVuSans-74" x="674.751953"/>
    </g>
   </g>
  </g>
  <g id="patch_7">
   <path d="M 103.104 307.584 
L 369.216 307.584 
L 369.216 41.472 
L 103.104 41.472 
z
" style="fill: #ffffff"/>
  </g>
  <g id="axes_2">
   <g id="line2d_1">
    <path d="M 180.985024 293.257594 
L 182.632517 292.076803 
L 184.285113 290.891742 
L 185.942842 289.702359 
L 187.605737 288.508597 
L 189.273829 287.310399 
L 190.947149 286.107704 
L 192.625732 284.900451 
L 194.309607 283.688573 
L 195.998808 282.472002 
L 197.693368 281.250668 
L 199.393317 280.024495 
L 201.09869 278.793407 
L 202.809516 277.557321 
L 204.525829 276.316152 
L 206.24766 275.06981 
L 207.975039 273.818202 
L 209.707996 272.561227 
L 211.446561 271.298782 
L 213.190763 270.030757 
L 214.940627 268.757037 
L 216.696181 267.477498 
L 218.457447 266.192012 
L 220.224448 264.900443 
L 221.997202 263.602645 
L 223.775726 262.298466 
L 225.560033 260.987743 
" clip-path="url(#pbf9d57046b)" style="fill: none; stroke-dasharray: 5.55,2.4; stroke-dashoffset: 0; stroke: #ff8c00; stroke-width: 1.5"/>
   </g>
   <g id="line2d_2">
    <path d="M 225.560033 260.987743 
L 241.995259 248.765378 
L 253.067638 240.26853 
L 260.999031 233.913345 
L 266.723743 229.054737 
L 270.534717 225.569256 
L 270.534717 225.569256 
" clip-path="url(#pbf9d57046b)" style="fill: none; stroke-dasharray: 9.6,2.4,1.5,2.4; stroke-dashoffset: 0; stroke: #00ffff; stroke-width: 1.5"/>
   </g>
   <g id="line2d_3">
    <path d="M 271.200009 224.922935 
L 273.812527 222.198392 
L 276.18717 219.407994 
L 278.374593 216.491727 
L 280.309217 213.540374 
L 281.991721 210.578106 
L 283.469338 207.536308 
L 284.735604 204.427914 
L 285.786501 201.267834 
L 286.620882 198.072722 
L 286.833613 197.088579 
L 286.833613 197.088579 
" clip-path="url(#pbf9d57046b)" style="fill: none; stroke-dasharray: 5.55,2.4; stroke-dashoffset: 0; stroke: #f08080; stroke-width: 1.5"/>
   </g>
   <g id="line2d_4">
    <path d="M 286.833613 197.088579 
L 287.138022 195.461378 
L 287.138022 195.461378 
" clip-path="url(#pbf9d57046b)" style="fill: none; stroke-dasharray: 9.6,2.4,1.5,2.4; stroke-dashoffset: 0; stroke: #ff00ff; stroke-width: 1.5"/>
   </g>
   <g id="line2d_5">
    <path d="M 287.138022 195.461378 
L 287.493418 192.66709 
L 287.640963 189.767755 
L 287.569768 186.772072 
L 287.269964 183.690459 
L 286.733041 180.5351 
L 285.952196 177.31994 
L 284.962353 174.17355 
L 283.690464 170.887846 
L 282.167767 167.592973 
L 280.397316 164.308412 
L 278.385156 161.054313 
L 276.140337 157.851078 
L 273.674819 154.718912 
L 271.003261 151.677363 
L 268.040919 148.645922 
L 264.897414 145.749943 
L 261.595536 143.006087 
L 258.042612 140.345734 
L 254.37306 137.875952 
L 250.491299 135.536883 
L 246.542737 133.419068 
L 242.554898 131.526985 
L 238.428556 129.813865 
L 234.313803 128.341392 
L 230.111201 127.072213 
L 225.968433 126.048534 
L 221.787117 125.242758 
L 217.708496 124.678452 
L 213.636683 124.338013 
L 209.703543 124.227962 
L 205.817198 124.340703 
L 202.095813 124.667977 
L 198.440598 125.214638 
L 194.976352 125.957991 
L 191.706507 126.88273 
L 188.554657 128.005025 
L 185.610005 129.287827 
L 182.804366 130.7553 
L 180.214185 132.362105 
L 177.836839 134.094657 
L 175.617512 135.987744 
L 173.614286 137.98686 
L 171.781598 140.132284 
L 170.165876 142.364686 
L 168.730903 144.728878 
L 167.511931 147.16178 
L 166.482055 149.711808 
L 165.649736 152.372716 
L 165.034215 155.077213 
L 164.622228 157.877194 
L 164.420966 160.765464 
L 164.417423 163.176622 
L 164.417423 163.176622 
" clip-path="url(#pbf9d57046b)" style="fill: none; stroke-dasharray: 5.55,2.4; stroke-dashoffset: 0; stroke: #800000; stroke-width: 1.5"/>
   </g>
   <g id="line2d_6">
    <path d="M 164.417423 163.176622 
L 164.417612 163.18323 
L 164.417803 163.189824 
L 164.417993 163.196404 
L 164.418185 163.202969 
L 164.418377 163.20952 
L 164.41857 163.216057 
L 164.418764 163.222579 
L 164.418958 163.229086 
L 164.419153 163.23558 
L 164.419348 163.242058 
L 164.419544 163.248522 
L 164.419741 163.254972 
L 164.419938 163.261407 
L 164.420136 163.267827 
L 164.420335 163.274233 
L 164.420534 163.280624 
L 164.420734 163.287001 
L 164.420934 163.293363 
L 164.421135 163.299711 
L 164.421337 163.306043 
L 164.421539 163.312361 
L 164.421742 163.318665 
L 164.421946 163.324954 
L 164.42215 163.331228 
L 164.422355 163.337487 
L 164.42256 163.343731 
L 164.422766 163.349961 
L 164.422972 163.356176 
L 164.423179 163.362376 
L 164.423387 163.368561 
L 164.423595 163.374731 
L 164.423804 163.380887 
L 164.424013 163.387028 
L 164.424223 163.393153 
L 164.424433 163.399264 
L 164.424644 163.40536 
L 164.424856 163.411441 
L 164.425068 163.417507 
L 164.425281 163.423558 
L 164.425494 163.429594 
L 164.425708 163.435615 
L 164.425922 163.441621 
L 164.426137 163.447612 
L 164.426352 163.453588 
L 164.426568 163.459548 
L 164.426785 163.465494 
L 164.427002 163.471425 
L 164.427219 163.47734 
L 164.427437 163.48324 
L 164.427656 163.489125 
L 164.427875 163.494995 
L 164.428094 163.500849 
L 164.428314 163.506689 
L 164.428535 163.512513 
L 164.428756 163.518322 
L 164.428977 163.524115 
L 164.429199 163.529893 
L 164.429422 163.535656 
L 164.429645 163.541404 
L 164.429868 163.547136 
L 164.430092 163.552853 
L 164.430316 163.558554 
L 164.430541 163.56424 
L 164.430766 163.56991 
L 164.430992 163.575565 
L 164.431218 163.581205 
L 164.431445 163.586829 
L 164.431672 163.592438 
L 164.4319 163.598031 
L 164.432128 163.603608 
L 164.432356 163.60917 
L 164.432585 163.614716 
L 164.432814 163.620247 
L 164.433044 163.625762 
L 164.433274 163.631262 
L 164.433504 163.636745 
L 164.433735 163.642213 
L 164.433967 163.647666 
L 164.434198 163.653102 
L 164.43443 163.658523 
L 164.434663 163.663928 
L 164.434896 163.669318 
L 164.435129 163.674691 
L 164.435363 163.680049 
L 164.435597 163.685391 
L 164.435831 163.690717 
L 164.436066 163.696027 
L 164.436301 163.701321 
L 164.436537 163.706599 
L 164.436773 163.711861 
L 164.437009 163.717108 
L 164.437246 163.722338 
L 164.437483 163.727553 
L 164.43772 163.732751 
L 164.437957 163.737933 
L 164.438195 163.7431 
L 164.438434 163.74825 
L 164.438672 163.753384 
L 164.438911 163.758502 
L 164.43915 163.763603 
L 164.43939 163.768689 
L 164.43963 163.773758 
L 164.43987 163.778812 
L 164.44011 163.783849 
L 164.440351 163.788869 
L 164.440592 163.793874 
L 164.440834 163.798862 
L 164.441075 163.803834 
L 164.441317 163.808789 
L 164.441559 163.813729 
L 164.441802 163.818651 
L 164.442044 163.823558 
L 164.442287 163.828448 
L 164.44253 163.833321 
L 164.442774 163.838178 
L 164.443017 163.843019 
L 164.443261 163.847843 
L 164.443505 163.852651 
L 164.44375 163.857442 
L 164.443994 163.862216 
L 164.444239 163.866974 
" clip-path="url(#pbf9d57046b)" style="fill: none; stroke-dasharray: 9.6,2.4,1.5,2.4; stroke-dashoffset: 0; stroke: #dc143c; stroke-width: 1.5"/>
   </g>
   <g id="line2d_7">
    <path d="M 164.444239 163.866974 
L 164.673448 166.084558 
L 165.129719 168.311409 
L 165.808578 170.540994 
L 166.706328 172.766961 
L 167.82 174.983042 
L 169.147323 177.182947 
L 170.686694 179.360266 
L 172.437166 181.508359 
L 174.815995 184.037626 
L 177.499071 186.501711 
L 180.488379 188.886209 
L 183.215738 190.80082 
L 186.16063 192.638181 
L 189.326283 194.386049 
L 192.716525 196.030244 
L 196.33573 197.554104 
L 200.188709 198.937775 
L 204.280515 200.15723 
L 208.616071 201.182929 
L 212.262852 201.83946 
L 216.069611 202.325083 
L 220.036201 202.61096 
L 224.159961 202.6611 
L 227.35197 202.517016 
L 230.623165 202.191045 
L 233.964667 201.654023 
L 237.362399 200.870019 
L 240.794314 199.794386 
L 243.084952 198.888266 
L 245.361286 197.80815 
L 247.603631 196.53104 
L 249.785392 195.030545 
L 251.870662 193.276936 
L 253.81118 191.237884 
L 255.542859 188.880584 
L 256.305236 187.573269 
L 256.982711 186.176359 
L 257.561847 184.688295 
L 258.028266 183.109096 
L 258.367063 181.440858 
L 258.563453 179.688273 
L 258.60364 177.859072 
L 258.475885 175.964294 
L 258.171648 174.018232 
L 257.686149 172.035973 
L 257.027501 170.061163 
L 256.205748 168.121223 
L 255.220763 166.207859 
L 254.085832 164.336757 
L 252.817702 162.523583 
L 251.434603 160.781109 
L 249.954832 159.118695 
L 246.778734 156.060687 
L 243.418635 153.374179 
L 239.977121 151.054873 
L 236.529449 149.081504 
L 233.127978 147.42498 
L 229.807654 146.054054 
L 226.590892 144.93839 
L 223.491362 144.050014 
L 220.516754 143.363825 
L 216.29628 142.66586 
L 212.366364 142.309843 
L 208.721415 142.243672 
L 205.352076 142.424659 
L 202.247312 142.81763 
L 199.395584 143.393389 
L 196.785484 144.127499 
L 194.406085 144.999332 
L 192.247101 145.991333 
L 190.298958 147.088432 
L 188.552812 148.277592 
L 187.000523 149.547443 
L 185.634626 150.887997 
L 184.448289 152.290412 
L 183.135105 154.243011 
L 182.116784 156.275113 
L 181.381565 158.37219 
L 180.919082 160.521301 
L 180.720235 162.710761 
L 180.777066 164.929861 
L 181.082659 167.168636 
L 181.631053 169.41766 
L 182.417166 171.667867 
L 183.436731 173.910386 
L 184.68624 176.136376 
L 186.162895 178.336872 
L 187.864561 180.502609 
L 189.789726 182.623843 
L 191.937453 184.690147 
L 194.307328 186.690164 
L 196.899398 188.611326 
L 199.714077 190.439492 
L 202.752021 192.15851 
L 206.013941 193.749643 
L 209.500305 195.190826 
L 213.210893 196.455677 
L 217.144068 197.512169 
L 220.237636 198.144388 
L 223.450826 198.617177 
L 226.778244 198.906382 
L 230.211374 198.98286 
L 233.737001 198.811143 
L 237.334812 198.347715 
L 239.758674 197.850675 
L 242.188087 197.18145 
L 244.605708 196.318282 
L 246.988411 195.236313 
L 249.305368 193.907514 
L 251.515604 192.301049 
L 253.565078 190.384509 
L 255.383674 188.126734 
L 256.179535 186.861747 
L 256.883172 185.503217 
L 257.480914 184.050597 
L 257.958452 182.505092 
L 258.301316 180.87011 
L 258.495551 179.151685 
L 258.528563 177.3588 
L 258.390092 175.503506 
L 258.073173 173.600681 
L 257.561798 171.61787 
L 256.860526 169.578359 
L 255.994899 167.569466 
L 254.96953 165.588948 
L 253.800743 163.654996 
L 252.506853 161.782103 
L 251.107112 159.981438 
L 248.064942 156.625163 
L 244.809601 153.615447 
L 241.446948 150.948784 
L 238.052917 148.603572 
L 234.679 146.550577 
L 231.358705 144.759029 
L 228.113029 143.199668 
L 223.410256 141.238926 
L 218.922912 139.665496 
L 214.65597 138.41757 
L 210.606266 137.445405 
L 206.7666 136.70886 
L 201.958071 136.037816 
L 197.484044 135.666705 
L 193.322143 135.547492 
L 189.451462 135.642135 
L 185.852917 135.920052 
L 181.711353 136.48763 
L 177.938384 137.263543 
L 174.507978 138.21626 
L 171.3974 139.32014 
L 168.586745 140.554037 
L 166.058539 141.900286 
L 163.797386 143.343962 
L 161.789686 144.872313 
L 160.023393 146.474339 
L 158.48781 148.140459 
L 157.173427 149.862253 
L 156.071776 151.632253 
L 155.175316 153.443781 
L 154.477333 155.290814 
L 153.971856 157.167867 
L 153.653588 159.069908 
L 153.512229 161.378792 
L 153.626713 163.709457 
L 153.991082 166.054881 
L 154.600369 168.408396 
L 155.450526 170.763569 
L 156.538382 173.114091 
L 157.861602 175.45368 
L 159.418661 177.77597 
L 161.208837 180.074401 
L 163.232202 182.342105 
L 165.489631 184.571766 
L 167.982823 186.755468 
L 170.714319 188.88451 
L 173.687544 190.949178 
L 176.906844 192.938467 
L 180.377535 194.839717 
L 184.105949 196.638144 
L 188.099469 198.316225 
L 192.366538 199.852852 
L 196.916606 201.222173 
L 200.931907 202.212451 
L 205.15705 203.041131 
L 209.598078 203.679462 
L 214.260243 204.091168 
L 218.151511 204.226463 
L 222.186385 204.15678 
L 226.361841 203.843801 
L 229.581098 203.420343 
L 232.868634 202.806641 
L 236.213872 201.970576 
L 239.599827 200.872145 
L 242.999505 199.461107 
L 245.253336 198.316086 
L 247.476347 196.981629 
L 249.643443 195.431497 
L 251.720395 193.635811 
L 253.660682 191.561609 
L 255.401776 189.174755 
L 256.172808 187.854102 
L 256.861616 186.444342 
L 257.454676 184.943498 
L 257.93741 183.351139 
L 258.294585 181.668909 
L 258.510979 179.901092 
L 258.572279 178.055101 
L 258.466221 176.141786 
L 258.183809 174.175403 
L 257.718591 172.165791 
L 257.073324 170.137566 
L 256.255966 168.121372 
L 255.273872 166.124942 
L 254.143832 164.170482 
L 252.883751 162.273332 
L 251.51281 160.44553 
L 248.514176 157.029469 
L 245.286475 153.956601 
L 241.939314 151.22639 
L 238.551817 148.81865 
L 235.177824 146.704635 
L 231.852468 144.853602 
L 228.597823 143.23613 
L 223.875775 141.190316 
L 219.363428 139.533715 
L 215.066598 138.203979 
L 210.982629 137.150983 
L 207.104647 136.334329 
L 202.239116 135.557326 
L 197.701685 135.081037 
L 193.469782 134.857317 
L 189.52378 134.848152 
L 185.844273 135.022936 
L 181.593851 135.462617 
L 177.703806 136.111873 
L 174.148367 136.939304 
L 170.905021 137.919403 
L 167.954047 139.031164 
L 165.278117 140.257062 
L 162.861952 141.582308 
L 160.692035 142.994291 
L 158.756377 144.482153 
L 157.044309 146.036458 
L 155.546324 147.648935 
L 154.25393 149.312274 
L 152.963808 151.366299 
L 151.947096 153.474559 
L 151.193977 155.627465 
L 150.695409 157.817357 
L 150.443693 160.036953 
L 150.432174 162.279548 
L 150.65515 164.53889 
L 151.107794 166.809069 
L 151.786098 169.084422 
L 152.686827 171.359447 
L 153.807478 173.628714 
L 155.14626 175.886789 
L 156.702078 178.128144 
L 158.791 180.714302 
L 161.175341 183.260377 
L 163.856938 185.756073 
L 166.838971 188.19006 
L 170.126029 190.549632 
L 173.724187 192.820265 
L 177.061698 194.682988 
L 180.639193 196.455528 
L 184.463456 198.123252 
L 188.542274 199.668733 
L 192.884454 201.070892 
L 197.499759 202.303815 
L 201.56207 203.178826 
L 205.827659 203.890573 
L 210.302628 204.409976 
L 214.992209 204.700241 
L 218.900606 204.736043 
L 222.948134 204.564134 
L 227.131386 204.145303 
L 230.3529 203.639315 
L 233.639086 202.939555 
L 236.978589 202.012869 
L 240.353174 200.817849 
L 243.733817 199.302366 
L 245.969131 198.082147 
L 248.167299 196.667008 
L 250.301161 195.029723 
L 252.333613 193.139439 
L 254.21424 190.962499 
L 255.875467 188.464888 
L 256.597149 187.08634 
L 257.229314 185.617613 
L 257.757764 184.057491 
L 258.16743 182.406609 
L 258.44292 180.66801 
L 258.56933 178.847696 
L 258.533304 176.955034 
L 258.324261 175.002898 
L 257.935516 173.006996 
L 257.385512 171.061327 
L 256.674009 169.165618 
L 255.791883 167.283723 
L 254.751044 165.433511 
L 253.566693 163.632698 
L 252.255341 161.895287 
L 250.835583 160.23386 
L 249.325256 158.65693 
L 246.102111 155.779192 
L 242.71135 153.285271 
L 239.253406 151.171215 
L 235.803303 149.416811 
L 232.414373 147.993838 
L 229.123057 146.871397 
L 225.953331 146.018962 
L 222.920251 145.407932 
L 220.032625 145.012284 
L 217.294941 144.808727 
L 214.708741 144.776597 
L 211.11212 145.010489 
L 207.848459 145.536703 
L 204.907672 146.311363 
L 202.278098 147.297826 
L 199.947613 148.465266 
L 197.904262 149.787535 
L 196.136607 151.242249 
L 194.633906 152.81007 
L 193.38619 154.47413 
L 192.384285 156.21957 
L 191.619803 158.033162 
L 191.085111 159.903012 
L 190.77329 161.818297 
L 190.678097 163.76906 
L 190.793918 165.746024 
L 191.115727 167.740436 
L 191.639045 169.743923 
L 192.359899 171.748362 
L 193.274785 173.745761 
L 194.380628 175.728133 
L 195.674744 177.687382 
L 197.154799 179.615172 
L 198.818762 181.502793 
L 200.664853 183.341011 
L 202.691475 185.119899 
L 204.897134 186.828633 
L 207.28033 188.455259 
L 209.839412 189.986403 
L 212.572378 191.406926 
L 215.476597 192.699484 
L 218.548419 193.843978 
L 221.782599 194.816868 
L 225.171475 195.590287 
L 228.703748 196.130918 
L 232.362643 196.39857 
L 234.860355 196.40165 
L 237.393225 196.244892 
L 239.9478 195.908845 
L 242.506399 195.371342 
L 245.045756 194.607289 
L 247.535271 193.588625 
L 249.934807 192.28469 
L 252.192114 190.663348 
L 254.240159 188.693425 
L 255.160208 187.569333 
L 255.995211 186.349274 
L 256.732168 185.032136 
L 257.357355 183.618265 
L 257.856681 182.109864 
L 258.216186 180.511375 
L 258.422711 178.829819 
L 258.464685 177.075017 
L 258.332991 175.259616 
L 258.021756 173.39864 
L 257.536773 171.537934 
L 256.887741 169.720478 
L 256.074023 167.932854 
L 255.09503 166.168603 
L 253.964978 164.448045 
L 252.69879 162.786897 
L 251.312809 161.198558 
L 249.824256 159.694167 
L 248.250566 158.282525 
L 246.608821 156.970137 
L 243.185213 154.658718 
L 239.669354 152.773697 
L 236.155392 151.307063 
L 232.715784 150.237003 
L 229.403985 149.534182 
L 226.258014 149.166102 
L 223.303928 149.099869 
L 220.558792 149.30378 
L 218.03306 149.748148 
L 215.7324 150.405644 
L 213.65906 151.251355 
L 211.812885 152.262678 
L 210.192054 153.419145 
L 208.793622 154.702205 
L 207.613904 156.095004 
L 206.648761 157.582172 
L 205.893795 159.149622 
L 205.344491 160.784361 
L 204.996317 162.474329 
L 204.844783 164.20824 
L 204.885488 165.975444 
L 205.114135 167.7658 
L 205.526544 169.569556 
L 206.118642 171.377235 
L 206.886447 173.179528 
L 207.826043 174.967188 
L 208.933541 176.730927 
L 210.205032 178.461308 
L 211.636523 180.148632 
L 213.223861 181.782827 
L 214.962639 183.353315 
L 216.84807 184.848883 
L 218.874839 186.25753 
L 221.036909 187.566303 
L 223.327284 188.761112 
L 225.737697 189.826534 
L 228.258219 190.745593 
L 230.876758 191.499531 
L 233.578421 192.067576 
L 236.344697 192.426738 
L 239.152428 192.551658 
L 241.972524 192.414597 
L 244.768402 191.985673 
L 247.49418 191.233544 
L 250.092738 190.126806 
L 251.322947 189.431216 
L 252.49399 188.63651 
L 253.594934 187.740125 
L 254.61403 186.740268 
L 255.538815 185.636162 
L 256.35629 184.4283 
L 257.05319 183.118734 
L 257.616332 181.711348 
L 258.033079 180.212106 
L 258.291877 178.629239 
L 258.382853 176.973326 
L 258.298431 175.257225 
L 258.033849 173.495566 
L 257.589571 171.711407 
L 256.975558 169.949794 
L 256.199938 168.224026 
L 255.278804 166.564794 
L 254.201879 164.944429 
L 252.983093 163.380392 
L 251.636979 161.886907 
L 250.179186 160.476498 
L 248.626114 159.15994 
L 246.994498 157.946184 
L 245.301028 156.842346 
L 243.562019 155.853762 
L 241.793151 154.984093 
L 240.009268 154.23546 
L 236.450835 153.103076 
L 232.984558 152.449084 
L 229.690573 152.25189 
L 226.63221 152.48046 
L 223.857872 153.098008 
L 221.403281 154.064729 
L 219.293693 155.339697 
L 217.545907 156.882093 
L 216.169969 158.651945 
L 215.170559 160.610508 
L 214.548089 162.720397 
L 214.299541 164.945549 
L 214.419071 167.251079 
L 214.898428 169.603057 
L 215.727195 171.968244 
L 216.892889 174.3138 
L 218.380907 176.606979 
L 220.174346 178.814821 
L 222.253684 180.903856 
L 224.596314 182.839836 
L 227.175926 184.587519 
L 229.961731 186.110529 
L 232.917509 187.371367 
L 236.000509 188.331615 
L 239.160221 188.952474 
L 242.337123 189.195743 
L 245.461559 189.025448 
L 246.979383 188.775163 
L 248.453066 188.410289 
L 249.870891 187.92821 
L 251.220573 187.327092 
L 252.489351 186.606048 
L 253.664135 185.765309 
L 254.731691 184.806403 
L 255.678878 183.732325 
L 256.492929 182.547695 
L 257.161781 181.258883 
L 257.674433 179.874085 
L 258.021329 178.403349 
L 258.194738 176.858498 
L 258.1891 175.252758 
L 257.999836 173.589898 
L 257.626053 171.878331 
L 257.077668 170.174201 
L 256.361636 168.494051 
L 255.475489 166.827783 
L 254.433032 165.198866 
L 253.247228 163.623527 
L 251.932299 162.115957 
L 250.50364 160.688733 
L 248.977412 159.352711 
L 247.370124 158.11695 
L 245.698263 156.9887 
L 243.977965 155.97345 
L 242.224761 155.07504 
L 240.453369 154.295786 
L 236.910061 153.097363 
L 233.445501 152.372438 
L 230.139888 152.101257 
L 227.056995 152.254597 
L 224.245969 152.797384 
L 221.743492 153.691387 
L 219.575935 154.897092 
L 217.761306 156.374936 
L 216.310912 158.086046 
L 215.230723 159.992641 
L 214.522452 162.058172 
L 214.18438 164.247311 
L 214.211964 166.525812 
L 214.598256 168.860311 
L 215.334157 171.218069 
L 216.408523 173.566689 
L 217.808129 175.873816 
L 219.517509 178.106829 
L 221.518651 180.232544 
L 223.790551 182.21693 
L 226.308621 184.024875 
L 229.04392 185.620017 
L 231.962225 186.964708 
L 235.022924 188.020159 
L 235.022924 188.020159 
" clip-path="url(#pbf9d57046b)" style="fill: none; stroke-dasharray: 5.55,2.4; stroke-dashoffset: 0; stroke: #ff6347; stroke-width: 1.5"/>
   </g>
   <g id="Path3DCollection_1">
    <defs>
     <path id="m910ed132d4" d="M 0 2.236068 
C 0.593012 2.236068 1.161816 2.000462 1.581139 1.581139 
C 2.000462 1.161816 2.236068 0.593012 2.236068 0 
C 2.236068 -0.593012 2.000462 -1.161816 1.581139 -1.581139 
C 1.161816 -2.000462 0.593012 -2.236068 0 -2.236068 
C -0.593012 -2.236068 -1.161816 -2.000462 -1.581139 -1.581139 
C -2.000462 -1.161816 -2.236068 -0.593012 -2.236068 0 
C -2.236068 0.593012 -2.000462 1.161816 -1.581139 1.581139 
C -1.161816 2.000462 -0.593012 2.236068 0 2.236068 
z
" style="stroke: #00ffff"/>
    </defs>
    <g clip-path="url(#pbf9d57046b)"/>
   </g>
   <g id="Path3DCollection_2">
    <defs>
     <path id="mbb775a6368" d="M 0 2.236068 
C 0.593012 2.236068 1.161816 2.000462 1.581139 1.581139 
C 2.000462 1.161816 2.236068 0.593012 2.236068 0 
C 2.236068 -0.593012 2.000462 -1.161816 1.581139 -1.581139 
C 1.161816 -2.000462 0.593012 -2.236068 0 -2.236068 
C -0.593012 -2.236068 -1.161816 -2.000462 -1.581139 -1.581139 
C -2.000462 -1.161816 -2.236068 -0.593012 -2.236068 0 
C -2.236068 0.593012 -2.000462 1.161816 -1.581139 1.581139 
C -1.161816 2.000462 -0.593012 2.236068 0 2.236068 
z
" style="stroke: #008000"/>
    </defs>
    <g clip-path="url(#pbf9d57046b)">
     <use xlink:href="#mbb775a6368" x="180.985024" y="293.257594" style="fill: #008000; stroke: #008000"/>
    </g>
   </g>
   <g id="Path3DCollection_3">
    <g clip-path="url(#pbf9d57046b)">
     <use xlink:href="#m910ed132d4" x="225.560033" y="260.987743" style="fill: #00ffff; stroke: #00ffff"/>
    </g>
   </g>
   <g id="legend_1">
    <g id="patch_8">
     <path d="M 451.0496 191.25325 
L 687.248038 191.25325 
Q 689.248038 191.25325 689.248038 189.25325 
L 689.248038 43.472 
Q 689.248038 41.472 687.248038 41.472 
L 451.0496 41.472 
Q 449.0496 41.472 449.0496 43.472 
L 449.0496 189.25325 
Q 449.0496 191.25325 451.0496 191.25325 
z
" style="fill: #ffffff; opacity: 0.8; stroke: #cccccc; stroke-linejoin: miter"/>
    </g>
    <g id="Path3DCollection_4">
     <g>
      <use xlink:href="#mbb775a6368" x="463.0496" y="50.445438" style="fill: #008000; stroke: #008000"/>
     </g>
    </g>
    <g id="text_2">
     <!-- Spacecraft on 10/12/2023, 16:50:30 UTC -->
     <g transform="translate(481.0496 53.070438) scale(0.1 -0.1)">
      <defs>
       <path id="DejaVuSans-53" d="M 3425 4513 
L 3425 3897 
Q 3066 4069 2747 4153 
Q 2428 4238 2131 4238 
Q 1616 4238 1336 4038 
Q 1056 3838 1056 3469 
Q 1056 3159 1242 3001 
Q 1428 2844 1947 2747 
L 2328 2669 
Q 3034 2534 3370 2195 
Q 3706 1856 3706 1288 
Q 3706 609 3251 259 
Q 2797 -91 1919 -91 
Q 1588 -91 1214 -16 
Q 841 59 441 206 
L 441 856 
Q 825 641 1194 531 
Q 1563 422 1919 422 
Q 2459 422 2753 634 
Q 3047 847 3047 1241 
Q 3047 1584 2836 1778 
Q 2625 1972 2144 2069 
L 1759 2144 
Q 1053 2284 737 2584 
Q 422 2884 422 3419 
Q 422 4038 858 4394 
Q 1294 4750 2059 4750 
Q 2388 4750 2728 4690 
Q 3069 4631 3425 4513 
z
" transform="scale(0.015625)"/>
       <path id="DejaVuSans-70" d="M 1159 525 
L 1159 -1331 
L 581 -1331 
L 581 3500 
L 1159 3500 
L 1159 2969 
Q 1341 3281 1617 3432 
Q 1894 3584 2278 3584 
Q 2916 3584 3314 3078 
Q 3713 2572 3713 1747 
Q 3713 922 3314 415 
Q 2916 -91 2278 -91 
Q 1894 -91 1617 61 
Q 1341 213 1159 525 
z
M 3116 1747 
Q 3116 2381 2855 2742 
Q 2594 3103 2138 3103 
Q 1681 3103 1420 2742 
Q 1159 2381 1159 1747 
Q 1159 1113 1420 752 
Q 1681 391 2138 391 
Q 2594 391 2855 752 
Q 3116 1113 3116 1747 
z
" transform="scale(0.015625)"/>
       <path id="DejaVuSans-66" d="M 2375 4863 
L 2375 4384 
L 1825 4384 
Q 1516 4384 1395 4259 
Q 1275 4134 1275 3809 
L 1275 3500 
L 2222 3500 
L 2222 3053 
L 1275 3053 
L 1275 0 
L 697 0 
L 697 3053 
L 147 3053 
L 147 3500 
L 697 3500 
L 697 3744 
Q 697 4328 969 4595 
Q 1241 4863 1831 4863 
L 2375 4863 
z
" transform="scale(0.015625)"/>
       <path id="DejaVuSans-6e" d="M 3513 2113 
L 3513 0 
L 2938 0 
L 2938 2094 
Q 2938 2591 2744 2837 
Q 2550 3084 2163 3084 
Q 1697 3084 1428 2787 
Q 1159 2491 1159 1978 
L 1159 0 
L 581 0 
L 581 3500 
L 1159 3500 
L 1159 2956 
Q 1366 3272 1645 3428 
Q 1925 3584 2291 3584 
Q 2894 3584 3203 3211 
Q 3513 2838 3513 2113 
z
" transform="scale(0.015625)"/>
       <path id="DejaVuSans-31" d="M 794 531 
L 1825 531 
L 1825 4091 
L 703 3866 
L 703 4441 
L 1819 4666 
L 2450 4666 
L 2450 531 
L 3481 531 
L 3481 0 
L 794 0 
L 794 531 
z
" transform="scale(0.015625)"/>
       <path id="DejaVuSans-30" d="M 2034 4250 
Q 1547 4250 1301 3770 
Q 1056 3291 1056 2328 
Q 1056 1369 1301 889 
Q 1547 409 2034 409 
Q 2525 409 2770 889 
Q 3016 1369 3016 2328 
Q 3016 3291 2770 3770 
Q 2525 4250 2034 4250 
z
M 2034 4750 
Q 2819 4750 3233 4129 
Q 3647 3509 3647 2328 
Q 3647 1150 3233 529 
Q 2819 -91 2034 -91 
Q 1250 -91 836 529 
Q 422 1150 422 2328 
Q 422 3509 836 4129 
Q 1250 4750 2034 4750 
z
" transform="scale(0.015625)"/>
       <path id="DejaVuSans-2f" d="M 1625 4666 
L 2156 4666 
L 531 -594 
L 0 -594 
L 1625 4666 
z
" transform="scale(0.015625)"/>
       <path id="DejaVuSans-32" d="M 1228 531 
L 3431 531 
L 3431 0 
L 469 0 
L 469 531 
Q 828 903 1448 1529 
Q 2069 2156 2228 2338 
Q 2531 2678 2651 2914 
Q 2772 3150 2772 3378 
Q 2772 3750 2511 3984 
Q 2250 4219 1831 4219 
Q 1534 4219 1204 4116 
Q 875 4013 500 3803 
L 500 4441 
Q 881 4594 1212 4672 
Q 1544 4750 1819 4750 
Q 2544 4750 2975 4387 
Q 3406 4025 3406 3419 
Q 3406 3131 3298 2873 
Q 3191 2616 2906 2266 
Q 2828 2175 2409 1742 
Q 1991 1309 1228 531 
z
" transform="scale(0.015625)"/>
       <path id="DejaVuSans-33" d="M 2597 2516 
Q 3050 2419 3304 2112 
Q 3559 1806 3559 1356 
Q 3559 666 3084 287 
Q 2609 -91 1734 -91 
Q 1441 -91 1130 -33 
Q 819 25 488 141 
L 488 750 
Q 750 597 1062 519 
Q 1375 441 1716 441 
Q 2309 441 2620 675 
Q 2931 909 2931 1356 
Q 2931 1769 2642 2001 
Q 2353 2234 1838 2234 
L 1294 2234 
L 1294 2753 
L 1863 2753 
Q 2328 2753 2575 2939 
Q 2822 3125 2822 3475 
Q 2822 3834 2567 4026 
Q 2313 4219 1838 4219 
Q 1578 4219 1281 4162 
Q 984 4106 628 3988 
L 628 4550 
Q 988 4650 1302 4700 
Q 1616 4750 1894 4750 
Q 2613 4750 3031 4423 
Q 3450 4097 3450 3541 
Q 3450 3153 3228 2886 
Q 3006 2619 2597 2516 
z
" transform="scale(0.015625)"/>
       <path id="DejaVuSans-2c" d="M 750 794 
L 1409 794 
L 1409 256 
L 897 -744 
L 494 -744 
L 750 256 
L 750 794 
z
" transform="scale(0.015625)"/>
       <path id="DejaVuSans-36" d="M 2113 2584 
Q 1688 2584 1439 2293 
Q 1191 2003 1191 1497 
Q 1191 994 1439 701 
Q 1688 409 2113 409 
Q 2538 409 2786 701 
Q 3034 994 3034 1497 
Q 3034 2003 2786 2293 
Q 2538 2584 2113 2584 
z
M 3366 4563 
L 3366 3988 
Q 3128 4100 2886 4159 
Q 2644 4219 2406 4219 
Q 1781 4219 1451 3797 
Q 1122 3375 1075 2522 
Q 1259 2794 1537 2939 
Q 1816 3084 2150 3084 
Q 2853 3084 3261 2657 
Q 3669 2231 3669 1497 
Q 3669 778 3244 343 
Q 2819 -91 2113 -91 
Q 1303 -91 875 529 
Q 447 1150 447 2328 
Q 447 3434 972 4092 
Q 1497 4750 2381 4750 
Q 2619 4750 2861 4703 
Q 3103 4656 3366 4563 
z
" transform="scale(0.015625)"/>
       <path id="DejaVuSans-3a" d="M 750 794 
L 1409 794 
L 1409 0 
L 750 0 
L 750 794 
z
M 750 3309 
L 1409 3309 
L 1409 2516 
L 750 2516 
L 750 3309 
z
" transform="scale(0.015625)"/>
       <path id="DejaVuSans-35" d="M 691 4666 
L 3169 4666 
L 3169 4134 
L 1269 4134 
L 1269 2991 
Q 1406 3038 1543 3061 
Q 1681 3084 1819 3084 
Q 2600 3084 3056 2656 
Q 3513 2228 3513 1497 
Q 3513 744 3044 326 
Q 2575 -91 1722 -91 
Q 1428 -91 1123 -41 
Q 819 9 494 109 
L 494 744 
Q 775 591 1075 516 
Q 1375 441 1709 441 
Q 2250 441 2565 725 
Q 2881 1009 2881 1497 
Q 2881 1984 2565 2268 
Q 2250 2553 1709 2553 
Q 1456 2553 1204 2497 
Q 953 2441 691 2322 
L 691 4666 
z
" transform="scale(0.015625)"/>
       <path id="DejaVuSans-55" d="M 556 4666 
L 1191 4666 
L 1191 1831 
Q 1191 1081 1462 751 
Q 1734 422 2344 422 
Q 2950 422 3222 751 
Q 3494 1081 3494 1831 
L 3494 4666 
L 4128 4666 
L 4128 1753 
Q 4128 841 3676 375 
Q 3225 -91 2344 -91 
Q 1459 -91 1007 375 
Q 556 841 556 1753 
L 556 4666 
z
" transform="scale(0.015625)"/>
       <path id="DejaVuSans-43" d="M 4122 4306 
L 4122 3641 
Q 3803 3938 3442 4084 
Q 3081 4231 2675 4231 
Q 1875 4231 1450 3742 
Q 1025 3253 1025 2328 
Q 1025 1406 1450 917 
Q 1875 428 2675 428 
Q 3081 428 3442 575 
Q 3803 722 4122 1019 
L 4122 359 
Q 3791 134 3420 21 
Q 3050 -91 2638 -91 
Q 1578 -91 968 557 
Q 359 1206 359 2328 
Q 359 3453 968 4101 
Q 1578 4750 2638 4750 
Q 3056 4750 3426 4639 
Q 3797 4528 4122 4306 
z
" transform="scale(0.015625)"/>
      </defs>
      <use xlink:href="#DejaVuSans-53"/>
      <use xlink:href="#DejaVuSans-70" x="63.476562"/>
      <use xlink:href="#DejaVuSans-61" x="126.953125"/>
      <use xlink:href="#DejaVuSans-63" x="188.232422"/>
      <use xlink:href="#DejaVuSans-65" x="243.212891"/>
      <use xlink:href="#DejaVuSans-63" x="304.736328"/>
      <use xlink:href="#DejaVuSans-72" x="359.716797"/>
      <use xlink:href="#DejaVuSans-61" x="400.830078"/>
      <use xlink:href="#DejaVuSans-66" x="462.109375"/>
      <use xlink:href="#DejaVuSans-74" x="495.564453"/>
      <use xlink:href="#DejaVuSans-20" x="534.773438"/>
      <use xlink:href="#DejaVuSans-6f" x="566.560547"/>
      <use xlink:href="#DejaVuSans-6e" x="627.742188"/>
      <use xlink:href="#DejaVuSans-20" x="691.121094"/>
      <use xlink:href="#DejaVuSans-31" x="722.908203"/>
      <use xlink:href="#DejaVuSans-30" x="786.53125"/>
      <use xlink:href="#DejaVuSans-2f" x="850.154297"/>
      <use xlink:href="#DejaVuSans-31" x="883.845703"/>
      <use xlink:href="#DejaVuSans-32" x="947.46875"/>
      <use xlink:href="#DejaVuSans-2f" x="1011.091797"/>
      <use xlink:href="#DejaVuSans-32" x="1044.783203"/>
      <use xlink:href="#DejaVuSans-30" x="1108.40625"/>
      <use xlink:href="#DejaVuSans-32" x="1172.029297"/>
      <use xlink:href="#DejaVuSans-33" x="1235.652344"/>
      <use xlink:href="#DejaVuSans-2c" x="1299.275391"/>
      <use xlink:href="#DejaVuSans-20" x="1331.0625"/>
      <use xlink:href="#DejaVuSans-31" x="1362.849609"/>
      <use xlink:href="#DejaVuSans-36" x="1426.472656"/>
      <use xlink:href="#DejaVuSans-3a" x="1490.095703"/>
      <use xlink:href="#DejaVuSans-35" x="1523.787109"/>
      <use xlink:href="#DejaVuSans-30" x="1587.410156"/>
      <use xlink:href="#DejaVuSans-3a" x="1651.033203"/>
      <use xlink:href="#DejaVuSans-33" x="1684.724609"/>
      <use xlink:href="#DejaVuSans-30" x="1748.347656"/>
      <use xlink:href="#DejaVuSans-20" x="1811.970703"/>
      <use xlink:href="#DejaVuSans-55" x="1843.757812"/>
      <use xlink:href="#DejaVuSans-54" x="1916.951172"/>
      <use xlink:href="#DejaVuSans-43" x="1972.160156"/>
     </g>
    </g>
    <g id="line2d_8">
     <path d="M 453.0496 64.248563 
L 461.8 64.248563 
" style="fill: none; stroke-dasharray: 5.55,2.4; stroke-dashoffset: 0; stroke: #ff8c00; stroke-width: 1.5"/>
    </g>
    <g id="text_3">
     <!-- MTO -->
     <g transform="translate(481.0496 67.748563) scale(0.1 -0.1)">
      <defs>
       <path id="DejaVuSans-4d" d="M 628 4666 
L 1569 4666 
L 2759 1491 
L 3956 4666 
L 4897 4666 
L 4897 0 
L 4281 0 
L 4281 4097 
L 3078 897 
L 2444 897 
L 1241 4097 
L 1241 0 
L 628 0 
L 628 4666 
z
" transform="scale(0.015625)"/>
       <path id="DejaVuSans-4f" d="M 2522 4238 
Q 1834 4238 1429 3725 
Q 1025 3213 1025 2328 
Q 1025 1447 1429 934 
Q 1834 422 2522 422 
Q 3209 422 3611 934 
Q 4013 1447 4013 2328 
Q 4013 3213 3611 3725 
Q 3209 4238 2522 4238 
z
M 2522 4750 
Q 3503 4750 4090 4092 
Q 4678 3434 4678 2328 
Q 4678 1225 4090 567 
Q 3503 -91 2522 -91 
Q 1538 -91 948 565 
Q 359 1222 359 2328 
Q 359 3434 948 4092 
Q 1538 4750 2522 4750 
z
" transform="scale(0.015625)"/>
      </defs>
      <use xlink:href="#DejaVuSans-4d"/>
      <use xlink:href="#DejaVuSans-54" x="86.279297"/>
      <use xlink:href="#DejaVuSans-4f" x="147.363281"/>
     </g>
    </g>
    <g id="line2d_9">
     <path d="M 453.0496 78.926688 
L 461.8 78.926688 
" style="fill: none; stroke-dasharray: 9.6,2.4,1.5,2.4; stroke-dashoffset: 0; stroke: #00ffff; stroke-width: 1.5"/>
    </g>
    <g id="text_4">
     <!-- MOI 3223.17s -->
     <g transform="translate(481.0496 82.426688) scale(0.1 -0.1)">
      <defs>
       <path id="DejaVuSans-49" d="M 628 4666 
L 1259 4666 
L 1259 0 
L 628 0 
L 628 4666 
z
" transform="scale(0.015625)"/>
       <path id="DejaVuSans-2e" d="M 684 794 
L 1344 794 
L 1344 0 
L 684 0 
L 684 794 
z
" transform="scale(0.015625)"/>
       <path id="DejaVuSans-37" d="M 525 4666 
L 3525 4666 
L 3525 4397 
L 1831 0 
L 1172 0 
L 2766 4134 
L 525 4134 
L 525 4666 
z
" transform="scale(0.015625)"/>
       <path id="DejaVuSans-73" d="M 2834 3397 
L 2834 2853 
Q 2591 2978 2328 3040 
Q 2066 3103 1784 3103 
Q 1356 3103 1142 2972 
Q 928 2841 928 2578 
Q 928 2378 1081 2264 
Q 1234 2150 1697 2047 
L 1894 2003 
Q 2506 1872 2764 1633 
Q 3022 1394 3022 966 
Q 3022 478 2636 193 
Q 2250 -91 1575 -91 
Q 1294 -91 989 -36 
Q 684 19 347 128 
L 347 722 
Q 666 556 975 473 
Q 1284 391 1588 391 
Q 1994 391 2212 530 
Q 2431 669 2431 922 
Q 2431 1156 2273 1281 
Q 2116 1406 1581 1522 
L 1381 1569 
Q 847 1681 609 1914 
Q 372 2147 372 2553 
Q 372 3047 722 3315 
Q 1072 3584 1716 3584 
Q 2034 3584 2315 3537 
Q 2597 3491 2834 3397 
z
" transform="scale(0.015625)"/>
      </defs>
      <use xlink:href="#DejaVuSans-4d"/>
      <use xlink:href="#DejaVuSans-4f" x="86.279297"/>
      <use xlink:href="#DejaVuSans-49" x="164.990234"/>
      <use xlink:href="#DejaVuSans-20" x="194.482422"/>
      <use xlink:href="#DejaVuSans-33" x="226.269531"/>
      <use xlink:href="#DejaVuSans-32" x="289.892578"/>
      <use xlink:href="#DejaVuSans-32" x="353.515625"/>
      <use xlink:href="#DejaVuSans-33" x="417.138672"/>
      <use xlink:href="#DejaVuSans-2e" x="480.761719"/>
      <use xlink:href="#DejaVuSans-31" x="512.548828"/>
      <use xlink:href="#DejaVuSans-37" x="576.171875"/>
      <use xlink:href="#DejaVuSans-73" x="639.794922"/>
     </g>
    </g>
    <g id="Path3DCollection_5">
     <g>
      <use xlink:href="#m910ed132d4" x="463.0496" y="94.479813" style="fill: #00ffff; stroke: #00ffff"/>
     </g>
    </g>
    <g id="text_5">
     <!-- e-correction 97.02s -->
     <g transform="translate(481.0496 97.104813) scale(0.1 -0.1)">
      <defs>
       <path id="DejaVuSans-2d" d="M 313 2009 
L 1997 2009 
L 1997 1497 
L 313 1497 
L 313 2009 
z
" transform="scale(0.015625)"/>
       <path id="DejaVuSans-69" d="M 603 3500 
L 1178 3500 
L 1178 0 
L 603 0 
L 603 3500 
z
M 603 4863 
L 1178 4863 
L 1178 4134 
L 603 4134 
L 603 4863 
z
" transform="scale(0.015625)"/>
       <path id="DejaVuSans-39" d="M 703 97 
L 703 672 
Q 941 559 1184 500 
Q 1428 441 1663 441 
Q 2288 441 2617 861 
Q 2947 1281 2994 2138 
Q 2813 1869 2534 1725 
Q 2256 1581 1919 1581 
Q 1219 1581 811 2004 
Q 403 2428 403 3163 
Q 403 3881 828 4315 
Q 1253 4750 1959 4750 
Q 2769 4750 3195 4129 
Q 3622 3509 3622 2328 
Q 3622 1225 3098 567 
Q 2575 -91 1691 -91 
Q 1453 -91 1209 -44 
Q 966 3 703 97 
z
M 1959 2075 
Q 2384 2075 2632 2365 
Q 2881 2656 2881 3163 
Q 2881 3666 2632 3958 
Q 2384 4250 1959 4250 
Q 1534 4250 1286 3958 
Q 1038 3666 1038 3163 
Q 1038 2656 1286 2365 
Q 1534 2075 1959 2075 
z
" transform="scale(0.015625)"/>
      </defs>
      <use xlink:href="#DejaVuSans-65"/>
      <use xlink:href="#DejaVuSans-2d" x="61.523438"/>
      <use xlink:href="#DejaVuSans-63" x="97.607422"/>
      <use xlink:href="#DejaVuSans-6f" x="152.587891"/>
      <use xlink:href="#DejaVuSans-72" x="213.769531"/>
      <use xlink:href="#DejaVuSans-72" x="253.132812"/>
      <use xlink:href="#DejaVuSans-65" x="291.996094"/>
      <use xlink:href="#DejaVuSans-63" x="353.519531"/>
      <use xlink:href="#DejaVuSans-74" x="408.5"/>
      <use xlink:href="#DejaVuSans-69" x="447.708984"/>
      <use xlink:href="#DejaVuSans-6f" x="475.492188"/>
      <use xlink:href="#DejaVuSans-6e" x="536.673828"/>
      <use xlink:href="#DejaVuSans-20" x="600.052734"/>
      <use xlink:href="#DejaVuSans-39" x="631.839844"/>
      <use xlink:href="#DejaVuSans-37" x="695.462891"/>
      <use xlink:href="#DejaVuSans-2e" x="759.085938"/>
      <use xlink:href="#DejaVuSans-30" x="790.873047"/>
      <use xlink:href="#DejaVuSans-32" x="854.496094"/>
      <use xlink:href="#DejaVuSans-73" x="918.119141"/>
     </g>
    </g>
    <g id="line2d_10">
     <path d="M 453.0496 108.282938 
L 461.8 108.282938 
" style="fill: none; stroke-dasharray: 5.55,2.4; stroke-dashoffset: 0; stroke: #f08080; stroke-width: 1.5"/>
    </g>
    <g id="text_6">
     <!-- Wait for periares -->
     <g transform="translate(481.0496 111.782938) scale(0.1 -0.1)">
      <defs>
       <path id="DejaVuSans-57" d="M 213 4666 
L 850 4666 
L 1831 722 
L 2809 4666 
L 3519 4666 
L 4500 722 
L 5478 4666 
L 6119 4666 
L 4947 0 
L 4153 0 
L 3169 4050 
L 2175 0 
L 1381 0 
L 213 4666 
z
" transform="scale(0.015625)"/>
      </defs>
      <use xlink:href="#DejaVuSans-57"/>
      <use xlink:href="#DejaVuSans-61" x="92.501953"/>
      <use xlink:href="#DejaVuSans-69" x="153.78125"/>
      <use xlink:href="#DejaVuSans-74" x="181.564453"/>
      <use xlink:href="#DejaVuSans-20" x="220.773438"/>
      <use xlink:href="#DejaVuSans-66" x="252.560547"/>
      <use xlink:href="#DejaVuSans-6f" x="287.765625"/>
      <use xlink:href="#DejaVuSans-72" x="348.947266"/>
      <use xlink:href="#DejaVuSans-20" x="390.060547"/>
      <use xlink:href="#DejaVuSans-70" x="421.847656"/>
      <use xlink:href="#DejaVuSans-65" x="485.324219"/>
      <use xlink:href="#DejaVuSans-72" x="546.847656"/>
      <use xlink:href="#DejaVuSans-69" x="587.960938"/>
      <use xlink:href="#DejaVuSans-61" x="615.744141"/>
      <use xlink:href="#DejaVuSans-72" x="677.023438"/>
      <use xlink:href="#DejaVuSans-65" x="715.886719"/>
      <use xlink:href="#DejaVuSans-73" x="777.410156"/>
     </g>
    </g>
    <g id="line2d_11">
     <path d="M 453.0496 122.961063 
L 461.8 122.961063 
" style="fill: none; stroke-dasharray: 9.6,2.4,1.5,2.4; stroke-dashoffset: 0; stroke: #ff00ff; stroke-width: 1.5"/>
    </g>
    <g id="text_7">
     <!-- Burn to e=0.2 158.94s -->
     <g transform="translate(481.0496 126.461063) scale(0.1 -0.1)">
      <defs>
       <path id="DejaVuSans-42" d="M 1259 2228 
L 1259 519 
L 2272 519 
Q 2781 519 3026 730 
Q 3272 941 3272 1375 
Q 3272 1813 3026 2020 
Q 2781 2228 2272 2228 
L 1259 2228 
z
M 1259 4147 
L 1259 2741 
L 2194 2741 
Q 2656 2741 2882 2914 
Q 3109 3088 3109 3444 
Q 3109 3797 2882 3972 
Q 2656 4147 2194 4147 
L 1259 4147 
z
M 628 4666 
L 2241 4666 
Q 2963 4666 3353 4366 
Q 3744 4066 3744 3513 
Q 3744 3084 3544 2831 
Q 3344 2578 2956 2516 
Q 3422 2416 3680 2098 
Q 3938 1781 3938 1306 
Q 3938 681 3513 340 
Q 3088 0 2303 0 
L 628 0 
L 628 4666 
z
" transform="scale(0.015625)"/>
       <path id="DejaVuSans-75" d="M 544 1381 
L 544 3500 
L 1119 3500 
L 1119 1403 
Q 1119 906 1312 657 
Q 1506 409 1894 409 
Q 2359 409 2629 706 
Q 2900 1003 2900 1516 
L 2900 3500 
L 3475 3500 
L 3475 0 
L 2900 0 
L 2900 538 
Q 2691 219 2414 64 
Q 2138 -91 1772 -91 
Q 1169 -91 856 284 
Q 544 659 544 1381 
z
M 1991 3584 
L 1991 3584 
z
" transform="scale(0.015625)"/>
       <path id="DejaVuSans-3d" d="M 678 2906 
L 4684 2906 
L 4684 2381 
L 678 2381 
L 678 2906 
z
M 678 1631 
L 4684 1631 
L 4684 1100 
L 678 1100 
L 678 1631 
z
" transform="scale(0.015625)"/>
       <path id="DejaVuSans-38" d="M 2034 2216 
Q 1584 2216 1326 1975 
Q 1069 1734 1069 1313 
Q 1069 891 1326 650 
Q 1584 409 2034 409 
Q 2484 409 2743 651 
Q 3003 894 3003 1313 
Q 3003 1734 2745 1975 
Q 2488 2216 2034 2216 
z
M 1403 2484 
Q 997 2584 770 2862 
Q 544 3141 544 3541 
Q 544 4100 942 4425 
Q 1341 4750 2034 4750 
Q 2731 4750 3128 4425 
Q 3525 4100 3525 3541 
Q 3525 3141 3298 2862 
Q 3072 2584 2669 2484 
Q 3125 2378 3379 2068 
Q 3634 1759 3634 1313 
Q 3634 634 3220 271 
Q 2806 -91 2034 -91 
Q 1263 -91 848 271 
Q 434 634 434 1313 
Q 434 1759 690 2068 
Q 947 2378 1403 2484 
z
M 1172 3481 
Q 1172 3119 1398 2916 
Q 1625 2713 2034 2713 
Q 2441 2713 2670 2916 
Q 2900 3119 2900 3481 
Q 2900 3844 2670 4047 
Q 2441 4250 2034 4250 
Q 1625 4250 1398 4047 
Q 1172 3844 1172 3481 
z
" transform="scale(0.015625)"/>
       <path id="DejaVuSans-34" d="M 2419 4116 
L 825 1625 
L 2419 1625 
L 2419 4116 
z
M 2253 4666 
L 3047 4666 
L 3047 1625 
L 3713 1625 
L 3713 1100 
L 3047 1100 
L 3047 0 
L 2419 0 
L 2419 1100 
L 313 1100 
L 313 1709 
L 2253 4666 
z
" transform="scale(0.015625)"/>
      </defs>
      <use xlink:href="#DejaVuSans-42"/>
      <use xlink:href="#DejaVuSans-75" x="68.603516"/>
      <use xlink:href="#DejaVuSans-72" x="131.982422"/>
      <use xlink:href="#DejaVuSans-6e" x="171.345703"/>
      <use xlink:href="#DejaVuSans-20" x="234.724609"/>
      <use xlink:href="#DejaVuSans-74" x="266.511719"/>
      <use xlink:href="#DejaVuSans-6f" x="305.720703"/>
      <use xlink:href="#DejaVuSans-20" x="366.902344"/>
      <use xlink:href="#DejaVuSans-65" x="398.689453"/>
      <use xlink:href="#DejaVuSans-3d" x="460.212891"/>
      <use xlink:href="#DejaVuSans-30" x="544.001953"/>
      <use xlink:href="#DejaVuSans-2e" x="607.625"/>
      <use xlink:href="#DejaVuSans-32" x="639.412109"/>
      <use xlink:href="#DejaVuSans-20" x="703.035156"/>
      <use xlink:href="#DejaVuSans-31" x="734.822266"/>
      <use xlink:href="#DejaVuSans-35" x="798.445312"/>
      <use xlink:href="#DejaVuSans-38" x="862.068359"/>
      <use xlink:href="#DejaVuSans-2e" x="925.691406"/>
      <use xlink:href="#DejaVuSans-39" x="957.478516"/>
      <use xlink:href="#DejaVuSans-34" x="1021.101562"/>
      <use xlink:href="#DejaVuSans-73" x="1084.724609"/>
     </g>
    </g>
    <g id="line2d_12">
     <path d="M 453.0496 137.639188 
L 461.8 137.639188 
" style="fill: none; stroke-dasharray: 5.55,2.4; stroke-dashoffset: 0; stroke: #800000; stroke-width: 1.5"/>
    </g>
    <g id="text_8">
     <!-- Wait for apoares -->
     <g transform="translate(481.0496 141.139188) scale(0.1 -0.1)">
      <use xlink:href="#DejaVuSans-57"/>
      <use xlink:href="#DejaVuSans-61" x="92.501953"/>
      <use xlink:href="#DejaVuSans-69" x="153.78125"/>
      <use xlink:href="#DejaVuSans-74" x="181.564453"/>
      <use xlink:href="#DejaVuSans-20" x="220.773438"/>
      <use xlink:href="#DejaVuSans-66" x="252.560547"/>
      <use xlink:href="#DejaVuSans-6f" x="287.765625"/>
      <use xlink:href="#DejaVuSans-72" x="348.947266"/>
      <use xlink:href="#DejaVuSans-20" x="390.060547"/>
      <use xlink:href="#DejaVuSans-61" x="421.847656"/>
      <use xlink:href="#DejaVuSans-70" x="483.126953"/>
      <use xlink:href="#DejaVuSans-6f" x="546.603516"/>
      <use xlink:href="#DejaVuSans-61" x="607.785156"/>
      <use xlink:href="#DejaVuSans-72" x="669.064453"/>
      <use xlink:href="#DejaVuSans-65" x="707.927734"/>
      <use xlink:href="#DejaVuSans-73" x="769.451172"/>
     </g>
    </g>
    <g id="line2d_13">
     <path d="M 453.0496 152.317313 
L 461.8 152.317313 
" style="fill: none; stroke-dasharray: 9.6,2.4,1.5,2.4; stroke-dashoffset: 0; stroke: #dc143c; stroke-width: 1.5"/>
    </g>
    <g id="text_9">
     <!-- Burn hp = 120 km 129.98s -->
     <g transform="translate(481.0496 155.817313) scale(0.1 -0.1)">
      <defs>
       <path id="DejaVuSans-68" d="M 3513 2113 
L 3513 0 
L 2938 0 
L 2938 2094 
Q 2938 2591 2744 2837 
Q 2550 3084 2163 3084 
Q 1697 3084 1428 2787 
Q 1159 2491 1159 1978 
L 1159 0 
L 581 0 
L 581 4863 
L 1159 4863 
L 1159 2956 
Q 1366 3272 1645 3428 
Q 1925 3584 2291 3584 
Q 2894 3584 3203 3211 
Q 3513 2838 3513 2113 
z
" transform="scale(0.015625)"/>
       <path id="DejaVuSans-6b" d="M 581 4863 
L 1159 4863 
L 1159 1991 
L 2875 3500 
L 3609 3500 
L 1753 1863 
L 3688 0 
L 2938 0 
L 1159 1709 
L 1159 0 
L 581 0 
L 581 4863 
z
" transform="scale(0.015625)"/>
       <path id="DejaVuSans-6d" d="M 3328 2828 
Q 3544 3216 3844 3400 
Q 4144 3584 4550 3584 
Q 5097 3584 5394 3201 
Q 5691 2819 5691 2113 
L 5691 0 
L 5113 0 
L 5113 2094 
Q 5113 2597 4934 2840 
Q 4756 3084 4391 3084 
Q 3944 3084 3684 2787 
Q 3425 2491 3425 1978 
L 3425 0 
L 2847 0 
L 2847 2094 
Q 2847 2600 2669 2842 
Q 2491 3084 2119 3084 
Q 1678 3084 1418 2786 
Q 1159 2488 1159 1978 
L 1159 0 
L 581 0 
L 581 3500 
L 1159 3500 
L 1159 2956 
Q 1356 3278 1631 3431 
Q 1906 3584 2284 3584 
Q 2666 3584 2933 3390 
Q 3200 3197 3328 2828 
z
" transform="scale(0.015625)"/>
      </defs>
      <use xlink:href="#DejaVuSans-42"/>
      <use xlink:href="#DejaVuSans-75" x="68.603516"/>
      <use xlink:href="#DejaVuSans-72" x="131.982422"/>
      <use xlink:href="#DejaVuSans-6e" x="171.345703"/>
      <use xlink:href="#DejaVuSans-20" x="234.724609"/>
      <use xlink:href="#DejaVuSans-68" x="266.511719"/>
      <use xlink:href="#DejaVuSans-70" x="329.890625"/>
      <use xlink:href="#DejaVuSans-20" x="393.367188"/>
      <use xlink:href="#DejaVuSans-3d" x="425.154297"/>
      <use xlink:href="#DejaVuSans-20" x="508.943359"/>
      <use xlink:href="#DejaVuSans-31" x="540.730469"/>
      <use xlink:href="#DejaVuSans-32" x="604.353516"/>
      <use xlink:href="#DejaVuSans-30" x="667.976562"/>
      <use xlink:href="#DejaVuSans-20" x="731.599609"/>
      <use xlink:href="#DejaVuSans-6b" x="763.386719"/>
      <use xlink:href="#DejaVuSans-6d" x="821.296875"/>
      <use xlink:href="#DejaVuSans-20" x="918.708984"/>
      <use xlink:href="#DejaVuSans-31" x="950.496094"/>
      <use xlink:href="#DejaVuSans-32" x="1014.119141"/>
      <use xlink:href="#DejaVuSans-39" x="1077.742188"/>
      <use xlink:href="#DejaVuSans-2e" x="1141.365234"/>
      <use xlink:href="#DejaVuSans-39" x="1173.152344"/>
      <use xlink:href="#DejaVuSans-38" x="1236.775391"/>
      <use xlink:href="#DejaVuSans-73" x="1300.398438"/>
     </g>
    </g>
    <g id="line2d_14">
     <path d="M 453.0496 166.995438 
L 461.8 166.995438 
" style="fill: none; stroke-dasharray: 5.55,2.4; stroke-dashoffset: 0; stroke: #ff6347; stroke-width: 1.5"/>
    </g>
    <g id="text_10">
     <!-- Aerobraking -->
     <g transform="translate(481.0496 170.495438) scale(0.1 -0.1)">
      <defs>
       <path id="DejaVuSans-41" d="M 2188 4044 
L 1331 1722 
L 3047 1722 
L 2188 4044 
z
M 1831 4666 
L 2547 4666 
L 4325 0 
L 3669 0 
L 3244 1197 
L 1141 1197 
L 716 0 
L 50 0 
L 1831 4666 
z
" transform="scale(0.015625)"/>
       <path id="DejaVuSans-62" d="M 3116 1747 
Q 3116 2381 2855 2742 
Q 2594 3103 2138 3103 
Q 1681 3103 1420 2742 
Q 1159 2381 1159 1747 
Q 1159 1113 1420 752 
Q 1681 391 2138 391 
Q 2594 391 2855 752 
Q 3116 1113 3116 1747 
z
M 1159 2969 
Q 1341 3281 1617 3432 
Q 1894 3584 2278 3584 
Q 2916 3584 3314 3078 
Q 3713 2572 3713 1747 
Q 3713 922 3314 415 
Q 2916 -91 2278 -91 
Q 1894 -91 1617 61 
Q 1341 213 1159 525 
L 1159 0 
L 581 0 
L 581 4863 
L 1159 4863 
L 1159 2969 
z
" transform="scale(0.015625)"/>
       <path id="DejaVuSans-67" d="M 2906 1791 
Q 2906 2416 2648 2759 
Q 2391 3103 1925 3103 
Q 1463 3103 1205 2759 
Q 947 2416 947 1791 
Q 947 1169 1205 825 
Q 1463 481 1925 481 
Q 2391 481 2648 825 
Q 2906 1169 2906 1791 
z
M 3481 434 
Q 3481 -459 3084 -895 
Q 2688 -1331 1869 -1331 
Q 1566 -1331 1297 -1286 
Q 1028 -1241 775 -1147 
L 775 -588 
Q 1028 -725 1275 -790 
Q 1522 -856 1778 -856 
Q 2344 -856 2625 -561 
Q 2906 -266 2906 331 
L 2906 616 
Q 2728 306 2450 153 
Q 2172 0 1784 0 
Q 1141 0 747 490 
Q 353 981 353 1791 
Q 353 2603 747 3093 
Q 1141 3584 1784 3584 
Q 2172 3584 2450 3431 
Q 2728 3278 2906 2969 
L 2906 3500 
L 3481 3500 
L 3481 434 
z
" transform="scale(0.015625)"/>
      </defs>
      <use xlink:href="#DejaVuSans-41"/>
      <use xlink:href="#DejaVuSans-65" x="66.658203"/>
      <use xlink:href="#DejaVuSans-72" x="128.181641"/>
      <use xlink:href="#DejaVuSans-6f" x="167.044922"/>
      <use xlink:href="#DejaVuSans-62" x="228.226562"/>
      <use xlink:href="#DejaVuSans-72" x="291.703125"/>
      <use xlink:href="#DejaVuSans-61" x="332.816406"/>
      <use xlink:href="#DejaVuSans-6b" x="394.095703"/>
      <use xlink:href="#DejaVuSans-69" x="452.005859"/>
      <use xlink:href="#DejaVuSans-6e" x="479.789062"/>
      <use xlink:href="#DejaVuSans-67" x="543.167969"/>
     </g>
    </g>
    <g id="Path3DCollection_6">
     <defs>
      <path id="m08bc78893f" d="M 0 2.236068 
C 0.593012 2.236068 1.161816 2.000462 1.581139 1.581139 
C 2.000462 1.161816 2.236068 0.593012 2.236068 0 
C 2.236068 -0.593012 2.000462 -1.161816 1.581139 -1.581139 
C 1.161816 -2.000462 0.593012 -2.236068 0 -2.236068 
C -0.593012 -2.236068 -1.161816 -2.000462 -1.581139 -1.581139 
C -2.000462 -1.161816 -2.236068 -0.593012 -2.236068 0 
C -2.236068 0.593012 -2.000462 1.161816 -1.581139 1.581139 
C -1.161816 2.000462 -0.593012 2.236068 0 2.236068 
z
" style="stroke: #1f77b4"/>
     </defs>
     <g>
      <use xlink:href="#m08bc78893f" x="463.0496" y="182.548563" style="fill: #1f77b4; stroke: #1f77b4"/>
     </g>
    </g>
    <g id="text_11">
     <!-- Spacecraft on 12/12/2023, 16:34:22 UTC -->
     <g transform="translate(481.0496 185.173563) scale(0.1 -0.1)">
      <use xlink:href="#DejaVuSans-53"/>
      <use xlink:href="#DejaVuSans-70" x="63.476562"/>
      <use xlink:href="#DejaVuSans-61" x="126.953125"/>
      <use xlink:href="#DejaVuSans-63" x="188.232422"/>
      <use xlink:href="#DejaVuSans-65" x="243.212891"/>
      <use xlink:href="#DejaVuSans-63" x="304.736328"/>
      <use xlink:href="#DejaVuSans-72" x="359.716797"/>
      <use xlink:href="#DejaVuSans-61" x="400.830078"/>
      <use xlink:href="#DejaVuSans-66" x="462.109375"/>
      <use xlink:href="#DejaVuSans-74" x="495.564453"/>
      <use xlink:href="#DejaVuSans-20" x="534.773438"/>
      <use xlink:href="#DejaVuSans-6f" x="566.560547"/>
      <use xlink:href="#DejaVuSans-6e" x="627.742188"/>
      <use xlink:href="#DejaVuSans-20" x="691.121094"/>
      <use xlink:href="#DejaVuSans-31" x="722.908203"/>
      <use xlink:href="#DejaVuSans-32" x="786.53125"/>
      <use xlink:href="#DejaVuSans-2f" x="850.154297"/>
      <use xlink:href="#DejaVuSans-31" x="883.845703"/>
      <use xlink:href="#DejaVuSans-32" x="947.46875"/>
      <use xlink:href="#DejaVuSans-2f" x="1011.091797"/>
      <use xlink:href="#DejaVuSans-32" x="1044.783203"/>
      <use xlink:href="#DejaVuSans-30" x="1108.40625"/>
      <use xlink:href="#DejaVuSans-32" x="1172.029297"/>
      <use xlink:href="#DejaVuSans-33" x="1235.652344"/>
      <use xlink:href="#DejaVuSans-2c" x="1299.275391"/>
      <use xlink:href="#DejaVuSans-20" x="1331.0625"/>
      <use xlink:href="#DejaVuSans-31" x="1362.849609"/>
      <use xlink:href="#DejaVuSans-36" x="1426.472656"/>
      <use xlink:href="#DejaVuSans-3a" x="1490.095703"/>
      <use xlink:href="#DejaVuSans-33" x="1523.787109"/>
      <use xlink:href="#DejaVuSans-34" x="1587.410156"/>
      <use xlink:href="#DejaVuSans-3a" x="1651.033203"/>
      <use xlink:href="#DejaVuSans-32" x="1684.724609"/>
      <use xlink:href="#DejaVuSans-32" x="1748.347656"/>
      <use xlink:href="#DejaVuSans-20" x="1811.970703"/>
      <use xlink:href="#DejaVuSans-55" x="1843.757812"/>
      <use xlink:href="#DejaVuSans-54" x="1916.951172"/>
      <use xlink:href="#DejaVuSans-43" x="1972.160156"/>
     </g>
    </g>
   </g>
   <g id="Path3DCollection_7">
    <defs>
     <path id="mfe732438a2" d="M 0 2.236068 
C 0.593012 2.236068 1.161816 2.000462 1.581139 1.581139 
C 2.000462 1.161816 2.236068 0.593012 2.236068 0 
C 2.236068 -0.593012 2.000462 -1.161816 1.581139 -1.581139 
C 1.161816 -2.000462 0.593012 -2.236068 0 -2.236068 
C -0.593012 -2.236068 -1.161816 -2.000462 -1.581139 -1.581139 
C -2.000462 -1.161816 -2.236068 -0.593012 -2.236068 0 
C -2.236068 0.593012 -2.000462 1.161816 -1.581139 1.581139 
C -1.161816 2.000462 -0.593012 2.236068 0 2.236068 
z
" style="stroke: #dc143c"/>
    </defs>
    <g clip-path="url(#pbf9d57046b)">
     <use xlink:href="#mfe732438a2" x="164.444239" y="163.866974" style="fill: #dc143c; stroke: #dc143c"/>
    </g>
   </g>
   <g id="Path3DCollection_8">
    <g clip-path="url(#pbf9d57046b)">
     <use xlink:href="#mfe732438a2" x="164.417423" y="163.176622" style="fill: #dc143c; stroke: #dc143c"/>
    </g>
   </g>
   <g id="Path3DCollection_9">
    <g clip-path="url(#pbf9d57046b)">
     <use xlink:href="#m910ed132d4" x="270.534717" y="225.569256" style="fill: #00ffff; stroke: #00ffff"/>
    </g>
   </g>
   <g id="Path3DCollection_10">
    <g clip-path="url(#pbf9d57046b)">
     <use xlink:href="#m910ed132d4" x="270.534717" y="225.569256" style="fill: #00ffff; stroke: #00ffff"/>
    </g>
   </g>
   <g id="Path3DCollection_11">
    <g clip-path="url(#pbf9d57046b)">
     <use xlink:href="#m910ed132d4" x="271.200009" y="224.922935" style="fill: #00ffff; stroke: #00ffff"/>
    </g>
   </g>
   <g id="Path3DCollection_12">
    <g clip-path="url(#pbf9d57046b)">
     <use xlink:href="#m08bc78893f" x="235.022924" y="188.020159" style="fill: #1f77b4; stroke: #1f77b4"/>
    </g>
   </g>
   <g id="Line3DCollection_1">
    <path d="M 241.263075 189.817596 
L 235.022924 188.020159 
" clip-path="url(#pbf9d57046b)" style="fill: none; stroke: #1f77b4; stroke-width: 1.5"/>
    <path d="M 241.263075 189.817596 
L 239.386431 189.749811 
" clip-path="url(#pbf9d57046b)" style="fill: none; stroke: #1f77b4; stroke-width: 1.5"/>
    <path d="M 241.263075 189.817596 
L 239.520294 188.842671 
" clip-path="url(#pbf9d57046b)" style="fill: none; stroke: #1f77b4; stroke-width: 1.5"/>
   </g>
   <g id="Line3DCollection_2">
    <path d="M 251.323776 166.829779 
L 239.756108 170.931892 
" clip-path="url(#pbf9d57046b)" style="fill: none; stroke: #008000; stroke-width: 0.5"/>
    <path d="M 251.323776 166.829779 
L 247.983469 169.078471 
" clip-path="url(#pbf9d57046b)" style="fill: none; stroke: #008000; stroke-width: 0.5"/>
    <path d="M 251.323776 166.829779 
L 247.98915 166.947409 
" clip-path="url(#pbf9d57046b)" style="fill: none; stroke: #008000; stroke-width: 0.5"/>
   </g>
   <g id="Path3DCollection_13">
    <defs>
     <path id="ma85b6bf495" d="M 0 2.236068 
C 0.593012 2.236068 1.161816 2.000462 1.581139 1.581139 
C 2.000462 1.161816 2.236068 0.593012 2.236068 0 
C 2.236068 -0.593012 2.000462 -1.161816 1.581139 -1.581139 
C 1.161816 -2.000462 0.593012 -2.236068 0 -2.236068 
C -0.593012 -2.236068 -1.161816 -2.000462 -1.581139 -1.581139 
C -2.000462 -1.161816 -2.236068 -0.593012 -2.236068 0 
C -2.236068 0.593012 -2.000462 1.161816 -1.581139 1.581139 
C -1.161816 2.000462 -0.593012 2.236068 0 2.236068 
z
" style="stroke: #ff00ff"/>
    </defs>
    <g clip-path="url(#pbf9d57046b)">
     <use xlink:href="#ma85b6bf495" x="286.833613" y="197.088579" style="fill: #ff00ff; stroke: #ff00ff"/>
    </g>
   </g>
   <g id="Path3DCollection_14">
    <g clip-path="url(#pbf9d57046b)">
     <use xlink:href="#ma85b6bf495" x="287.138022" y="195.461378" style="fill: #ff00ff; stroke: #ff00ff"/>
    </g>
   </g>
   <g id="Line3DCollection_3">
    <path d="M 239.756108 157.10022 
L 239.756108 170.931892 
" clip-path="url(#pbf9d57046b)" style="fill: none; stroke: #0000ff; stroke-width: 0.5"/>
    <path d="M 239.756108 157.10022 
L 238.995831 160.74376 
" clip-path="url(#pbf9d57046b)" style="fill: none; stroke: #0000ff; stroke-width: 0.5"/>
    <path d="M 239.756108 157.10022 
L 240.517254 161.498828 
" clip-path="url(#pbf9d57046b)" style="fill: none; stroke: #0000ff; stroke-width: 0.5"/>
   </g>
   <g id="Line3DCollection_4">
    <path d="M 249.594406 175.887018 
L 239.756108 170.931892 
" clip-path="url(#pbf9d57046b)" style="fill: none; stroke: #ff0000; stroke-width: 0.5"/>
    <path d="M 249.594406 175.887018 
L 246.726132 175.516791 
" clip-path="url(#pbf9d57046b)" style="fill: none; stroke: #ff0000; stroke-width: 0.5"/>
    <path d="M 249.594406 175.887018 
L 246.730991 173.369691 
" clip-path="url(#pbf9d57046b)" style="fill: none; stroke: #ff0000; stroke-width: 0.5"/>
   </g>
   <g id="Line3DCollection_5">
    <path d="M 239.756108 153.622899 
L 243.966662 156.741529 
L 247.683656 161.603756 
L 250.44293 167.614845 
L 251.899726 174.029025 
L 251.876002 180.049344 
L 250.38299 184.934938 
L 247.615775 188.097303 
L 243.9226 189.170723 
L 239.756108 188.048794 
" clip-path="url(#pbf9d57046b)" style="fill: none; stroke: #1a3380; stroke-opacity: 0.2; stroke-width: 0.5"/>
    <path d="M 239.756108 153.622899 
L 245.362057 156.06419 
L 250.301273 160.320201 
L 253.962044 165.869987 
L 255.892805 172.027972 
L 255.861374 178.034346 
L 253.882574 183.154815 
L 250.211152 186.773744 
L 245.303452 188.467359 
L 239.756108 188.048794 
" clip-path="url(#pbf9d57046b)" style="fill: none; stroke: #1a3380; stroke-opacity: 0.2; stroke-width: 0.5"/>
    <path d="M 239.756108 153.622899 
L 246.146239 155.237436 
L 251.763037 158.756666 
L 255.917973 163.747705 
L 258.106617 169.595999 
L 258.071003 175.585394 
L 255.827848 180.989569 
L 251.660665 185.161419 
L 246.07952 187.608819 
L 239.756108 188.048794 
" clip-path="url(#pbf9d57046b)" style="fill: none; stroke: #1a3380; stroke-opacity: 0.2; stroke-width: 0.5"/>
    <path d="M 239.756108 153.622899 
L 246.236242 154.351625 
L 251.917697 157.085289 
L 256.111789 161.482896 
L 258.3181 167.003024 
L 258.282215 172.974276 
L 256.020893 178.678827 
L 251.814267 183.437816 
L 246.168675 186.688926 
L 239.756108 188.048794 
" clip-path="url(#pbf9d57046b)" style="fill: none; stroke: #1a3380; stroke-opacity: 0.2; stroke-width: 0.5"/>
    <path d="M 239.756108 153.622899 
L 245.625039 153.502843 
L 250.758107 155.487499 
L 254.539897 159.321515 
L 256.526773 164.530696 
L 256.494471 170.484614 
L 254.458004 176.473527 
L 250.664764 181.790029 
L 245.563923 185.807463 
L 239.756108 188.048794 
" clip-path="url(#pbf9d57046b)" style="fill: none; stroke: #1a3380; stroke-opacity: 0.2; stroke-width: 0.5"/>
    <path d="M 239.756108 153.622899 
L 244.381149 152.782456 
L 248.417936 154.134252 
L 251.387067 157.493766 
L 252.945302 162.441698 
L 252.919978 168.380942 
L 251.322816 174.608577 
L 248.344598 180.394384 
L 244.333039 185.05932 
L 239.756108 188.048794 
" clip-path="url(#pbf9d57046b)" style="fill: none; stroke: #1a3380; stroke-opacity: 0.2; stroke-width: 0.5"/>
    <path d="M 239.756108 153.622899 
L 242.640258 152.267469 
L 245.153857 153.168445 
L 247.000449 156.190894 
L 247.968814 160.953551 
L 247.953081 166.882325 
L 246.960509 173.279152 
L 245.108223 179.398288 
L 242.61028 184.52448 
L 239.756108 188.048794 
" clip-path="url(#pbf9d57046b)" style="fill: none; stroke: #1a3380; stroke-opacity: 0.2; stroke-width: 0.5"/>
    <path d="M 239.756108 153.622899 
L 240.590147 152.012626 
L 241.316499 152.691006 
L 241.849792 155.547316 
L 242.129347 160.218743 
L 242.124806 166.142344 
L 241.83826 172.622446 
L 241.303317 178.905866 
L 240.581482 184.25981 
L 239.756108 188.048794 
" clip-path="url(#pbf9d57046b)" style="fill: none; stroke: #1a3380; stroke-opacity: 0.2; stroke-width: 0.5"/>
    <path d="M 239.756108 153.622899 
L 238.450718 152.044927 
L 237.313769 152.751502 
L 236.478951 155.628845 
L 236.041312 160.311819 
L 236.048422 166.236075 
L 236.497003 172.705639 
L 237.334404 178.96826 
L 238.464282 184.293356 
L 239.756108 188.048794 
" clip-path="url(#pbf9d57046b)" style="fill: none; stroke: #1a3380; stroke-opacity: 0.2; stroke-width: 0.5"/>
    <path d="M 239.756108 153.622899 
L 236.451106 152.360951 
L 233.569951 153.343664 
L 231.452879 156.427166 
L 230.342517 161.223363 
L 230.360559 167.154037 
L 231.498673 173.520241 
L 233.622265 179.579003 
L 236.485463 184.621567 
L 239.756108 188.048794 
" clip-path="url(#pbf9d57046b)" style="fill: none; stroke: #1a3380; stroke-opacity: 0.2; stroke-width: 0.5"/>
    <path d="M 239.756108 153.622899 
L 234.80598 152.927202 
L 230.483659 154.405948 
L 227.303444 157.860522 
L 225.634067 162.860752 
L 225.6612 168.802941 
L 227.372272 174.982802 
L 230.5622 180.674597 
L 234.857484 185.209645 
L 239.756108 188.048794 
" clip-path="url(#pbf9d57046b)" style="fill: none; stroke: #1a3380; stroke-opacity: 0.2; stroke-width: 0.5"/>
    <path d="M 239.756108 153.622899 
L 233.693132 153.68342 
L 228.3876 155.827122 
L 224.477106 159.780631 
L 222.422053 165.05568 
L 222.455467 171.013282 
L 224.561801 176.941979 
L 228.484102 182.140285 
L 233.756286 185.994995 
L 239.756108 188.048794 
" clip-path="url(#pbf9d57046b)" style="fill: none; stroke: #1a3380; stroke-opacity: 0.2; stroke-width: 0.5"/>
    <path d="M 239.756108 153.622899 
L 233.234412 154.548652 
L 227.513285 157.456703 
L 223.287967 161.985841 
L 221.064568 167.578637 
L 221.100735 173.55392 
L 223.379558 179.191979 
L 227.617464 183.820843 
L 233.302433 186.893537 
L 239.756108 188.048794 
" clip-path="url(#pbf9d57046b)" style="fill: none; stroke: #1a3380; stroke-opacity: 0.2; stroke-width: 0.5"/>
    <path d="M 239.756108 153.622899 
L 233.482012 155.429607 
L 227.964163 159.119785 
L 223.880593 164.240278 
L 221.728914 170.160262 
L 221.76393 176.153599 
L 223.969186 181.492121 
L 228.064758 185.535875 
L 233.547538 187.80838 
L 239.756108 188.048794 
" clip-path="url(#pbf9d57046b)" style="fill: none; stroke: #1a3380; stroke-opacity: 0.2; stroke-width: 0.5"/>
    <path d="M 239.756108 153.622899 
L 234.411762 156.23056 
L 229.700787 160.635255 
L 226.207822 166.298052 
L 224.365099 172.518757 
L 224.395099 178.528554 
L 226.283661 183.591536 
L 229.786762 187.098622 
L 234.467645 188.640123 
L 239.756108 188.048794 
" clip-path="url(#pbf9d57046b)" style="fill: none; stroke: #1a3380; stroke-opacity: 0.2; stroke-width: 0.5"/>
    <path d="M 239.756108 153.622899 
L 235.924629 156.863835 
L 232.541089 161.835776 
L 230.028631 167.930503 
L 228.701898 174.391182 
L 228.723505 180.414023 
L 230.083216 185.256969 
L 232.602891 188.336549 
L 235.964732 189.297727 
L 239.756108 188.048794 
" clip-path="url(#pbf9d57046b)" style="fill: none; stroke: #1a3380; stroke-opacity: 0.2; stroke-width: 0.5"/>
    <path d="M 239.756108 153.622899 
L 237.856712 157.259674 
L 236.177469 162.587219 
L 234.929384 168.953355 
L 234.26992 175.565033 
L 234.280662 181.596041 
L 234.95651 186.300464 
L 236.208157 189.111388 
L 237.876604 189.708766 
L 239.756108 188.048794 
" clip-path="url(#pbf9d57046b)" style="fill: none; stroke: #1a3380; stroke-opacity: 0.2; stroke-width: 0.5"/>
    <path d="M 239.756108 153.622899 
L 239.996974 157.374277 
L 240.209993 162.804925 
L 240.368359 169.249844 
L 240.452052 175.905383 
L 240.450689 181.938757 
L 240.364917 186.602934 
L 240.206099 189.335869 
L 239.994451 189.827768 
L 239.756108 188.048794 
" clip-path="url(#pbf9d57046b)" style="fill: none; stroke: #1a3380; stroke-opacity: 0.2; stroke-width: 0.5"/>
    <path d="M 239.756108 153.622899 
L 242.110824 157.194934 
L 244.192225 162.464265 
L 245.738976 168.785936 
L 246.556169 175.372865 
L 246.542858 181.402536 
L 245.705361 186.129668 
L 244.154191 188.984606 
L 242.086166 189.64154 
L 239.756108 188.048794 
" clip-path="url(#pbf9d57046b)" style="fill: none; stroke: #1a3380; stroke-opacity: 0.2; stroke-width: 0.5"/>
    <path d="M 239.756108 153.622899 
L 243.966662 156.741529 
L 247.683656 161.603756 
L 250.44293 167.614845 
L 251.899726 174.029025 
L 251.876002 180.049344 
L 250.38299 184.934938 
L 247.615775 188.097303 
L 243.9226 189.170723 
L 239.756108 188.048794 
" clip-path="url(#pbf9d57046b)" style="fill: none; stroke: #1a3380; stroke-opacity: 0.2; stroke-width: 0.5"/>
    <path d="M 239.756108 153.622899 
L 239.756108 153.622899 
L 239.756108 153.622899 
L 239.756108 153.622899 
L 239.756108 153.622899 
L 239.756108 153.622899 
L 239.756108 153.622899 
L 239.756108 153.622899 
L 239.756108 153.622899 
L 239.756108 153.622899 
L 239.756108 153.622899 
L 239.756108 153.622899 
L 239.756108 153.622899 
L 239.756108 153.622899 
L 239.756108 153.622899 
L 239.756108 153.622899 
L 239.756108 153.622899 
L 239.756108 153.622899 
L 239.756108 153.622899 
L 239.756108 153.622899 
" clip-path="url(#pbf9d57046b)" style="fill: none; stroke: #1a3380; stroke-opacity: 0.2; stroke-width: 0.5"/>
    <path d="M 243.966662 156.741529 
L 245.362057 156.06419 
L 246.146239 155.237436 
L 246.236242 154.351625 
L 245.625039 153.502843 
L 244.381149 152.782456 
L 242.640258 152.267469 
L 240.590147 152.012626 
L 238.450718 152.044927 
L 236.451106 152.360951 
L 234.80598 152.927202 
L 233.693132 153.68342 
L 233.234412 154.548652 
L 233.482012 155.429607 
L 234.411762 156.23056 
L 235.924629 156.863835 
L 237.856712 157.259674 
L 239.996974 157.374277 
L 242.110824 157.194934 
L 243.966662 156.741529 
" clip-path="url(#pbf9d57046b)" style="fill: none; stroke: #1a3380; stroke-opacity: 0.2; stroke-width: 0.5"/>
    <path d="M 247.683656 161.603756 
L 250.301273 160.320201 
L 251.763037 158.756666 
L 251.917697 157.085289 
L 250.758107 155.487499 
L 248.417936 154.134252 
L 245.153857 153.168445 
L 241.316499 152.691006 
L 237.313769 152.751502 
L 233.569951 153.343664 
L 230.483659 154.405948 
L 228.3876 155.827122 
L 227.513285 157.456703 
L 227.964163 159.119785 
L 229.700787 160.635255 
L 232.541089 161.835776 
L 236.177469 162.587219 
L 240.209993 162.804925 
L 244.192225 162.464265 
L 247.683656 161.603756 
" clip-path="url(#pbf9d57046b)" style="fill: none; stroke: #1a3380; stroke-opacity: 0.2; stroke-width: 0.5"/>
    <path d="M 250.44293 167.614845 
L 253.962044 165.869987 
L 255.917973 163.747705 
L 256.111789 161.482896 
L 254.539897 159.321515 
L 251.387067 157.493766 
L 247.000449 156.190894 
L 241.849792 155.547316 
L 236.478951 155.628845 
L 231.452879 156.427166 
L 227.303444 157.860522 
L 224.477106 159.780631 
L 223.287967 161.985841 
L 223.880593 164.240278 
L 226.207822 166.298052 
L 230.028631 167.930503 
L 234.929384 168.953355 
L 240.368359 169.249844 
L 245.738976 168.785936 
L 250.44293 167.614845 
" clip-path="url(#pbf9d57046b)" style="fill: none; stroke: #1a3380; stroke-opacity: 0.2; stroke-width: 0.5"/>
    <path d="M 251.899726 174.029025 
L 255.892805 172.027972 
L 258.106617 169.595999 
L 258.3181 167.003024 
L 256.526773 164.530696 
L 252.945302 162.441698 
L 247.968814 160.953551 
L 242.129347 160.218743 
L 236.041312 160.311819 
L 230.342517 161.223363 
L 225.634067 162.860752 
L 222.422053 165.05568 
L 221.064568 167.578637 
L 221.728914 170.160262 
L 224.365099 172.518757 
L 228.701898 174.391182 
L 234.26992 175.565033 
L 240.452052 175.905383 
L 246.556169 175.372865 
L 251.899726 174.029025 
" clip-path="url(#pbf9d57046b)" style="fill: none; stroke: #1a3380; stroke-opacity: 0.2; stroke-width: 0.5"/>
    <path d="M 251.876002 180.049344 
L 255.861374 178.034346 
L 258.071003 175.585394 
L 258.282215 172.974276 
L 256.494471 170.484614 
L 252.919978 168.380942 
L 247.953081 166.882325 
L 242.124806 166.142344 
L 236.048422 166.236075 
L 230.360559 167.154037 
L 225.6612 168.802941 
L 222.455467 171.013282 
L 221.100735 173.55392 
L 221.76393 176.153599 
L 224.395099 178.528554 
L 228.723505 180.414023 
L 234.280662 181.596041 
L 240.450689 181.938757 
L 246.542858 181.402536 
L 251.876002 180.049344 
" clip-path="url(#pbf9d57046b)" style="fill: none; stroke: #1a3380; stroke-opacity: 0.2; stroke-width: 0.5"/>
    <path d="M 250.38299 184.934938 
L 253.882574 183.154815 
L 255.827848 180.989569 
L 256.020893 178.678827 
L 254.458004 176.473527 
L 251.322816 174.608577 
L 246.960509 173.279152 
L 241.83826 172.622446 
L 236.497003 172.705639 
L 231.498673 173.520241 
L 227.372272 174.982802 
L 224.561801 176.941979 
L 223.379558 179.191979 
L 223.969186 181.492121 
L 226.283661 183.591536 
L 230.083216 185.256969 
L 234.95651 186.300464 
L 240.364917 186.602934 
L 245.705361 186.129668 
L 250.38299 184.934938 
" clip-path="url(#pbf9d57046b)" style="fill: none; stroke: #1a3380; stroke-opacity: 0.2; stroke-width: 0.5"/>
    <path d="M 247.615775 188.097303 
L 250.211152 186.773744 
L 251.660665 185.161419 
L 251.814267 183.437816 
L 250.664764 181.790029 
L 248.344598 180.394384 
L 245.108223 179.398288 
L 241.303317 178.905866 
L 237.334404 178.96826 
L 233.622265 179.579003 
L 230.5622 180.674597 
L 228.484102 182.140285 
L 227.617464 183.820843 
L 228.064758 185.535875 
L 229.786762 187.098622 
L 232.602891 188.336549 
L 236.208157 189.111388 
L 240.206099 189.335869 
L 244.154191 188.984606 
L 247.615775 188.097303 
" clip-path="url(#pbf9d57046b)" style="fill: none; stroke: #1a3380; stroke-opacity: 0.2; stroke-width: 0.5"/>
    <path d="M 243.9226 189.170723 
L 245.303452 188.467359 
L 246.07952 187.608819 
L 246.168675 186.688926 
L 245.563923 185.807463 
L 244.333039 185.05932 
L 242.61028 184.52448 
L 240.581482 184.25981 
L 238.464282 184.293356 
L 236.485463 184.621567 
L 234.857484 185.209645 
L 233.756286 185.994995 
L 233.302433 186.893537 
L 233.547538 187.80838 
L 234.467645 188.640123 
L 235.964732 189.297727 
L 237.876604 189.708766 
L 239.994451 189.827768 
L 242.086166 189.64154 
L 243.9226 189.170723 
" clip-path="url(#pbf9d57046b)" style="fill: none; stroke: #1a3380; stroke-opacity: 0.2; stroke-width: 0.5"/>
    <path d="M 239.756108 188.048794 
L 239.756108 188.048794 
L 239.756108 188.048794 
L 239.756108 188.048794 
L 239.756108 188.048794 
L 239.756108 188.048794 
L 239.756108 188.048794 
L 239.756108 188.048794 
L 239.756108 188.048794 
L 239.756108 188.048794 
L 239.756108 188.048794 
L 239.756108 188.048794 
L 239.756108 188.048794 
L 239.756108 188.048794 
L 239.756108 188.048794 
L 239.756108 188.048794 
L 239.756108 188.048794 
L 239.756108 188.048794 
L 239.756108 188.048794 
L 239.756108 188.048794 
" clip-path="url(#pbf9d57046b)" style="fill: none; stroke: #1a3380; stroke-opacity: 0.2; stroke-width: 0.5"/>
   </g>
  </g>
 </g>
 <defs>
  <clipPath id="pbf9d57046b">
   <rect x="103.104" y="41.472" width="266.112" height="266.112"/>
  </clipPath>
 </defs>
</svg>
